%TF.GenerationSoftware,KiCad,Pcbnew,(6.0.9-0)*%
%TF.CreationDate,2023-01-29T21:50:31+01:00*%
%TF.ProjectId,Intellec8ExtenderBoard,496e7465-6c6c-4656-9338-457874656e64,rev?*%
%TF.SameCoordinates,Original*%
%TF.FileFunction,Paste,Bot*%
%TF.FilePolarity,Positive*%
%FSLAX46Y46*%
G04 Gerber Fmt 4.6, Leading zero omitted, Abs format (unit mm)*
G04 Created by KiCad (PCBNEW (6.0.9-0)) date 2023-01-29 21:50:31*
%MOMM*%
%LPD*%
G01*
G04 APERTURE LIST*
G04 Aperture macros list*
%AMRoundRect*
0 Rectangle with rounded corners*
0 $1 Rounding radius*
0 $2 $3 $4 $5 $6 $7 $8 $9 X,Y pos of 4 corners*
0 Add a 4 corners polygon primitive as box body*
4,1,4,$2,$3,$4,$5,$6,$7,$8,$9,$2,$3,0*
0 Add four circle primitives for the rounded corners*
1,1,$1+$1,$2,$3*
1,1,$1+$1,$4,$5*
1,1,$1+$1,$6,$7*
1,1,$1+$1,$8,$9*
0 Add four rect primitives between the rounded corners*
20,1,$1+$1,$2,$3,$4,$5,0*
20,1,$1+$1,$4,$5,$6,$7,0*
20,1,$1+$1,$6,$7,$8,$9,0*
20,1,$1+$1,$8,$9,$2,$3,0*%
G04 Aperture macros list end*
%ADD10RoundRect,0.072000X0.828000X-4.928000X0.828000X4.928000X-0.828000X4.928000X-0.828000X-4.928000X0*%
%ADD11RoundRect,0.072000X0.828000X-9.928000X0.828000X9.928000X-0.828000X9.928000X-0.828000X-9.928000X0*%
G04 APERTURE END LIST*
D10*
%TO.C,J1*%
X105900000Y-331825000D03*
X109075000Y-331825000D03*
X112250000Y-331825000D03*
X115425000Y-331825000D03*
X118600000Y-331825000D03*
X121775000Y-331825000D03*
X124950000Y-331825000D03*
X128125000Y-331825000D03*
X131300000Y-331825000D03*
X134475000Y-331825000D03*
X137650000Y-331825000D03*
X140825000Y-331825000D03*
X144000000Y-331825000D03*
X147175000Y-331825000D03*
X150350000Y-331825000D03*
X153525000Y-331825000D03*
X156700000Y-331825000D03*
X159875000Y-331825000D03*
X163050000Y-331825000D03*
X166225000Y-331825000D03*
X169400000Y-331825000D03*
X172575000Y-331825000D03*
X175750000Y-331825000D03*
X178925000Y-331825000D03*
X182100000Y-331825000D03*
X185275000Y-331825000D03*
X188450000Y-331825000D03*
X191625000Y-331825000D03*
X194800000Y-331825000D03*
X197975000Y-331825000D03*
X201150000Y-331825000D03*
X204325000Y-331825000D03*
X207500000Y-331825000D03*
X210675000Y-331825000D03*
X213850000Y-331825000D03*
X217025000Y-331825000D03*
X220200000Y-331825000D03*
X223375000Y-331825000D03*
X226550000Y-331825000D03*
X229725000Y-331825000D03*
X232900000Y-331825000D03*
X236075000Y-331825000D03*
X239250000Y-331825000D03*
X242425000Y-331825000D03*
X245600000Y-331825000D03*
X248775000Y-331825000D03*
X251950000Y-331825000D03*
X255125000Y-331825000D03*
X258300000Y-331825000D03*
X261475000Y-331825000D03*
%TD*%
D11*
%TO.C,J2*%
X105900000Y-107905000D03*
X109075000Y-107905000D03*
X112250000Y-107905000D03*
X115425000Y-107905000D03*
X118600000Y-107905000D03*
X121775000Y-107905000D03*
X124950000Y-107905000D03*
X128125000Y-107905000D03*
X131300000Y-107905000D03*
X134475000Y-107905000D03*
X137650000Y-107905000D03*
X140825000Y-107905000D03*
X144000000Y-107905000D03*
X147175000Y-107905000D03*
X150350000Y-107905000D03*
X153525000Y-107905000D03*
X156700000Y-107905000D03*
X159875000Y-107905000D03*
X163050000Y-107905000D03*
X166225000Y-107905000D03*
X169400000Y-107905000D03*
X172575000Y-107905000D03*
X175750000Y-107905000D03*
X178925000Y-107905000D03*
X182100000Y-107905000D03*
X185275000Y-107905000D03*
X188450000Y-107905000D03*
X191625000Y-107905000D03*
X194800000Y-107905000D03*
X197975000Y-107905000D03*
X201150000Y-107905000D03*
X204325000Y-107905000D03*
X207500000Y-107905000D03*
X210675000Y-107905000D03*
X213850000Y-107905000D03*
X217025000Y-107905000D03*
X220200000Y-107905000D03*
X223375000Y-107905000D03*
X226550000Y-107905000D03*
X229725000Y-107905000D03*
X232900000Y-107905000D03*
X236075000Y-107905000D03*
X239250000Y-107905000D03*
X242425000Y-107905000D03*
X245600000Y-107905000D03*
X248775000Y-107905000D03*
X251950000Y-107905000D03*
X255125000Y-107905000D03*
X258300000Y-107905000D03*
X261475000Y-107905000D03*
%TD*%
M02*
