%TF.GenerationSoftware,KiCad,Pcbnew,(6.0.9-0)*%
%TF.CreationDate,2023-01-29T21:50:31+01:00*%
%TF.ProjectId,Intellec8ExtenderBoard,496e7465-6c6c-4656-9338-457874656e64,rev?*%
%TF.SameCoordinates,Original*%
%TF.FileFunction,Copper,L1,Top*%
%TF.FilePolarity,Positive*%
%FSLAX46Y46*%
G04 Gerber Fmt 4.6, Leading zero omitted, Abs format (unit mm)*
G04 Created by KiCad (PCBNEW (6.0.9-0)) date 2023-01-29 21:50:31*
%MOMM*%
%LPD*%
G01*
G04 APERTURE LIST*
G04 Aperture macros list*
%AMRoundRect*
0 Rectangle with rounded corners*
0 $1 Rounding radius*
0 $2 $3 $4 $5 $6 $7 $8 $9 X,Y pos of 4 corners*
0 Add a 4 corners polygon primitive as box body*
4,1,4,$2,$3,$4,$5,$6,$7,$8,$9,$2,$3,0*
0 Add four circle primitives for the rounded corners*
1,1,$1+$1,$2,$3*
1,1,$1+$1,$4,$5*
1,1,$1+$1,$6,$7*
1,1,$1+$1,$8,$9*
0 Add four rect primitives between the rounded corners*
20,1,$1+$1,$2,$3,$4,$5,0*
20,1,$1+$1,$4,$5,$6,$7,0*
20,1,$1+$1,$6,$7,$8,$9,0*
20,1,$1+$1,$8,$9,$2,$3,0*%
G04 Aperture macros list end*
%TA.AperFunction,SMDPad,CuDef*%
%ADD10RoundRect,0.072000X0.828000X-4.928000X0.828000X4.928000X-0.828000X4.928000X-0.828000X-4.928000X0*%
%TD*%
%TA.AperFunction,ComponentPad*%
%ADD11R,1.700000X1.700000*%
%TD*%
%TA.AperFunction,ComponentPad*%
%ADD12O,1.700000X1.700000*%
%TD*%
%TA.AperFunction,SMDPad,CuDef*%
%ADD13RoundRect,0.072000X0.828000X-9.928000X0.828000X9.928000X-0.828000X9.928000X-0.828000X-9.928000X0*%
%TD*%
%TA.AperFunction,ViaPad*%
%ADD14C,1.400000*%
%TD*%
%TA.AperFunction,ViaPad*%
%ADD15C,0.800000*%
%TD*%
%TA.AperFunction,Conductor*%
%ADD16C,0.250000*%
%TD*%
%TA.AperFunction,Conductor*%
%ADD17C,1.000000*%
%TD*%
%TA.AperFunction,Conductor*%
%ADD18C,1.200000*%
%TD*%
G04 APERTURE END LIST*
D10*
%TO.P,J1,1,Pin_1*%
%TO.N,/~{T2}*%
X105900000Y-331825000D03*
%TO.P,J1,3,Pin_3*%
%TO.N,/GND*%
X109075000Y-331825000D03*
%TO.P,J1,5,Pin_5*%
%TO.N,/~{INTACK}*%
X112250000Y-331825000D03*
%TO.P,J1,7,Pin_7*%
%TO.N,/~{SYNCA}*%
X115425000Y-331825000D03*
%TO.P,J1,9,Pin_9*%
%TO.N,/~{INT REQ LTH}*%
X118600000Y-331825000D03*
%TO.P,J1,11,Pin_11*%
%TO.N,/MAD0*%
X121775000Y-331825000D03*
%TO.P,J1,13,Pin_13*%
%TO.N,/MAD2*%
X124950000Y-331825000D03*
%TO.P,J1,15,Pin_15*%
%TO.N,/MAD4*%
X128125000Y-331825000D03*
%TO.P,J1,17,Pin_17*%
%TO.N,/MAD6*%
X131300000Y-331825000D03*
%TO.P,J1,19,Pin_19*%
%TO.N,/MAD8*%
X134475000Y-331825000D03*
%TO.P,J1,21,Pin_21*%
%TO.N,/~{WAIT REQ}*%
X137650000Y-331825000D03*
%TO.P,J1,23,Pin_23*%
%TO.N,/MDI0*%
X140825000Y-331825000D03*
%TO.P,J1,25,Pin_25*%
%TO.N,/MDI1*%
X144000000Y-331825000D03*
%TO.P,J1,27,Pin_27*%
%TO.N,/MDI3*%
X147175000Y-331825000D03*
%TO.P,J1,29,Pin_29*%
%TO.N,/MDI2*%
X150350000Y-331825000D03*
%TO.P,J1,31,Pin_31*%
%TO.N,/MDI5*%
X153525000Y-331825000D03*
%TO.P,J1,33,Pin_33*%
%TO.N,/MDI4*%
X156700000Y-331825000D03*
%TO.P,J1,35,Pin_35*%
%TO.N,/MDI7*%
X159875000Y-331825000D03*
%TO.P,J1,37,Pin_37*%
%TO.N,/MDI6*%
X163050000Y-331825000D03*
%TO.P,J1,39,Pin_39*%
%TO.N,/~{T41}*%
X166225000Y-331825000D03*
%TO.P,J1,41,Pin_41*%
%TO.N,/~{T42}*%
X169400000Y-331825000D03*
%TO.P,J1,43,Pin_43*%
%TO.N,/-9V*%
X172575000Y-331825000D03*
%TO.P,J1,45,Pin_45*%
%TO.N,/~{T43}*%
X175750000Y-331825000D03*
%TO.P,J1,47,Pin_47*%
%TO.N,/-12V*%
X178925000Y-331825000D03*
%TO.P,J1,49,Pin_49*%
%TO.N,/+12V*%
X182100000Y-331825000D03*
%TO.P,J1,51,Pin_51*%
%TO.N,/~{HOLD REQ}*%
X185275000Y-331825000D03*
%TO.P,J1,53,Pin_53*%
%TO.N,/~{BUS BUSY}*%
X188450000Y-331825000D03*
%TO.P,J1,55,Pin_55*%
%TO.N,/OSC*%
X191625000Y-331825000D03*
%TO.P,J1,57,Pin_57*%
%TO.N,/~{IN JAM ENBL}*%
X194800000Y-331825000D03*
%TO.P,J1,59,Pin_59*%
%TO.N,/MAD13*%
X197975000Y-331825000D03*
%TO.P,J1,61,Pin_61*%
%TO.N,/~{WAIT ACK}*%
X201150000Y-331825000D03*
%TO.P,J1,63,Pin_63*%
%TO.N,/~{T3}*%
X204325000Y-331825000D03*
%TO.P,J1,65,Pin_65*%
%TO.N,/MAD15*%
X207500000Y-331825000D03*
%TO.P,J1,67,Pin_67*%
%TO.N,/~{MEM READ CYCLE}*%
X210675000Y-331825000D03*
%TO.P,J1,69,Pin_69*%
%TO.N,/II0*%
X213850000Y-331825000D03*
%TO.P,J1,71,Pin_71*%
%TO.N,/II1*%
X217025000Y-331825000D03*
%TO.P,J1,73,Pin_73*%
%TO.N,/II3*%
X220200000Y-331825000D03*
%TO.P,J1,75,Pin_75*%
%TO.N,/~{INT CYCLE}*%
X223375000Y-331825000D03*
%TO.P,J1,77,Pin_77*%
%TO.N,/II2*%
X226550000Y-331825000D03*
%TO.P,J1,79,Pin_79*%
%TO.N,/IN5*%
X229725000Y-331825000D03*
%TO.P,J1,81,Pin_81*%
%TO.N,/IN6*%
X232900000Y-331825000D03*
%TO.P,J1,83,Pin_83*%
%TO.N,/II5*%
X236075000Y-331825000D03*
%TO.P,J1,85,Pin_85*%
%TO.N,/II6*%
X239250000Y-331825000D03*
%TO.P,J1,87,Pin_87*%
%TO.N,/II7*%
X242425000Y-331825000D03*
%TO.P,J1,89,Pin_89*%
%TO.N,/CLK PHASE 2*%
X245600000Y-331825000D03*
%TO.P,J1,91,Pin_91*%
%TO.N,/~{T45}*%
X248775000Y-331825000D03*
%TO.P,J1,93,Pin_93*%
%TO.N,/RAM MOD ENBL*%
X251950000Y-331825000D03*
%TO.P,J1,95,Pin_95*%
%TO.N,/R{slash}~{W}*%
X255125000Y-331825000D03*
%TO.P,J1,97,Pin_97*%
%TO.N,/PROM MOD ENBL*%
X258300000Y-331825000D03*
%TO.P,J1,99,Pin_99*%
%TO.N,/+5V*%
X261475000Y-331825000D03*
%TD*%
D11*
%TO.P,J57,1,Pin_1*%
%TO.N,/~{DB OUT}*%
X107442000Y-132207000D03*
%TD*%
%TO.P,J56,1,Pin_1*%
%TO.N,/~{HALT ACK}*%
X202565000Y-147955000D03*
%TD*%
%TO.P,J55,1,Pin_1*%
%TO.N,/~{INT REQ}*%
X170688000Y-166878000D03*
%TD*%
%TO.P,J54,1,Pin_1*%
%TO.N,/~{INTACK}*%
X112268000Y-141224000D03*
%TD*%
%TO.P,J53,1,Pin_1*%
%TO.N,/PROM MOD ENBL*%
X258318000Y-130175000D03*
%TD*%
%TO.P,J52,1,Pin_1*%
%TO.N,/~{HLT INT REQ}*%
X193040000Y-154686000D03*
%TD*%
%TO.P,J51,1,Pin_1*%
%TO.N,/~{INT REQ LTH}*%
X118618000Y-142367000D03*
%TD*%
%TO.P,J50,1,Pin_1*%
%TO.N,/~{INT DSBL}*%
X221615000Y-169926000D03*
%TD*%
%TO.P,J49,1,Pin_1*%
%TO.N,/CLK PHASE 2*%
X245618000Y-143383000D03*
%TD*%
%TO.P,J48,1,Pin_1*%
%TO.N,/~{HOLD REQ}*%
X185293000Y-122936000D03*
%TD*%
%TO.P,J47,1,Pin_1*%
%TO.N,/RAM MOD ENBL*%
X251968000Y-136144000D03*
%TD*%
%TO.P,J46,1,Pin_1*%
%TO.N,/CLK PHASE 1*%
X259588000Y-124587000D03*
%TD*%
%TO.P,J45,1,Pin_1*%
%TO.N,/OSC*%
X191643000Y-148590000D03*
%TD*%
%TO.P,J44,1,Pin_1*%
%TO.N,/~{HOLD ACK}*%
X177292000Y-149479000D03*
%TD*%
%TO.P,J43,1,Pin_1*%
%TO.N,/~{BUS BUSY}*%
X188468000Y-153162000D03*
%TD*%
%TO.P,J18,1,Pin_1*%
%TO.N,/R{slash}~{W}*%
X255143000Y-124587000D03*
%TD*%
%TO.P,J17,1,Pin_1*%
%TO.N,/~{IN JAM ENBL}*%
X194818000Y-160147000D03*
%TD*%
%TO.P,J16,1,Pin_1*%
%TO.N,/~{SYNCA}*%
X115443000Y-129159000D03*
%TD*%
%TO.P,J15,1,Pin_1*%
%TO.N,/~{I{slash}O OUT}*%
X189992000Y-160020000D03*
%TD*%
%TO.P,J11,1,Pin_1*%
%TO.N,/~{I{slash}O IN}*%
X234442000Y-124714000D03*
%TD*%
%TO.P,J10,1,Pin_1*%
%TO.N,/~{DBIN}*%
X137668000Y-164465000D03*
%TD*%
%TO.P,J42,1,Pin_1*%
%TO.N,/~{INT CYCLE}*%
X223393000Y-165608000D03*
%TD*%
%TO.P,J41,1,Pin_1*%
%TO.N,/~{MEM READ CYCLE}*%
X210566000Y-134493000D03*
%TD*%
%TO.P,J40,1,Pin_1*%
%TO.N,/~{MEM WRITE CYCLE}*%
X196088000Y-149479000D03*
%TD*%
%TO.P,J39,1,Pin_1*%
%TO.N,/~{FETCH CYCLE}*%
X212217000Y-129286000D03*
%TD*%
%TO.P,J38,1,Pin_1*%
%TO.N,/~{I{slash}O CYCLE}*%
X205740000Y-133096000D03*
%TD*%
%TO.P,J37,1,Pin_1*%
%TO.N,/STACK CYCLE*%
X114046000Y-123317000D03*
%TD*%
%TO.P,J13,1,Pin_1*%
%TO.N,/~{WAIT ACK}*%
X201041000Y-133096000D03*
%TD*%
%TO.P,J8,1,Pin_1*%
%TO.N,/~{WAIT REQ}*%
X136398000Y-122555000D03*
%TD*%
%TO.P,J29,1,Pin_1*%
%TO.N,/~{T44}*%
X247142000Y-135636000D03*
%TD*%
%TO.P,J25,1,Pin_1*%
%TO.N,/GND*%
X109093000Y-136017000D03*
%TD*%
%TO.P,J12,1,Pin_1*%
%TO.N,/+5V*%
X169926000Y-142875000D03*
%TD*%
%TO.P,J7,1,Pin_1*%
%TO.N,/IN0*%
X222885000Y-142875000D03*
D12*
%TO.P,J7,2,Pin_2*%
%TO.N,/IN1*%
X225425000Y-142875000D03*
%TO.P,J7,3,Pin_3*%
%TO.N,/IN2*%
X222885000Y-145415000D03*
%TO.P,J7,4,Pin_4*%
%TO.N,/IN3*%
X225425000Y-145415000D03*
%TO.P,J7,5,Pin_5*%
%TO.N,/IN4*%
X222885000Y-147955000D03*
%TO.P,J7,6,Pin_6*%
%TO.N,/IN5*%
X225425000Y-147955000D03*
%TO.P,J7,7,Pin_7*%
%TO.N,/IN6*%
X222885000Y-150495000D03*
%TO.P,J7,8,Pin_8*%
%TO.N,/IN7*%
X225425000Y-150495000D03*
%TD*%
D11*
%TO.P,J27,1,Pin_1*%
%TO.N,/~{T40}*%
X167513000Y-154305000D03*
%TD*%
%TO.P,J23,1,Pin_1*%
%TO.N,/GND*%
X170180000Y-158115000D03*
%TD*%
%TO.P,J32,1,Pin_1*%
%TO.N,/~{T3A}*%
X243840000Y-130683000D03*
%TD*%
%TO.P,J36,1,Pin_1*%
%TO.N,/~{T47}*%
X117094000Y-136144000D03*
%TD*%
%TO.P,J31,1,Pin_1*%
%TO.N,/~{T2}*%
X105918000Y-127254000D03*
%TD*%
%TO.P,J20,1,Pin_1*%
%TO.N,/-12V*%
X170180000Y-127635000D03*
%TD*%
%TO.P,J4,1,Pin_1*%
%TO.N,/DB0*%
X139060000Y-151765000D03*
D12*
%TO.P,J4,2,Pin_2*%
%TO.N,/DB1*%
X141600000Y-151765000D03*
%TO.P,J4,3,Pin_3*%
%TO.N,/DB2*%
X139060000Y-154305000D03*
%TO.P,J4,4,Pin_4*%
%TO.N,/DB3*%
X141600000Y-154305000D03*
%TO.P,J4,5,Pin_5*%
%TO.N,/DB4*%
X139060000Y-156845000D03*
%TO.P,J4,6,Pin_6*%
%TO.N,/DB5*%
X141600000Y-156845000D03*
%TO.P,J4,7,Pin_7*%
%TO.N,/DB6*%
X139060000Y-159385000D03*
%TO.P,J4,8,Pin_8*%
%TO.N,/DB7*%
X141600000Y-159385000D03*
%TD*%
D11*
%TO.P,J33,1,Pin_1*%
%TO.N,/~{T41}*%
X166243000Y-148463000D03*
%TD*%
%TO.P,J30,1,Pin_1*%
%TO.N,/~{T46}*%
X250317000Y-124460000D03*
%TD*%
%TO.P,J5,1,Pin_1*%
%TO.N,/MDI0*%
X191770000Y-126365000D03*
D12*
%TO.P,J5,2,Pin_2*%
%TO.N,/MDI1*%
X194310000Y-126365000D03*
%TO.P,J5,3,Pin_3*%
%TO.N,/MDI2*%
X191770000Y-128905000D03*
%TO.P,J5,4,Pin_4*%
%TO.N,/MDI3*%
X194310000Y-128905000D03*
%TO.P,J5,5,Pin_5*%
%TO.N,/MDI4*%
X191770000Y-131445000D03*
%TO.P,J5,6,Pin_6*%
%TO.N,/MDI5*%
X194310000Y-131445000D03*
%TO.P,J5,7,Pin_7*%
%TO.N,/MDI6*%
X191770000Y-133985000D03*
%TO.P,J5,8,Pin_8*%
%TO.N,/MDI7*%
X194310000Y-133985000D03*
%TD*%
D11*
%TO.P,J26,1,Pin_1*%
%TO.N,/~{T3}*%
X204343000Y-128270000D03*
%TD*%
%TO.P,J19,1,Pin_1*%
%TO.N,/-9V*%
X170180000Y-150368000D03*
%TD*%
%TO.P,J21,1,Pin_1*%
%TO.N,/+12V*%
X170180000Y-135255000D03*
%TD*%
D13*
%TO.P,J2,1,Pin_1*%
%TO.N,/~{T2}*%
X105900000Y-107905000D03*
%TO.P,J2,3,Pin_3*%
%TO.N,/GND*%
X109075000Y-107905000D03*
%TO.P,J2,5,Pin_5*%
%TO.N,/~{INTACK}*%
X112250000Y-107905000D03*
%TO.P,J2,7,Pin_7*%
%TO.N,/~{SYNCA}*%
X115425000Y-107905000D03*
%TO.P,J2,9,Pin_9*%
%TO.N,/~{INT REQ LTH}*%
X118600000Y-107905000D03*
%TO.P,J2,11,Pin_11*%
%TO.N,/MAD0*%
X121775000Y-107905000D03*
%TO.P,J2,13,Pin_13*%
%TO.N,/MAD2*%
X124950000Y-107905000D03*
%TO.P,J2,15,Pin_15*%
%TO.N,/MAD4*%
X128125000Y-107905000D03*
%TO.P,J2,17,Pin_17*%
%TO.N,/MAD6*%
X131300000Y-107905000D03*
%TO.P,J2,19,Pin_19*%
%TO.N,/MAD8*%
X134475000Y-107905000D03*
%TO.P,J2,21,Pin_21*%
%TO.N,/~{WAIT REQ}*%
X137650000Y-107905000D03*
%TO.P,J2,23,Pin_23*%
%TO.N,/MDI0*%
X140825000Y-107905000D03*
%TO.P,J2,25,Pin_25*%
%TO.N,/MDI1*%
X144000000Y-107905000D03*
%TO.P,J2,27,Pin_27*%
%TO.N,/MDI3*%
X147175000Y-107905000D03*
%TO.P,J2,29,Pin_29*%
%TO.N,/MDI2*%
X150350000Y-107905000D03*
%TO.P,J2,31,Pin_31*%
%TO.N,/MDI5*%
X153525000Y-107905000D03*
%TO.P,J2,33,Pin_33*%
%TO.N,/MDI4*%
X156700000Y-107905000D03*
%TO.P,J2,35,Pin_35*%
%TO.N,/MDI7*%
X159875000Y-107905000D03*
%TO.P,J2,37,Pin_37*%
%TO.N,/MDI6*%
X163050000Y-107905000D03*
%TO.P,J2,39,Pin_39*%
%TO.N,/~{T41}*%
X166225000Y-107905000D03*
%TO.P,J2,41,Pin_41*%
%TO.N,/~{T42}*%
X169400000Y-107905000D03*
%TO.P,J2,43,Pin_43*%
%TO.N,/-9V*%
X172575000Y-107905000D03*
%TO.P,J2,45,Pin_45*%
%TO.N,/~{T43}*%
X175750000Y-107905000D03*
%TO.P,J2,47,Pin_47*%
%TO.N,/-12V*%
X178925000Y-107905000D03*
%TO.P,J2,49,Pin_49*%
%TO.N,/+12V*%
X182100000Y-107905000D03*
%TO.P,J2,51,Pin_51*%
%TO.N,/~{HOLD REQ}*%
X185275000Y-107905000D03*
%TO.P,J2,53,Pin_53*%
%TO.N,/~{BUS BUSY}*%
X188450000Y-107905000D03*
%TO.P,J2,55,Pin_55*%
%TO.N,/OSC*%
X191625000Y-107905000D03*
%TO.P,J2,57,Pin_57*%
%TO.N,/~{IN JAM ENBL}*%
X194800000Y-107905000D03*
%TO.P,J2,59,Pin_59*%
%TO.N,/MAD13*%
X197975000Y-107905000D03*
%TO.P,J2,61,Pin_61*%
%TO.N,/~{WAIT ACK}*%
X201150000Y-107905000D03*
%TO.P,J2,63,Pin_63*%
%TO.N,/~{T3}*%
X204325000Y-107905000D03*
%TO.P,J2,65,Pin_65*%
%TO.N,/MAD15*%
X207500000Y-107905000D03*
%TO.P,J2,67,Pin_67*%
%TO.N,/~{MEM READ CYCLE}*%
X210675000Y-107905000D03*
%TO.P,J2,69,Pin_69*%
%TO.N,/II0*%
X213850000Y-107905000D03*
%TO.P,J2,71,Pin_71*%
%TO.N,/II1*%
X217025000Y-107905000D03*
%TO.P,J2,73,Pin_73*%
%TO.N,/II3*%
X220200000Y-107905000D03*
%TO.P,J2,75,Pin_75*%
%TO.N,/~{INT CYCLE}*%
X223375000Y-107905000D03*
%TO.P,J2,77,Pin_77*%
%TO.N,/II2*%
X226550000Y-107905000D03*
%TO.P,J2,79,Pin_79*%
%TO.N,/IN5*%
X229725000Y-107905000D03*
%TO.P,J2,81,Pin_81*%
%TO.N,/IN6*%
X232900000Y-107905000D03*
%TO.P,J2,83,Pin_83*%
%TO.N,/II5*%
X236075000Y-107905000D03*
%TO.P,J2,85,Pin_85*%
%TO.N,/II6*%
X239250000Y-107905000D03*
%TO.P,J2,87,Pin_87*%
%TO.N,/II7*%
X242425000Y-107905000D03*
%TO.P,J2,89,Pin_89*%
%TO.N,/CLK PHASE 2*%
X245600000Y-107905000D03*
%TO.P,J2,91,Pin_91*%
%TO.N,/~{T45}*%
X248775000Y-107905000D03*
%TO.P,J2,93,Pin_93*%
%TO.N,/RAM MOD ENBL*%
X251950000Y-107905000D03*
%TO.P,J2,95,Pin_95*%
%TO.N,/R{slash}~{W}*%
X255125000Y-107905000D03*
%TO.P,J2,97,Pin_97*%
%TO.N,/PROM MOD ENBL*%
X258300000Y-107905000D03*
%TO.P,J2,99,Pin_99*%
%TO.N,/+5V*%
X261475000Y-107905000D03*
%TD*%
D11*
%TO.P,J6,1,Pin_1*%
%TO.N,/II0*%
X222880000Y-126375000D03*
D12*
%TO.P,J6,2,Pin_2*%
%TO.N,/II1*%
X225420000Y-126375000D03*
%TO.P,J6,3,Pin_3*%
%TO.N,/II2*%
X222880000Y-128915000D03*
%TO.P,J6,4,Pin_4*%
%TO.N,/II3*%
X225420000Y-128915000D03*
%TO.P,J6,5,Pin_5*%
%TO.N,/II4*%
X222880000Y-131455000D03*
%TO.P,J6,6,Pin_6*%
%TO.N,/II5*%
X225420000Y-131455000D03*
%TO.P,J6,7,Pin_7*%
%TO.N,/II6*%
X222880000Y-133995000D03*
%TO.P,J6,8,Pin_8*%
%TO.N,/II7*%
X225420000Y-133995000D03*
%TD*%
D11*
%TO.P,J34,1,Pin_1*%
%TO.N,/~{T43}*%
X175768000Y-161798000D03*
%TD*%
%TO.P,J9,1,Pin_1*%
%TO.N,/~{T1}*%
X120269000Y-123190000D03*
%TD*%
%TO.P,J14,1,Pin_1*%
%TO.N,/~{RESET}*%
X186690000Y-148717000D03*
%TD*%
%TO.P,J22,1,Pin_1*%
%TO.N,/GND*%
X142367000Y-165608000D03*
%TD*%
%TO.P,J24,1,Pin_1*%
%TO.N,/GND*%
X222885000Y-158750000D03*
%TD*%
%TO.P,J35,1,Pin_1*%
%TO.N,/~{T45}*%
X248666000Y-130556000D03*
%TD*%
%TO.P,J28,1,Pin_1*%
%TO.N,/~{T42}*%
X169418000Y-162941000D03*
%TD*%
%TO.P,J3,1,Pin_1*%
%TO.N,/MAD0*%
X139065000Y-126365000D03*
D12*
%TO.P,J3,2,Pin_2*%
%TO.N,/MAD1*%
X141605000Y-126365000D03*
%TO.P,J3,3,Pin_3*%
%TO.N,/MAD2*%
X139065000Y-128905000D03*
%TO.P,J3,4,Pin_4*%
%TO.N,/MAD3*%
X141605000Y-128905000D03*
%TO.P,J3,5,Pin_5*%
%TO.N,/MAD4*%
X139065000Y-131445000D03*
%TO.P,J3,6,Pin_6*%
%TO.N,/MAD5*%
X141605000Y-131445000D03*
%TO.P,J3,7,Pin_7*%
%TO.N,/MAD6*%
X139065000Y-133985000D03*
%TO.P,J3,8,Pin_8*%
%TO.N,/MAD7*%
X141605000Y-133985000D03*
%TO.P,J3,9,Pin_9*%
%TO.N,/MAD8*%
X139065000Y-136525000D03*
%TO.P,J3,10,Pin_10*%
%TO.N,/MAD9*%
X141605000Y-136525000D03*
%TO.P,J3,11,Pin_11*%
%TO.N,/MAD10*%
X139065000Y-139065000D03*
%TO.P,J3,12,Pin_12*%
%TO.N,/MAD11*%
X141605000Y-139065000D03*
%TO.P,J3,13,Pin_13*%
%TO.N,/MAD12*%
X139065000Y-141605000D03*
%TO.P,J3,14,Pin_14*%
%TO.N,/MAD13*%
X141605000Y-141605000D03*
%TO.P,J3,15,Pin_15*%
%TO.N,/MAD14*%
X139065000Y-144145000D03*
%TO.P,J3,16,Pin_16*%
%TO.N,/MAD15*%
X141605000Y-144145000D03*
%TD*%
D14*
%TO.N,/GND*%
X109075000Y-124460000D03*
D15*
%TO.N,/+5V*%
X261493000Y-141097000D03*
%TO.N,/~{DB OUT}*%
X106680000Y-119380000D03*
X106680000Y-325120000D03*
D14*
%TO.N,/GND*%
X109075000Y-321455000D03*
D15*
%TO.N,/STACK CYCLE*%
X112974500Y-119126000D03*
X112974500Y-325374000D03*
%TO.N,/~{T47}*%
X116149500Y-325628000D03*
X116149500Y-119126000D03*
%TO.N,/~{T1}*%
X119324500Y-119126000D03*
X119324500Y-325628000D03*
%TO.N,/MAD0*%
X121775000Y-126383000D03*
%TO.N,/MAD1*%
X123444000Y-125222000D03*
X122499500Y-325882000D03*
X122499500Y-119126000D03*
%TO.N,/MAD2*%
X124950000Y-128923000D03*
%TO.N,/MAD3*%
X126492000Y-127762000D03*
X125674500Y-326009000D03*
X126492000Y-118872000D03*
%TO.N,/MAD4*%
X128125000Y-131427000D03*
%TO.N,/MAD5*%
X129540000Y-325755000D03*
X129667000Y-119253000D03*
X129667000Y-130302000D03*
%TO.N,/MAD6*%
X131300000Y-134130000D03*
%TO.N,/MAD7*%
X132715000Y-325882000D03*
X132715000Y-119253000D03*
X132715000Y-132588000D03*
%TO.N,/MAD8*%
X133858000Y-136525000D03*
%TO.N,/MAD9*%
X135001000Y-135382000D03*
X136017000Y-119507000D03*
X136017000Y-325755000D03*
%TO.N,/~{DBIN}*%
X137668000Y-120269000D03*
X138938000Y-325882000D03*
%TO.N,/MDI0*%
X144018000Y-126365000D03*
%TO.N,/DB0*%
X144759500Y-153035000D03*
X141549500Y-325755000D03*
X141986000Y-120142000D03*
%TO.N,/MDI1*%
X145504500Y-125037000D03*
%TO.N,/DB1*%
X144780000Y-325882000D03*
X146468500Y-151765000D03*
X145161000Y-120269000D03*
%TO.N,/MDI3*%
X147282500Y-130302000D03*
%TO.N,/DB3*%
X147917500Y-326009000D03*
X147955000Y-119253000D03*
X148717000Y-154305000D03*
%TO.N,/MDI2*%
X150350000Y-129014000D03*
%TO.N,/DB2*%
X151638000Y-155448000D03*
X151638000Y-119126000D03*
X151511000Y-325882000D03*
%TO.N,/MDI5*%
X153525000Y-132733000D03*
%TO.N,/DB5*%
X154686000Y-326009000D03*
X154686000Y-156845000D03*
X154686000Y-119253000D03*
%TO.N,/MDI4*%
X156700000Y-131427000D03*
%TO.N,/DB4*%
X158115000Y-326009000D03*
X158369000Y-158115000D03*
X157607000Y-118999000D03*
%TO.N,/MDI7*%
X159875000Y-137015000D03*
%TO.N,/DB7*%
X161163000Y-118999000D03*
X161036000Y-159385000D03*
X161163000Y-325882000D03*
%TO.N,/MDI6*%
X163050000Y-133967000D03*
%TO.N,/DB6*%
X164084000Y-325755000D03*
X164338000Y-160528000D03*
X163957000Y-118999000D03*
%TO.N,/~{T40}*%
X167513000Y-325755000D03*
X166878000Y-122174000D03*
%TO.N,/~{INT REQ}*%
X169291000Y-121412000D03*
X170434000Y-325755000D03*
D14*
%TO.N,/-9V*%
X172575000Y-118854000D03*
D15*
X172575000Y-150223000D03*
D14*
X172575000Y-326027000D03*
D15*
%TO.N,/~{HOLD ACK}*%
X176911000Y-118872000D03*
X176657000Y-325882000D03*
D14*
%TO.N,/-12V*%
X178925000Y-118890000D03*
D15*
X178925000Y-127653000D03*
D14*
X178925000Y-325900000D03*
%TO.N,/+12V*%
X182100000Y-118854000D03*
D15*
X182100000Y-135364000D03*
D14*
X182100000Y-325900000D03*
D15*
%TO.N,/~{RESET}*%
X186563000Y-325628000D03*
X186690000Y-119634000D03*
%TO.N,/~{I{slash}O OUT}*%
X189484000Y-119507000D03*
X189992000Y-325755000D03*
%TO.N,/~{HLT INT REQ}*%
X192913000Y-121158000D03*
X192532000Y-325628000D03*
%TO.N,/~{MEM WRITE CYCLE}*%
X196088000Y-325501000D03*
X195834000Y-120142000D03*
%TO.N,/MAD13*%
X197975000Y-141079000D03*
%TO.N,/MAD12*%
X199644000Y-120523000D03*
X199644000Y-141224000D03*
X199390000Y-325501000D03*
%TO.N,/~{HALT ACK}*%
X202565000Y-325628000D03*
X202438000Y-120269000D03*
%TO.N,/~{I{slash}O CYCLE}*%
X205740000Y-325628000D03*
X205740000Y-119888000D03*
%TO.N,/MAD15*%
X207500000Y-144127000D03*
%TO.N,/MAD14*%
X208788000Y-145923000D03*
X208661000Y-119634000D03*
X208788000Y-325628000D03*
%TO.N,/~{FETCH CYCLE}*%
X212217000Y-119761000D03*
X211963000Y-325501000D03*
%TO.N,/II0*%
X213850000Y-126383000D03*
%TO.N,/IN0*%
X215392000Y-325628000D03*
X215392000Y-143002000D03*
X215265000Y-119634000D03*
%TO.N,/II1*%
X217025000Y-125113000D03*
%TO.N,/IN1*%
X218440000Y-119634000D03*
X218440000Y-325628000D03*
X218440000Y-141605000D03*
%TO.N,/II3*%
X220200000Y-127744000D03*
%TO.N,/~{INT DSBL}*%
X221742000Y-119634000D03*
X221615000Y-325501000D03*
%TO.N,/IN3*%
X225044000Y-325628000D03*
X227584000Y-145415000D03*
X224790000Y-119761000D03*
%TO.N,/II2*%
X228600000Y-130175000D03*
%TO.N,/IN2*%
X228092000Y-325628000D03*
X227965000Y-119761000D03*
X229489000Y-146558000D03*
%TO.N,/IN5*%
X230378000Y-147955000D03*
%TO.N,/II4*%
X231267000Y-119634000D03*
X231267000Y-132461000D03*
X230886000Y-325501000D03*
%TO.N,/IN6*%
X232791000Y-151765000D03*
%TO.N,/~{I{slash}O IN}*%
X234061000Y-119507000D03*
X234442000Y-325501000D03*
%TO.N,/II5*%
X236075000Y-131427000D03*
%TO.N,/IN4*%
X237363000Y-325501000D03*
X237490000Y-119380000D03*
X237490000Y-149098000D03*
%TO.N,/II6*%
X239250000Y-135019000D03*
%TO.N,/IN7*%
X240665000Y-119380000D03*
X240665000Y-150368000D03*
X240665000Y-325755000D03*
%TO.N,/II7*%
X242425000Y-133840000D03*
%TO.N,/~{T3A}*%
X243840000Y-325628000D03*
X243840000Y-119253000D03*
%TO.N,/~{T44}*%
X247142000Y-325628000D03*
X247142000Y-119380000D03*
%TO.N,/~{T46}*%
X250317000Y-325501000D03*
X250190000Y-119507000D03*
%TO.N,/MAD11*%
X253238000Y-119253000D03*
X253238000Y-139065000D03*
X253238000Y-325628000D03*
%TO.N,/MAD10*%
X256159000Y-325628000D03*
X256286000Y-119380000D03*
X256286000Y-140208000D03*
%TO.N,/CLK PHASE 1*%
X259334000Y-119253000D03*
X259461000Y-325628000D03*
D14*
%TO.N,/+5V*%
X261475000Y-118727000D03*
X261475000Y-325900000D03*
%TD*%
D16*
%TO.N,/OSC*%
X191625000Y-331825000D02*
X191625000Y-138023000D01*
X191625000Y-138023000D02*
X190000000Y-136398000D01*
X190000000Y-136398000D02*
X190000000Y-123817000D01*
X190000000Y-123817000D02*
X191625000Y-122192000D01*
X191625000Y-122192000D02*
X191625000Y-107905000D01*
%TO.N,/~{IN JAM ENBL}*%
X194800000Y-107905000D02*
X194800000Y-121521000D01*
X194800000Y-121521000D02*
X196000000Y-122721000D01*
X196000000Y-122721000D02*
X196000000Y-139788000D01*
X196000000Y-139788000D02*
X194818000Y-140970000D01*
X194818000Y-140970000D02*
X194818000Y-141097000D01*
X194818000Y-141097000D02*
X194800000Y-141115000D01*
X194800000Y-141115000D02*
X194800000Y-331825000D01*
%TO.N,/IN2*%
X228092000Y-325628000D02*
X228092000Y-162234698D01*
X228092000Y-162234698D02*
X229489000Y-160837698D01*
X229489000Y-160837698D02*
X229489000Y-146558000D01*
%TO.N,/II2*%
X228600000Y-123317000D02*
X228600000Y-160400000D01*
X226550000Y-121267000D02*
X228600000Y-123317000D01*
X226550000Y-107905000D02*
X226550000Y-121267000D01*
X228600000Y-160400000D02*
X226695000Y-162305000D01*
X226695000Y-331680000D02*
X226550000Y-331825000D01*
X226695000Y-162305000D02*
X226695000Y-331680000D01*
%TO.N,/IN3*%
X227584000Y-145415000D02*
X227584000Y-159916000D01*
X227584000Y-159916000D02*
X225044000Y-162456000D01*
X225044000Y-162456000D02*
X225044000Y-325628000D01*
D17*
%TO.N,/GND*%
X109075000Y-166352000D02*
X109075000Y-124460000D01*
X109075000Y-124460000D02*
X109075000Y-107905000D01*
X109075000Y-331825000D02*
X109075000Y-321455000D01*
X109075000Y-321455000D02*
X109075000Y-166352000D01*
D16*
%TO.N,/~{T41}*%
X166225000Y-107905000D02*
X166225000Y-120378000D01*
X166225000Y-120378000D02*
X166243000Y-120396000D01*
X166243000Y-120396000D02*
X166243000Y-120767695D01*
X165989000Y-331589000D02*
X166225000Y-331825000D01*
X166243000Y-120767695D02*
X165989000Y-121021695D01*
X165989000Y-121021695D02*
X165989000Y-331589000D01*
%TO.N,/~{T40}*%
X166878000Y-122174000D02*
X167513000Y-122809000D01*
X167513000Y-122809000D02*
X167513000Y-325755000D01*
D17*
%TO.N,/-9V*%
X172575000Y-150223000D02*
X172575000Y-326027000D01*
X172575000Y-118854000D02*
X172575000Y-150223000D01*
D16*
%TO.N,/~{RESET}*%
X186690000Y-325501000D02*
X186563000Y-325628000D01*
X186690000Y-119634000D02*
X186690000Y-325501000D01*
%TO.N,/~{T2}*%
X105900000Y-331825000D02*
X105900000Y-107905000D01*
%TO.N,/~{DB OUT}*%
X106680000Y-325120000D02*
X107442000Y-324358000D01*
X107442000Y-120142000D02*
X106680000Y-119380000D01*
X107442000Y-324358000D02*
X107442000Y-120142000D01*
%TO.N,/~{INTACK}*%
X112250000Y-331825000D02*
X112250000Y-107905000D01*
%TO.N,/STACK CYCLE*%
X112974500Y-325374000D02*
X114046000Y-324302500D01*
X114046000Y-120197500D02*
X112974500Y-119126000D01*
X114046000Y-324302500D02*
X114046000Y-120197500D01*
%TO.N,/~{SYNCA}*%
X115425000Y-331825000D02*
X115425000Y-107905000D01*
%TO.N,/~{T47}*%
X117094000Y-120070500D02*
X116149500Y-119126000D01*
X116149500Y-325628000D02*
X117094000Y-324683500D01*
X117094000Y-324683500D02*
X117094000Y-120070500D01*
%TO.N,/~{INT REQ LTH}*%
X118600000Y-331825000D02*
X118600000Y-107905000D01*
%TO.N,/~{T1}*%
X119324500Y-325628000D02*
X120269000Y-324683500D01*
X120269000Y-120070500D02*
X119324500Y-119126000D01*
X120269000Y-324683500D02*
X120269000Y-120070500D01*
%TO.N,/MAD0*%
X121775000Y-331825000D02*
X121775000Y-126383000D01*
X121775000Y-126383000D02*
X121775000Y-107905000D01*
%TO.N,/MAD1*%
X123444000Y-120070500D02*
X122499500Y-119126000D01*
X123444000Y-125222000D02*
X123444000Y-120070500D01*
X122499500Y-325882000D02*
X123444000Y-324937500D01*
X123444000Y-324937500D02*
X123444000Y-125222000D01*
%TO.N,/MAD2*%
X124950000Y-128923000D02*
X124950000Y-107905000D01*
X124950000Y-331825000D02*
X124950000Y-128923000D01*
%TO.N,/MAD3*%
X125674500Y-326009000D02*
X126492000Y-325191500D01*
X126492000Y-127762000D02*
X126492000Y-118872000D01*
X126492000Y-325191500D02*
X126492000Y-127762000D01*
%TO.N,/MAD4*%
X128125000Y-131427000D02*
X128125000Y-107905000D01*
X128125000Y-331825000D02*
X128125000Y-131427000D01*
%TO.N,/MAD5*%
X129667000Y-325628000D02*
X129540000Y-325755000D01*
X129667000Y-119253000D02*
X129667000Y-130302000D01*
X129667000Y-130302000D02*
X129667000Y-325628000D01*
%TO.N,/MAD6*%
X131300000Y-134130000D02*
X131300000Y-331825000D01*
X131300000Y-107905000D02*
X131300000Y-134130000D01*
%TO.N,/MAD7*%
X132715000Y-325882000D02*
X132715000Y-119253000D01*
%TO.N,/MAD8*%
X133858000Y-108522000D02*
X134475000Y-107905000D01*
X133858000Y-331208000D02*
X133858000Y-136525000D01*
X134475000Y-331825000D02*
X133858000Y-331208000D01*
X133858000Y-136525000D02*
X133858000Y-108522000D01*
%TO.N,/MAD9*%
X136017000Y-169672000D02*
X136017000Y-325755000D01*
X135001000Y-135382000D02*
X135001000Y-168656000D01*
X135001000Y-168656000D02*
X136017000Y-169672000D01*
X135001000Y-120523000D02*
X135001000Y-135382000D01*
X136017000Y-119507000D02*
X135001000Y-120523000D01*
%TO.N,/~{WAIT REQ}*%
X137650000Y-118899305D02*
X136398000Y-120151305D01*
X137650000Y-170035000D02*
X137650000Y-331825000D01*
X136398000Y-120151305D02*
X136398000Y-168783000D01*
X136398000Y-168783000D02*
X137650000Y-170035000D01*
X137650000Y-107905000D02*
X137650000Y-118899305D01*
%TO.N,/~{DBIN}*%
X138557000Y-168910000D02*
X137668000Y-168021000D01*
X137668000Y-168021000D02*
X137668000Y-120269000D01*
X138938000Y-169291000D02*
X138557000Y-168910000D01*
X138938000Y-325882000D02*
X138938000Y-169291000D01*
%TO.N,/MDI0*%
X140825000Y-331825000D02*
X140825000Y-170833000D01*
X144018000Y-167640000D02*
X144018000Y-126365000D01*
X144018000Y-123825000D02*
X140825000Y-120632000D01*
X140825000Y-120632000D02*
X140825000Y-107905000D01*
X144018000Y-126365000D02*
X144018000Y-123825000D01*
X140825000Y-170833000D02*
X144018000Y-167640000D01*
%TO.N,/DB0*%
X141549500Y-325755000D02*
X142367000Y-324937500D01*
X142367000Y-324937500D02*
X142367000Y-172466000D01*
X144780000Y-170053000D02*
X144780000Y-122936000D01*
X144780000Y-122936000D02*
X141986000Y-120142000D01*
X142367000Y-172466000D02*
X144780000Y-170053000D01*
%TO.N,/MDI1*%
X145484000Y-170746000D02*
X145484000Y-125037000D01*
X145484000Y-125037000D02*
X145484000Y-123003604D01*
X145484000Y-125037000D02*
X145504500Y-125037000D01*
X144000000Y-172230000D02*
X145484000Y-170746000D01*
X144000000Y-331825000D02*
X144000000Y-172230000D01*
X145484000Y-123003604D02*
X144000000Y-121519604D01*
X144000000Y-121519604D02*
X144000000Y-107905000D01*
%TO.N,/DB1*%
X145161000Y-120269000D02*
X146558000Y-121666000D01*
X145542000Y-325120000D02*
X144780000Y-325882000D01*
X146558000Y-170688000D02*
X145542000Y-171704000D01*
X145542000Y-171704000D02*
X145542000Y-325120000D01*
X146558000Y-121666000D02*
X146558000Y-170688000D01*
%TO.N,/MDI3*%
X147193000Y-331807000D02*
X147175000Y-331825000D01*
X147175000Y-107905000D02*
X147193000Y-107923000D01*
X147193000Y-107923000D02*
X147193000Y-331807000D01*
%TO.N,/DB3*%
X147955000Y-119253000D02*
X148717000Y-120015000D01*
X148717000Y-154305000D02*
X148717000Y-325209500D01*
X148717000Y-120015000D02*
X148717000Y-154305000D01*
X148717000Y-325209500D02*
X147917500Y-326009000D01*
%TO.N,/MDI2*%
X150350000Y-129014000D02*
X150350000Y-107905000D01*
X150350000Y-331825000D02*
X150350000Y-129014000D01*
%TO.N,/DB2*%
X151638000Y-325755000D02*
X151511000Y-325882000D01*
X151638000Y-155448000D02*
X151638000Y-325755000D01*
X151638000Y-119126000D02*
X151638000Y-155448000D01*
%TO.N,/MDI5*%
X153525000Y-132733000D02*
X153525000Y-331825000D01*
X153525000Y-107905000D02*
X153525000Y-132733000D01*
%TO.N,/DB5*%
X154686000Y-326009000D02*
X154686000Y-156845000D01*
X154686000Y-156845000D02*
X154686000Y-119253000D01*
%TO.N,/MDI4*%
X156700000Y-131427000D02*
X156700000Y-107905000D01*
X156700000Y-331825000D02*
X156700000Y-131427000D01*
%TO.N,/DB4*%
X158369000Y-119761000D02*
X158369000Y-135128000D01*
X158369000Y-325755000D02*
X158115000Y-326009000D01*
X158369000Y-135128000D02*
X158369000Y-158115000D01*
X157607000Y-118999000D02*
X158369000Y-119761000D01*
X158369000Y-158115000D02*
X158369000Y-325755000D01*
%TO.N,/MDI7*%
X159875000Y-137015000D02*
X159875000Y-331825000D01*
X159875000Y-107905000D02*
X159875000Y-137015000D01*
%TO.N,/DB7*%
X161163000Y-325882000D02*
X161163000Y-118999000D01*
%TO.N,/MDI6*%
X163050000Y-133967000D02*
X163050000Y-107905000D01*
X163050000Y-331825000D02*
X163050000Y-133967000D01*
%TO.N,/DB6*%
X163957000Y-118999000D02*
X164338000Y-119380000D01*
X164338000Y-160528000D02*
X164338000Y-325501000D01*
X164338000Y-119380000D02*
X164338000Y-160528000D01*
X164338000Y-325501000D02*
X164084000Y-325755000D01*
%TO.N,/~{T42}*%
X168783000Y-160147000D02*
X168783000Y-144050000D01*
X169400000Y-331825000D02*
X169400000Y-160764000D01*
X168566000Y-143833000D02*
X168566000Y-108739000D01*
X168566000Y-108739000D02*
X169400000Y-107905000D01*
X168783000Y-144050000D02*
X168566000Y-143833000D01*
X169400000Y-160764000D02*
X168783000Y-160147000D01*
%TO.N,/~{INT REQ}*%
X171450000Y-163449000D02*
X170688000Y-164211000D01*
X171450000Y-123571000D02*
X171450000Y-163449000D01*
X169291000Y-121412000D02*
X171450000Y-123571000D01*
X170688000Y-325501000D02*
X170434000Y-325755000D01*
X170688000Y-164211000D02*
X170688000Y-325501000D01*
D17*
%TO.N,/-9V*%
X172575000Y-326027000D02*
X172575000Y-331825000D01*
X172575000Y-107905000D02*
X172575000Y-118854000D01*
D16*
%TO.N,/~{T43}*%
X175750000Y-107905000D02*
X175750000Y-331825000D01*
%TO.N,/~{HOLD ACK}*%
X176657000Y-325882000D02*
X177546000Y-324993000D01*
X177546000Y-119507000D02*
X176911000Y-118872000D01*
X177546000Y-324993000D02*
X177546000Y-119507000D01*
D17*
%TO.N,/-12V*%
X178925000Y-331825000D02*
X178925000Y-325900000D01*
X178925000Y-118890000D02*
X178925000Y-107905000D01*
X178925000Y-325900000D02*
X178925000Y-127653000D01*
X178925000Y-127653000D02*
X178925000Y-118890000D01*
%TO.N,/+12V*%
X182100000Y-135364000D02*
X182100000Y-325900000D01*
X182100000Y-107905000D02*
X182100000Y-118854000D01*
X182100000Y-325900000D02*
X182100000Y-331825000D01*
X182100000Y-118854000D02*
X182100000Y-135364000D01*
D16*
%TO.N,/~{HOLD REQ}*%
X185275000Y-331825000D02*
X185275000Y-107905000D01*
%TO.N,/~{BUS BUSY}*%
X188450000Y-107905000D02*
X188450000Y-331825000D01*
%TO.N,/~{I{slash}O OUT}*%
X189288000Y-119703000D02*
X189484000Y-119507000D01*
X189288000Y-136710000D02*
X189288000Y-119703000D01*
X189992000Y-137414000D02*
X189865000Y-137287000D01*
X189992000Y-325755000D02*
X189992000Y-137414000D01*
X189865000Y-137287000D02*
X189288000Y-136710000D01*
%TO.N,/~{HLT INT REQ}*%
X192913000Y-121158000D02*
X193040000Y-121285000D01*
X193040000Y-325120000D02*
X192532000Y-325628000D01*
X193040000Y-121285000D02*
X193040000Y-325120000D01*
%TO.N,/~{MEM WRITE CYCLE}*%
X197104000Y-140208000D02*
X197104000Y-121412000D01*
X197104000Y-121412000D02*
X195834000Y-120142000D01*
X196088000Y-141224000D02*
X197104000Y-140208000D01*
X196088000Y-325501000D02*
X196088000Y-141224000D01*
%TO.N,/MAD13*%
X197975000Y-141079000D02*
X197975000Y-107905000D01*
X197975000Y-331825000D02*
X197975000Y-141079000D01*
%TO.N,/MAD12*%
X199644000Y-141224000D02*
X199644000Y-325247000D01*
X199644000Y-325247000D02*
X199390000Y-325501000D01*
X199644000Y-120523000D02*
X199644000Y-141224000D01*
%TO.N,/~{WAIT ACK}*%
X201150000Y-107905000D02*
X201150000Y-331825000D01*
%TO.N,/~{HALT ACK}*%
X202565000Y-120396000D02*
X202438000Y-120269000D01*
X202565000Y-325628000D02*
X202565000Y-120396000D01*
%TO.N,/~{T3}*%
X204325000Y-331825000D02*
X204325000Y-107905000D01*
%TO.N,/~{I{slash}O CYCLE}*%
X205740000Y-119888000D02*
X205740000Y-325628000D01*
%TO.N,/MAD15*%
X207500000Y-144127000D02*
X207500000Y-331825000D01*
X207500000Y-107905000D02*
X207500000Y-144127000D01*
%TO.N,/MAD14*%
X208788000Y-145923000D02*
X208788000Y-119761000D01*
X208788000Y-119761000D02*
X208661000Y-119634000D01*
X208788000Y-325628000D02*
X208788000Y-145923000D01*
%TO.N,/~{MEM READ CYCLE}*%
X210675000Y-331825000D02*
X210675000Y-107905000D01*
%TO.N,/~{FETCH CYCLE}*%
X212217000Y-119761000D02*
X212217000Y-325247000D01*
X212217000Y-325247000D02*
X211963000Y-325501000D01*
%TO.N,/II0*%
X213850000Y-126383000D02*
X213850000Y-331825000D01*
X213850000Y-107905000D02*
X213850000Y-126383000D01*
%TO.N,/IN0*%
X215392000Y-143002000D02*
X215392000Y-119761000D01*
X215392000Y-325628000D02*
X215392000Y-143002000D01*
X215392000Y-119761000D02*
X215265000Y-119634000D01*
%TO.N,/II1*%
X217025000Y-125113000D02*
X217025000Y-107905000D01*
X217025000Y-331825000D02*
X217025000Y-125113000D01*
%TO.N,/IN1*%
X218440000Y-141605000D02*
X218440000Y-325628000D01*
X218440000Y-119634000D02*
X218440000Y-141605000D01*
%TO.N,/II3*%
X220200000Y-127744000D02*
X220200000Y-331825000D01*
X220200000Y-107905000D02*
X220200000Y-127744000D01*
%TO.N,/~{INT DSBL}*%
X221615000Y-119761000D02*
X221742000Y-119634000D01*
X221615000Y-325501000D02*
X221615000Y-119761000D01*
%TO.N,/~{INT CYCLE}*%
X223375000Y-120505000D02*
X223375000Y-107905000D01*
X226600000Y-128433299D02*
X226595000Y-128428299D01*
X226595000Y-128428299D02*
X226595000Y-123725000D01*
X223375000Y-331825000D02*
X223375000Y-162578000D01*
X226595000Y-123725000D02*
X223375000Y-120505000D01*
X223375000Y-162578000D02*
X226600000Y-159353000D01*
X226600000Y-159353000D02*
X226600000Y-128433299D01*
%TO.N,/IN3*%
X227584000Y-124077604D02*
X227584000Y-145415000D01*
X224790000Y-119761000D02*
X224790000Y-121283604D01*
X224790000Y-121283604D02*
X227584000Y-124077604D01*
%TO.N,/IN2*%
X229489000Y-121285000D02*
X227965000Y-119761000D01*
X229489000Y-146558000D02*
X229489000Y-121285000D01*
%TO.N,/IN5*%
X230378000Y-160911792D02*
X230378000Y-147955000D01*
X230378000Y-121537604D02*
X229743000Y-120902604D01*
X229743000Y-161546792D02*
X230378000Y-160911792D01*
X229743000Y-120902604D02*
X229743000Y-107923000D01*
X229725000Y-331825000D02*
X229743000Y-331807000D01*
X229743000Y-107923000D02*
X229725000Y-107905000D01*
X230378000Y-147955000D02*
X230378000Y-121537604D01*
X229743000Y-331807000D02*
X229743000Y-161546792D01*
%TO.N,/II4*%
X231267000Y-325120000D02*
X230886000Y-325501000D01*
X231267000Y-132461000D02*
X231267000Y-325120000D01*
X231267000Y-119634000D02*
X231267000Y-132461000D01*
%TO.N,/IN6*%
X232900000Y-107905000D02*
X232900000Y-331825000D01*
%TO.N,/~{I{slash}O IN}*%
X234442000Y-119888000D02*
X234061000Y-119507000D01*
X234442000Y-325501000D02*
X234442000Y-119888000D01*
%TO.N,/II5*%
X236075000Y-331825000D02*
X236075000Y-131427000D01*
X236075000Y-131427000D02*
X236075000Y-107905000D01*
%TO.N,/IN4*%
X237490000Y-325374000D02*
X237363000Y-325501000D01*
X237490000Y-119380000D02*
X237490000Y-325374000D01*
%TO.N,/II6*%
X239250000Y-107905000D02*
X239250000Y-135019000D01*
X239250000Y-135019000D02*
X239250000Y-331825000D01*
%TO.N,/IN7*%
X240665000Y-150368000D02*
X240665000Y-119380000D01*
X240665000Y-325755000D02*
X240665000Y-150368000D01*
%TO.N,/II7*%
X242425000Y-133840000D02*
X242425000Y-107905000D01*
X242425000Y-331825000D02*
X242425000Y-133840000D01*
%TO.N,/~{T3A}*%
X243840000Y-119253000D02*
X243840000Y-325628000D01*
%TO.N,/CLK PHASE 2*%
X245600000Y-107905000D02*
X245600000Y-331825000D01*
%TO.N,/~{T44}*%
X247142000Y-325628000D02*
X247142000Y-119380000D01*
%TO.N,/~{T45}*%
X248775000Y-331825000D02*
X248775000Y-107905000D01*
%TO.N,/~{T46}*%
X250190000Y-325374000D02*
X250317000Y-325501000D01*
X250190000Y-119507000D02*
X250190000Y-325374000D01*
%TO.N,/RAM MOD ENBL*%
X251950000Y-107905000D02*
X251950000Y-331825000D01*
%TO.N,/MAD11*%
X253238000Y-119253000D02*
X253238000Y-139065000D01*
X253238000Y-139065000D02*
X253238000Y-325628000D01*
%TO.N,/R{slash}~{W}*%
X255125000Y-331825000D02*
X255125000Y-107905000D01*
%TO.N,/MAD10*%
X256286000Y-325501000D02*
X256159000Y-325628000D01*
X256286000Y-140208000D02*
X256286000Y-325501000D01*
X256413000Y-119380000D02*
X256413000Y-140208000D01*
%TO.N,/PROM MOD ENBL*%
X258300000Y-107905000D02*
X258300000Y-331825000D01*
%TO.N,/CLK PHASE 1*%
X259588000Y-325501000D02*
X259588000Y-119507000D01*
X259461000Y-325628000D02*
X259588000Y-325501000D01*
X259588000Y-119507000D02*
X259334000Y-119253000D01*
D18*
%TO.N,/+5V*%
X261475000Y-118727000D02*
X261475000Y-107905000D01*
X261475000Y-331825000D02*
X261475000Y-325900000D01*
X261475000Y-325900000D02*
X261475000Y-118727000D01*
%TD*%
M02*
