M48
; DRILL file {KiCad (6.0.9-0)} date 2023 January 29, Sunday 21:50:29
; FORMAT={-:-/ absolute / inch / decimal}
; #@! TF.CreationDate,2023-01-29T21:50:29+01:00
; #@! TF.GenerationSoftware,Kicad,Pcbnew,(6.0.9-0)
; #@! TF.FileFunction,Plated,1,2,PTH
FMAT,2
INCH
; #@! TA.AperFunction,Plated,PTH,ViaDrill
T1C0.0157
; #@! TA.AperFunction,Plated,PTH,ViaDrill
T2C0.0276
; #@! TA.AperFunction,Plated,PTH,ViaDrill
T3C0.0315
; #@! TA.AperFunction,Plated,PTH,ComponentDrill
T4C0.0394
%
G90
G05
T1
X4.2Y-4.7
X4.2Y-12.8
X4.4478Y-4.69
X4.4478Y-12.81
X4.5728Y-4.69
X4.5728Y-12.82
X4.6978Y-4.69
X4.6978Y-12.82
X4.7943Y-4.9757
X4.8228Y-4.69
X4.8228Y-12.83
X4.86Y-4.93
X4.9193Y-5.0757
X4.9478Y-12.835
X4.98Y-4.68
X4.98Y-5.03
X5.0443Y-5.1743
X5.1Y-12.825
X5.105Y-4.695
X5.105Y-5.13
X5.1693Y-5.2807
X5.225Y-4.695
X5.225Y-5.22
X5.225Y-12.83
X5.27Y-5.375
X5.315Y-5.33
X5.355Y-4.705
X5.355Y-12.825
X5.42Y-4.735
X5.47Y-12.83
X5.5728Y-12.825
X5.59Y-4.73
X5.67Y-4.975
X5.6992Y-6.025
X5.7Y-12.83
X5.715Y-4.735
X5.7285Y-4.9227
X5.7665Y-5.975
X5.7985Y-5.13
X5.8235Y-12.835
X5.825Y-4.695
X5.855Y-6.075
X5.9193Y-5.0793
X5.965Y-12.83
X5.97Y-4.69
X5.97Y-6.12
X6.0443Y-5.2257
X6.09Y-4.695
X6.09Y-6.175
X6.09Y-12.835
X6.1693Y-5.1743
X6.205Y-4.685
X6.225Y-12.835
X6.235Y-6.225
X6.2943Y-5.3943
X6.34Y-6.275
X6.345Y-4.685
X6.345Y-12.83
X6.4193Y-5.2743
X6.455Y-4.685
X6.46Y-12.825
X6.47Y-6.32
X6.57Y-4.81
X6.595Y-12.825
X6.665Y-4.78
X6.71Y-12.825
X6.7943Y-5.9143
X6.955Y-12.83
X6.965Y-4.68
X7.0443Y-5.0257
X7.1693Y-5.3293
X7.345Y-12.82
X7.35Y-4.71
X7.46Y-4.705
X7.48Y-12.825
X7.58Y-12.82
X7.595Y-4.77
X7.71Y-4.73
X7.72Y-12.815
X7.7943Y-5.5543
X7.85Y-12.815
X7.86Y-4.745
X7.86Y-5.56
X7.97Y-4.735
X7.975Y-12.82
X8.1Y-4.72
X8.1Y-12.82
X8.1693Y-5.6743
X8.215Y-4.71
X8.22Y-5.745
X8.22Y-12.82
X8.345Y-12.815
X8.355Y-4.715
X8.4193Y-4.9757
X8.475Y-4.71
X8.48Y-5.63
X8.48Y-12.82
X8.5443Y-4.9257
X8.6Y-4.71
X8.6Y-5.575
X8.6Y-12.82
X8.6693Y-5.0293
X8.725Y-12.815
X8.73Y-4.71
X8.85Y-4.715
X8.86Y-12.82
X8.96Y-5.725
X8.975Y-4.715
X8.98Y-12.82
X9.0Y-5.125
X9.035Y-5.77
X9.07Y-5.825
X9.09Y-12.815
X9.105Y-4.71
X9.105Y-5.215
X9.165Y-5.975
X9.215Y-4.705
X9.23Y-12.815
X9.2943Y-5.1743
X9.345Y-12.815
X9.35Y-4.7
X9.35Y-5.87
X9.4193Y-5.3157
X9.475Y-4.7
X9.475Y-5.92
X9.475Y-12.825
X9.5443Y-5.2693
X9.6Y-4.695
X9.6Y-12.82
X9.73Y-4.7
X9.73Y-12.82
X9.85Y-4.705
X9.855Y-12.815
X9.97Y-4.695
X9.97Y-5.475
X9.97Y-12.82
X10.085Y-12.82
X10.09Y-4.7
X10.09Y-5.52
X10.21Y-4.695
X10.215Y-12.82
X10.295Y-5.555
T2
X4.2943Y-12.6557
T3
X4.2943Y-4.9
X6.7943Y-4.6793
X6.7943Y-12.8357
X7.0443Y-4.6807
X7.0443Y-12.8307
X7.1693Y-4.6793
X7.1693Y-12.8307
X10.2943Y-4.6743
X10.2943Y-12.8307
T4
X4.17Y-5.01
X4.23Y-5.205
X4.295Y-5.355
X4.42Y-5.56
X4.49Y-4.855
X4.545Y-5.085
X4.61Y-5.36
X4.67Y-5.605
X4.735Y-4.85
X5.37Y-4.825
X5.42Y-6.475
X5.4748Y-5.975
X5.4748Y-6.075
X5.4748Y-6.175
X5.4748Y-6.275
X5.475Y-4.975
X5.475Y-5.075
X5.475Y-5.175
X5.475Y-5.275
X5.475Y-5.375
X5.475Y-5.475
X5.475Y-5.575
X5.475Y-5.675
X5.5748Y-5.975
X5.5748Y-6.075
X5.5748Y-6.175
X5.5748Y-6.275
X5.575Y-4.975
X5.575Y-5.075
X5.575Y-5.175
X5.575Y-5.275
X5.575Y-5.375
X5.575Y-5.475
X5.575Y-5.575
X5.575Y-5.675
X5.605Y-6.52
X6.545Y-5.845
X6.595Y-6.075
X6.67Y-6.415
X6.69Y-5.625
X6.7Y-5.025
X6.7Y-5.325
X6.7Y-5.92
X6.7Y-6.225
X6.72Y-6.57
X6.92Y-6.37
X6.98Y-5.885
X7.295Y-4.84
X7.35Y-5.855
X7.42Y-6.03
X7.48Y-6.3
X7.545Y-5.85
X7.55Y-4.975
X7.55Y-5.075
X7.55Y-5.175
X7.55Y-5.275
X7.6Y-6.09
X7.65Y-4.975
X7.65Y-5.075
X7.65Y-5.175
X7.65Y-5.275
X7.67Y-6.305
X7.72Y-5.885
X7.915Y-5.24
X7.975Y-5.825
X8.045Y-5.05
X8.1Y-5.24
X8.29Y-5.295
X8.355Y-5.09
X8.725Y-6.69
X8.7748Y-4.9754
X8.7748Y-5.0754
X8.7748Y-5.1754
X8.7748Y-5.2754
X8.775Y-5.625
X8.775Y-5.725
X8.775Y-5.825
X8.775Y-5.925
X8.775Y-6.25
X8.795Y-6.52
X8.8748Y-4.9754
X8.8748Y-5.0754
X8.8748Y-5.1754
X8.8748Y-5.2754
X8.875Y-5.625
X8.875Y-5.725
X8.875Y-5.825
X8.875Y-5.925
X9.23Y-4.91
X9.6Y-5.145
X9.67Y-5.645
X9.73Y-5.34
X9.79Y-5.14
X9.855Y-4.9
X9.92Y-5.36
X10.045Y-4.905
X10.17Y-5.125
X10.22Y-4.905
T0
M30
