%TF.GenerationSoftware,KiCad,Pcbnew,(6.0.9-0)*%
%TF.CreationDate,2023-02-11T15:38:08+01:00*%
%TF.ProjectId,CurrentLoopConverter,43757272-656e-4744-9c6f-6f70436f6e76,rev?*%
%TF.SameCoordinates,Original*%
%TF.FileFunction,Copper,L2,Bot*%
%TF.FilePolarity,Positive*%
%FSLAX46Y46*%
G04 Gerber Fmt 4.6, Leading zero omitted, Abs format (unit mm)*
G04 Created by KiCad (PCBNEW (6.0.9-0)) date 2023-02-11 15:38:08*
%MOMM*%
%LPD*%
G01*
G04 APERTURE LIST*
%TA.AperFunction,ComponentPad*%
%ADD10R,1.700000X1.700000*%
%TD*%
%TA.AperFunction,ComponentPad*%
%ADD11C,1.600000*%
%TD*%
%TA.AperFunction,ComponentPad*%
%ADD12O,1.600000X1.600000*%
%TD*%
%TA.AperFunction,ComponentPad*%
%ADD13R,1.600000X1.600000*%
%TD*%
%TA.AperFunction,ViaPad*%
%ADD14C,0.800000*%
%TD*%
%TA.AperFunction,ViaPad*%
%ADD15C,1.200000*%
%TD*%
%TA.AperFunction,Conductor*%
%ADD16C,0.250000*%
%TD*%
%TA.AperFunction,Conductor*%
%ADD17C,0.800000*%
%TD*%
G04 APERTURE END LIST*
D10*
%TO.P,J12,1,Pin_1*%
%TO.N,GND*%
X130048000Y-86487000D03*
%TD*%
%TO.P,J11,1,Pin_1*%
%TO.N,GND*%
X89662000Y-89027000D03*
%TD*%
%TO.P,J7,1,Pin_1*%
%TO.N,+5V*%
X104013000Y-88900000D03*
%TD*%
D11*
%TO.P,R8,1*%
%TO.N,Net-(R8-Pad1)*%
X114046000Y-118618000D03*
D12*
%TO.P,R8,2*%
%TO.N,Net-(R8-Pad2)*%
X124206000Y-118618000D03*
%TD*%
D13*
%TO.P,U4,1,C1+*%
%TO.N,Net-(C3-Pad1)*%
X116850000Y-93995000D03*
D12*
%TO.P,U4,2,VS+*%
%TO.N,Net-(C4-Pad1)*%
X116850000Y-96535000D03*
%TO.P,U4,3,C1-*%
%TO.N,Net-(C3-Pad2)*%
X116850000Y-99075000D03*
%TO.P,U4,4,C2+*%
%TO.N,Net-(C5-Pad1)*%
X116850000Y-101615000D03*
%TO.P,U4,5,C2-*%
%TO.N,Net-(C5-Pad2)*%
X116850000Y-104155000D03*
%TO.P,U4,6,VS-*%
%TO.N,Net-(C6-Pad1)*%
X116850000Y-106695000D03*
%TO.P,U4,7,T2OUT*%
%TO.N,Net-(J9-Pad1)*%
X116850000Y-109235000D03*
%TO.P,U4,8,R2IN*%
%TO.N,unconnected-(U4-Pad8)*%
X116850000Y-111775000D03*
%TO.P,U4,9,R2OUT*%
%TO.N,unconnected-(U4-Pad9)*%
X124470000Y-111775000D03*
%TO.P,U4,10,T2IN*%
%TO.N,Net-(R7-Pad2)*%
X124470000Y-109235000D03*
%TO.P,U4,11,T1IN*%
%TO.N,Net-(R6-Pad2)*%
X124470000Y-106695000D03*
%TO.P,U4,12,R1OUT*%
%TO.N,Net-(R8-Pad2)*%
X124470000Y-104155000D03*
%TO.P,U4,13,R1IN*%
%TO.N,Net-(J10-Pad1)*%
X124470000Y-101615000D03*
%TO.P,U4,14,T1OUT*%
%TO.N,Net-(J8-Pad1)*%
X124470000Y-99075000D03*
%TO.P,U4,15,GND*%
%TO.N,GND*%
X124470000Y-96535000D03*
%TO.P,U4,16,VCC*%
%TO.N,+5V*%
X124470000Y-93995000D03*
%TD*%
D13*
%TO.P,U3,1*%
%TO.N,Net-(R8-Pad1)*%
X100594000Y-119395000D03*
D12*
%TO.P,U3,2*%
%TO.N,GND*%
X100594000Y-121935000D03*
%TO.P,U3,3,NC*%
%TO.N,unconnected-(U3-Pad3)*%
X100594000Y-124475000D03*
%TO.P,U3,4*%
%TO.N,Net-(J6-Pad1)*%
X108214000Y-124475000D03*
%TO.P,U3,5*%
%TO.N,Net-(R3-Pad2)*%
X108214000Y-121935000D03*
%TO.P,U3,6*%
%TO.N,unconnected-(U3-Pad6)*%
X108214000Y-119395000D03*
%TD*%
D13*
%TO.P,U2,1*%
%TO.N,Net-(R5-Pad2)*%
X100500000Y-106695000D03*
D12*
%TO.P,U2,2*%
%TO.N,Net-(J4-Pad1)*%
X100500000Y-109235000D03*
%TO.P,U2,3,NC*%
%TO.N,unconnected-(U2-Pad3)*%
X100500000Y-111775000D03*
%TO.P,U2,4*%
%TO.N,Net-(R7-Pad2)*%
X108120000Y-111775000D03*
%TO.P,U2,5*%
%TO.N,+5V*%
X108120000Y-109235000D03*
%TO.P,U2,6*%
%TO.N,unconnected-(U2-Pad6)*%
X108120000Y-106695000D03*
%TD*%
%TO.P,U1,6*%
%TO.N,unconnected-(U1-Pad6)*%
X107960000Y-93995000D03*
%TO.P,U1,5*%
%TO.N,+5V*%
X107960000Y-96535000D03*
%TO.P,U1,4*%
%TO.N,Net-(R6-Pad2)*%
X107960000Y-99075000D03*
%TO.P,U1,3,NC*%
%TO.N,unconnected-(U1-Pad3)*%
X100340000Y-99075000D03*
%TO.P,U1,2*%
%TO.N,Net-(J2-Pad1)*%
X100340000Y-96535000D03*
D13*
%TO.P,U1,1*%
%TO.N,Net-(R4-Pad2)*%
X100340000Y-93995000D03*
%TD*%
D11*
%TO.P,R7,1*%
%TO.N,GND*%
X128143000Y-125095000D03*
D12*
%TO.P,R7,2*%
%TO.N,Net-(R7-Pad2)*%
X117983000Y-125095000D03*
%TD*%
D11*
%TO.P,R6,1*%
%TO.N,GND*%
X129921000Y-117348000D03*
D12*
%TO.P,R6,2*%
%TO.N,Net-(R6-Pad2)*%
X129921000Y-107188000D03*
%TD*%
D11*
%TO.P,R5,1*%
%TO.N,Net-(J3-Pad1)*%
X86360000Y-106680000D03*
D12*
%TO.P,R5,2*%
%TO.N,Net-(R5-Pad2)*%
X96520000Y-106680000D03*
%TD*%
D11*
%TO.P,R4,1*%
%TO.N,Net-(J1-Pad1)*%
X86360000Y-93980000D03*
D12*
%TO.P,R4,2*%
%TO.N,Net-(R4-Pad2)*%
X96520000Y-93980000D03*
%TD*%
D11*
%TO.P,R3,1*%
%TO.N,Net-(J5-Pad1)*%
X86360000Y-117602000D03*
D12*
%TO.P,R3,2*%
%TO.N,Net-(R3-Pad2)*%
X96520000Y-117602000D03*
%TD*%
D11*
%TO.P,R2,1*%
%TO.N,Net-(J4-Pad1)*%
X96520000Y-110490000D03*
D12*
%TO.P,R2,2*%
%TO.N,Net-(J3-Pad1)*%
X86360000Y-110490000D03*
%TD*%
D11*
%TO.P,R1,1*%
%TO.N,Net-(J2-Pad1)*%
X96520000Y-97790000D03*
D12*
%TO.P,R1,2*%
%TO.N,Net-(J1-Pad1)*%
X86360000Y-97790000D03*
%TD*%
D10*
%TO.P,J10,1,Pin_1*%
%TO.N,Net-(J10-Pad1)*%
X130175000Y-98171000D03*
%TD*%
%TO.P,J9,1,Pin_1*%
%TO.N,Net-(J9-Pad1)*%
X130048000Y-103124000D03*
%TD*%
%TO.P,J8,1,Pin_1*%
%TO.N,Net-(J8-Pad1)*%
X130175000Y-92710000D03*
%TD*%
%TO.P,J6,1,Pin_1*%
%TO.N,Net-(J6-Pad1)*%
X80899000Y-123825000D03*
%TD*%
%TO.P,J5,1,Pin_1*%
%TO.N,Net-(J5-Pad1)*%
X80899000Y-118364000D03*
%TD*%
%TO.P,J4,1,Pin_1*%
%TO.N,Net-(J4-Pad1)*%
X81280000Y-111506000D03*
%TD*%
%TO.P,J3,1,Pin_1*%
%TO.N,Net-(J3-Pad1)*%
X81280000Y-106680000D03*
%TD*%
%TO.P,J2,1,Pin_1*%
%TO.N,Net-(J2-Pad1)*%
X81280000Y-99060000D03*
%TD*%
%TO.P,J1,1,Pin_1*%
%TO.N,Net-(J1-Pad1)*%
X81280000Y-93980000D03*
%TD*%
D11*
%TO.P,C6,1*%
%TO.N,Net-(C6-Pad1)*%
X113030000Y-109427000D03*
%TO.P,C6,2*%
%TO.N,GND*%
X113030000Y-114427000D03*
%TD*%
%TO.P,C5,1*%
%TO.N,Net-(C5-Pad1)*%
X113030000Y-101727000D03*
%TO.P,C5,2*%
%TO.N,Net-(C5-Pad2)*%
X113030000Y-106727000D03*
%TD*%
%TO.P,C4,1*%
%TO.N,Net-(C4-Pad1)*%
X118150000Y-89789000D03*
%TO.P,C4,2*%
%TO.N,GND*%
X123150000Y-89789000D03*
%TD*%
%TO.P,C3,1*%
%TO.N,Net-(C3-Pad1)*%
X113030000Y-94020000D03*
%TO.P,C3,2*%
%TO.N,Net-(C3-Pad2)*%
X113030000Y-99020000D03*
%TD*%
D13*
%TO.P,C2,1*%
%TO.N,+5V*%
X98298000Y-88900000D03*
D11*
%TO.P,C2,2*%
%TO.N,GND*%
X95798000Y-88900000D03*
%TD*%
%TO.P,C1,1*%
%TO.N,+5V*%
X109133000Y-89789000D03*
%TO.P,C1,2*%
%TO.N,GND*%
X114133000Y-89789000D03*
%TD*%
D14*
%TO.N,Net-(R7-Pad2)*%
X110490000Y-124460000D03*
%TO.N,Net-(R6-Pad2)*%
X122555000Y-100330000D03*
D15*
%TO.N,GND*%
X101981000Y-115697000D03*
%TD*%
D16*
%TO.N,Net-(R8-Pad2)*%
X124206000Y-118618000D02*
X125595000Y-117229000D01*
X125595000Y-117229000D02*
X125595000Y-105280000D01*
X125595000Y-105280000D02*
X124470000Y-104155000D01*
%TO.N,Net-(C4-Pad1)*%
X116850000Y-96535000D02*
X118150000Y-95235000D01*
X118150000Y-95235000D02*
X118150000Y-89789000D01*
%TO.N,Net-(R7-Pad2)*%
X109339000Y-123309000D02*
X110490000Y-124460000D01*
X109339000Y-112994000D02*
X109339000Y-123309000D01*
X108120000Y-111775000D02*
X109339000Y-112994000D01*
%TO.N,Net-(R6-Pad2)*%
X122555000Y-104780000D02*
X124470000Y-106695000D01*
X122555000Y-100330000D02*
X122555000Y-104780000D01*
D17*
%TO.N,+5V*%
X107960000Y-96535000D02*
X109520000Y-98095000D01*
X109520000Y-98095000D02*
X109520000Y-107835000D01*
X109520000Y-107835000D02*
X108120000Y-109235000D01*
X109133000Y-89789000D02*
X109932999Y-90588999D01*
X109932999Y-90588999D02*
X109932999Y-94562001D01*
X109932999Y-94562001D02*
X107960000Y-96535000D01*
%TO.N,GND*%
X128143000Y-125095000D02*
X128143000Y-119126000D01*
X128143000Y-119126000D02*
X129921000Y-117348000D01*
X101994000Y-115710000D02*
X101981000Y-115697000D01*
X101994000Y-120535000D02*
X101994000Y-115710000D01*
X100594000Y-121935000D02*
X101994000Y-120535000D01*
X113030000Y-114427000D02*
X114430000Y-113027000D01*
X114430000Y-113027000D02*
X114430000Y-90086000D01*
X114430000Y-90086000D02*
X114133000Y-89789000D01*
X123150000Y-89789000D02*
X122350001Y-90588999D01*
X122350001Y-94415001D02*
X124470000Y-96535000D01*
X122350001Y-90588999D02*
X122350001Y-94415001D01*
%TD*%
%TA.AperFunction,Conductor*%
%TO.N,+5V*%
G36*
X134053621Y-84348502D02*
G01*
X134100114Y-84402158D01*
X134111500Y-84454500D01*
X134111500Y-126365500D01*
X134091498Y-126433621D01*
X134037842Y-126480114D01*
X133985500Y-126491500D01*
X128812721Y-126491500D01*
X128744600Y-126471498D01*
X128698107Y-126417842D01*
X128688003Y-126347568D01*
X128717497Y-126282988D01*
X128759471Y-126251305D01*
X128794762Y-126234849D01*
X128794767Y-126234846D01*
X128799749Y-126232523D01*
X128904611Y-126159098D01*
X128982789Y-126104357D01*
X128982792Y-126104355D01*
X128987300Y-126101198D01*
X129149198Y-125939300D01*
X129280523Y-125751749D01*
X129282846Y-125746767D01*
X129282849Y-125746762D01*
X129374961Y-125549225D01*
X129374961Y-125549224D01*
X129377284Y-125544243D01*
X129436543Y-125323087D01*
X129456498Y-125095000D01*
X129436543Y-124866913D01*
X129435119Y-124861598D01*
X129378707Y-124651067D01*
X129378706Y-124651065D01*
X129377284Y-124645757D01*
X129374961Y-124640775D01*
X129282849Y-124443238D01*
X129282846Y-124443233D01*
X129280523Y-124438251D01*
X129167358Y-124276635D01*
X129152357Y-124255211D01*
X129152355Y-124255208D01*
X129149198Y-124250700D01*
X129088405Y-124189907D01*
X129054379Y-124127595D01*
X129051500Y-124100812D01*
X129051500Y-119554503D01*
X129071502Y-119486382D01*
X129088405Y-119465408D01*
X129857136Y-118696677D01*
X129919448Y-118662651D01*
X129935246Y-118660252D01*
X130013904Y-118653370D01*
X130143606Y-118642023D01*
X130143611Y-118642022D01*
X130149087Y-118641543D01*
X130154400Y-118640119D01*
X130154402Y-118640119D01*
X130364933Y-118583707D01*
X130364935Y-118583706D01*
X130370243Y-118582284D01*
X130464716Y-118538231D01*
X130572762Y-118487849D01*
X130572767Y-118487846D01*
X130577749Y-118485523D01*
X130706468Y-118395393D01*
X130760789Y-118357357D01*
X130760792Y-118357355D01*
X130765300Y-118354198D01*
X130927198Y-118192300D01*
X130947172Y-118163775D01*
X130990807Y-118101457D01*
X131058523Y-118004749D01*
X131060846Y-117999767D01*
X131060849Y-117999762D01*
X131152961Y-117802225D01*
X131152961Y-117802224D01*
X131155284Y-117797243D01*
X131161593Y-117773700D01*
X131213119Y-117581402D01*
X131213119Y-117581400D01*
X131214543Y-117576087D01*
X131234498Y-117348000D01*
X131214543Y-117119913D01*
X131213119Y-117114598D01*
X131156707Y-116904067D01*
X131156706Y-116904065D01*
X131155284Y-116898757D01*
X131091612Y-116762211D01*
X131060849Y-116696238D01*
X131060846Y-116696233D01*
X131058523Y-116691251D01*
X130927198Y-116503700D01*
X130765300Y-116341802D01*
X130760792Y-116338645D01*
X130760789Y-116338643D01*
X130631877Y-116248378D01*
X130577749Y-116210477D01*
X130572767Y-116208154D01*
X130572762Y-116208151D01*
X130375225Y-116116039D01*
X130375224Y-116116039D01*
X130370243Y-116113716D01*
X130364935Y-116112294D01*
X130364933Y-116112293D01*
X130154402Y-116055881D01*
X130154400Y-116055881D01*
X130149087Y-116054457D01*
X129921000Y-116034502D01*
X129692913Y-116054457D01*
X129687600Y-116055881D01*
X129687598Y-116055881D01*
X129477067Y-116112293D01*
X129477065Y-116112294D01*
X129471757Y-116113716D01*
X129466776Y-116116039D01*
X129466775Y-116116039D01*
X129269238Y-116208151D01*
X129269233Y-116208154D01*
X129264251Y-116210477D01*
X129210123Y-116248378D01*
X129081211Y-116338643D01*
X129081208Y-116338645D01*
X129076700Y-116341802D01*
X128914802Y-116503700D01*
X128783477Y-116691251D01*
X128781154Y-116696233D01*
X128781151Y-116696238D01*
X128750388Y-116762211D01*
X128686716Y-116898757D01*
X128685294Y-116904065D01*
X128685293Y-116904067D01*
X128628881Y-117114598D01*
X128627457Y-117119913D01*
X128626978Y-117125389D01*
X128626977Y-117125394D01*
X128624132Y-117157919D01*
X128610240Y-117316711D01*
X128608749Y-117333750D01*
X128582886Y-117399869D01*
X128572323Y-117411864D01*
X127558168Y-118426019D01*
X127543135Y-118438860D01*
X127539104Y-118441789D01*
X127531747Y-118447134D01*
X127527327Y-118452043D01*
X127485984Y-118497959D01*
X127481443Y-118502744D01*
X127466928Y-118517259D01*
X127464852Y-118519823D01*
X127454006Y-118533216D01*
X127449722Y-118538231D01*
X127408381Y-118584145D01*
X127408377Y-118584150D01*
X127403960Y-118589056D01*
X127400660Y-118594772D01*
X127400657Y-118594776D01*
X127396927Y-118601237D01*
X127385727Y-118617533D01*
X127376871Y-118628470D01*
X127359455Y-118662651D01*
X127345815Y-118689421D01*
X127342667Y-118695218D01*
X127317088Y-118739523D01*
X127308473Y-118754444D01*
X127306432Y-118760726D01*
X127306431Y-118760728D01*
X127304125Y-118767826D01*
X127296560Y-118786092D01*
X127290171Y-118798630D01*
X127288463Y-118805003D01*
X127288463Y-118805004D01*
X127272469Y-118864695D01*
X127270600Y-118871003D01*
X127249458Y-118936072D01*
X127248768Y-118942637D01*
X127248766Y-118942646D01*
X127247985Y-118950075D01*
X127244383Y-118969509D01*
X127242453Y-118976714D01*
X127240743Y-118983097D01*
X127240398Y-118989688D01*
X127240397Y-118989692D01*
X127237164Y-119051384D01*
X127236647Y-119057958D01*
X127235148Y-119072225D01*
X127234500Y-119078390D01*
X127234500Y-119098926D01*
X127234327Y-119105520D01*
X127230748Y-119173810D01*
X127231780Y-119180325D01*
X127232949Y-119187705D01*
X127234500Y-119207417D01*
X127234500Y-124100812D01*
X127214498Y-124168933D01*
X127197595Y-124189907D01*
X127136802Y-124250700D01*
X127133645Y-124255208D01*
X127133643Y-124255211D01*
X127118642Y-124276635D01*
X127005477Y-124438251D01*
X127003154Y-124443233D01*
X127003151Y-124443238D01*
X126911039Y-124640775D01*
X126908716Y-124645757D01*
X126907294Y-124651065D01*
X126907293Y-124651067D01*
X126850881Y-124861598D01*
X126849457Y-124866913D01*
X126829502Y-125095000D01*
X126849457Y-125323087D01*
X126908716Y-125544243D01*
X126911039Y-125549224D01*
X126911039Y-125549225D01*
X127003151Y-125746762D01*
X127003154Y-125746767D01*
X127005477Y-125751749D01*
X127136802Y-125939300D01*
X127298700Y-126101198D01*
X127303208Y-126104355D01*
X127303211Y-126104357D01*
X127381389Y-126159098D01*
X127486251Y-126232523D01*
X127491233Y-126234846D01*
X127491238Y-126234849D01*
X127526529Y-126251305D01*
X127579814Y-126298222D01*
X127599275Y-126366500D01*
X127578733Y-126434460D01*
X127524710Y-126480525D01*
X127473279Y-126491500D01*
X118652721Y-126491500D01*
X118584600Y-126471498D01*
X118538107Y-126417842D01*
X118528003Y-126347568D01*
X118557497Y-126282988D01*
X118599471Y-126251305D01*
X118634762Y-126234849D01*
X118634767Y-126234846D01*
X118639749Y-126232523D01*
X118744611Y-126159098D01*
X118822789Y-126104357D01*
X118822792Y-126104355D01*
X118827300Y-126101198D01*
X118989198Y-125939300D01*
X119120523Y-125751749D01*
X119122846Y-125746767D01*
X119122849Y-125746762D01*
X119214961Y-125549225D01*
X119214961Y-125549224D01*
X119217284Y-125544243D01*
X119276543Y-125323087D01*
X119296498Y-125095000D01*
X119276543Y-124866913D01*
X119275119Y-124861598D01*
X119218707Y-124651067D01*
X119218706Y-124651065D01*
X119217284Y-124645757D01*
X119214961Y-124640775D01*
X119122849Y-124443238D01*
X119122846Y-124443233D01*
X119120523Y-124438251D01*
X119007358Y-124276635D01*
X118992357Y-124255211D01*
X118992355Y-124255208D01*
X118989198Y-124250700D01*
X118827300Y-124088802D01*
X118822792Y-124085645D01*
X118822789Y-124085643D01*
X118730148Y-124020775D01*
X118639749Y-123957477D01*
X118634767Y-123955154D01*
X118634762Y-123955151D01*
X118437225Y-123863039D01*
X118437224Y-123863039D01*
X118432243Y-123860716D01*
X118426935Y-123859294D01*
X118426933Y-123859293D01*
X118216402Y-123802881D01*
X118216400Y-123802881D01*
X118211087Y-123801457D01*
X117983000Y-123781502D01*
X117754913Y-123801457D01*
X117749600Y-123802881D01*
X117749598Y-123802881D01*
X117539067Y-123859293D01*
X117539065Y-123859294D01*
X117533757Y-123860716D01*
X117528776Y-123863039D01*
X117528775Y-123863039D01*
X117331238Y-123955151D01*
X117331233Y-123955154D01*
X117326251Y-123957477D01*
X117235852Y-124020775D01*
X117143211Y-124085643D01*
X117143208Y-124085645D01*
X117138700Y-124088802D01*
X116976802Y-124250700D01*
X116973645Y-124255208D01*
X116973643Y-124255211D01*
X116958642Y-124276635D01*
X116845477Y-124438251D01*
X116843154Y-124443233D01*
X116843151Y-124443238D01*
X116751039Y-124640775D01*
X116748716Y-124645757D01*
X116747294Y-124651065D01*
X116747293Y-124651067D01*
X116690881Y-124861598D01*
X116689457Y-124866913D01*
X116669502Y-125095000D01*
X116689457Y-125323087D01*
X116748716Y-125544243D01*
X116751039Y-125549224D01*
X116751039Y-125549225D01*
X116843151Y-125746762D01*
X116843154Y-125746767D01*
X116845477Y-125751749D01*
X116976802Y-125939300D01*
X117138700Y-126101198D01*
X117143208Y-126104355D01*
X117143211Y-126104357D01*
X117221389Y-126159098D01*
X117326251Y-126232523D01*
X117331233Y-126234846D01*
X117331238Y-126234849D01*
X117366529Y-126251305D01*
X117419814Y-126298222D01*
X117439275Y-126366500D01*
X117418733Y-126434460D01*
X117364710Y-126480525D01*
X117313279Y-126491500D01*
X79374500Y-126491500D01*
X79306379Y-126471498D01*
X79259886Y-126417842D01*
X79248500Y-126365500D01*
X79248500Y-124723134D01*
X79540500Y-124723134D01*
X79547255Y-124785316D01*
X79598385Y-124921705D01*
X79685739Y-125038261D01*
X79802295Y-125125615D01*
X79938684Y-125176745D01*
X80000866Y-125183500D01*
X81797134Y-125183500D01*
X81859316Y-125176745D01*
X81995705Y-125125615D01*
X82112261Y-125038261D01*
X82199615Y-124921705D01*
X82250745Y-124785316D01*
X82257500Y-124723134D01*
X82257500Y-124475000D01*
X99280502Y-124475000D01*
X99300457Y-124703087D01*
X99301881Y-124708400D01*
X99301881Y-124708402D01*
X99347665Y-124879267D01*
X99359716Y-124924243D01*
X99362039Y-124929224D01*
X99362039Y-124929225D01*
X99454151Y-125126762D01*
X99454154Y-125126767D01*
X99456477Y-125131749D01*
X99587802Y-125319300D01*
X99749700Y-125481198D01*
X99754208Y-125484355D01*
X99754211Y-125484357D01*
X99832154Y-125538933D01*
X99937251Y-125612523D01*
X99942233Y-125614846D01*
X99942238Y-125614849D01*
X100139775Y-125706961D01*
X100144757Y-125709284D01*
X100150065Y-125710706D01*
X100150067Y-125710707D01*
X100360598Y-125767119D01*
X100360600Y-125767119D01*
X100365913Y-125768543D01*
X100594000Y-125788498D01*
X100822087Y-125768543D01*
X100827400Y-125767119D01*
X100827402Y-125767119D01*
X101037933Y-125710707D01*
X101037935Y-125710706D01*
X101043243Y-125709284D01*
X101048225Y-125706961D01*
X101245762Y-125614849D01*
X101245767Y-125614846D01*
X101250749Y-125612523D01*
X101355846Y-125538933D01*
X101433789Y-125484357D01*
X101433792Y-125484355D01*
X101438300Y-125481198D01*
X101600198Y-125319300D01*
X101731523Y-125131749D01*
X101733846Y-125126767D01*
X101733849Y-125126762D01*
X101825961Y-124929225D01*
X101825961Y-124929224D01*
X101828284Y-124924243D01*
X101840336Y-124879267D01*
X101886119Y-124708402D01*
X101886119Y-124708400D01*
X101887543Y-124703087D01*
X101907498Y-124475000D01*
X101887543Y-124246913D01*
X101866648Y-124168933D01*
X101829707Y-124031067D01*
X101829706Y-124031065D01*
X101828284Y-124025757D01*
X101795360Y-123955151D01*
X101733849Y-123823238D01*
X101733846Y-123823233D01*
X101731523Y-123818251D01*
X101629651Y-123672763D01*
X101603357Y-123635211D01*
X101603355Y-123635208D01*
X101600198Y-123630700D01*
X101438300Y-123468802D01*
X101433792Y-123465645D01*
X101433789Y-123465643D01*
X101355611Y-123410902D01*
X101250749Y-123337477D01*
X101245767Y-123335154D01*
X101245762Y-123335151D01*
X101211543Y-123319195D01*
X101158258Y-123272278D01*
X101138797Y-123204001D01*
X101159339Y-123136041D01*
X101211543Y-123090805D01*
X101245762Y-123074849D01*
X101245767Y-123074846D01*
X101250749Y-123072523D01*
X101362314Y-122994404D01*
X101433789Y-122944357D01*
X101433792Y-122944355D01*
X101438300Y-122941198D01*
X101600198Y-122779300D01*
X101731523Y-122591749D01*
X101733846Y-122586767D01*
X101733849Y-122586762D01*
X101825961Y-122389225D01*
X101825961Y-122389224D01*
X101828284Y-122384243D01*
X101887543Y-122163087D01*
X101888022Y-122157611D01*
X101888023Y-122157606D01*
X101906251Y-121949250D01*
X101932114Y-121883131D01*
X101942677Y-121871136D01*
X102578832Y-121234981D01*
X102593865Y-121222140D01*
X102599913Y-121217746D01*
X102599914Y-121217745D01*
X102605253Y-121213866D01*
X102651016Y-121163041D01*
X102655557Y-121158256D01*
X102670072Y-121143741D01*
X102682994Y-121127784D01*
X102687278Y-121122769D01*
X102728619Y-121076855D01*
X102728623Y-121076850D01*
X102733040Y-121071944D01*
X102736340Y-121066228D01*
X102736343Y-121066224D01*
X102740073Y-121059763D01*
X102751273Y-121043466D01*
X102755975Y-121037660D01*
X102755976Y-121037658D01*
X102760129Y-121032530D01*
X102791186Y-120971577D01*
X102794333Y-120965782D01*
X102825223Y-120912279D01*
X102825224Y-120912278D01*
X102828527Y-120906556D01*
X102832875Y-120893173D01*
X102840441Y-120874907D01*
X102846829Y-120862370D01*
X102864533Y-120796299D01*
X102866400Y-120789997D01*
X102887542Y-120724928D01*
X102888232Y-120718363D01*
X102888234Y-120718354D01*
X102889015Y-120710925D01*
X102892617Y-120691491D01*
X102894547Y-120684286D01*
X102894547Y-120684284D01*
X102896257Y-120677903D01*
X102896934Y-120665000D01*
X102899836Y-120609616D01*
X102900353Y-120603042D01*
X102902156Y-120585884D01*
X102902156Y-120585882D01*
X102902500Y-120582610D01*
X102902500Y-120562074D01*
X102902673Y-120555480D01*
X102905907Y-120493782D01*
X102905907Y-120493777D01*
X102906252Y-120487190D01*
X102904051Y-120473292D01*
X102902500Y-120453583D01*
X102902500Y-116353211D01*
X102918565Y-116291646D01*
X102998004Y-116149799D01*
X102999860Y-116144332D01*
X102999862Y-116144327D01*
X103061634Y-115962352D01*
X103061635Y-115962347D01*
X103063490Y-115956883D01*
X103092723Y-115755263D01*
X103094249Y-115697000D01*
X103075608Y-115494126D01*
X103020307Y-115298047D01*
X103009680Y-115276496D01*
X102932756Y-115120510D01*
X102930201Y-115115329D01*
X102911796Y-115090681D01*
X102811758Y-114956715D01*
X102811758Y-114956714D01*
X102808305Y-114952091D01*
X102658703Y-114813800D01*
X102612675Y-114784759D01*
X102491288Y-114708169D01*
X102491283Y-114708167D01*
X102486404Y-114705088D01*
X102297180Y-114629595D01*
X102097366Y-114589849D01*
X102091592Y-114589773D01*
X102091588Y-114589773D01*
X101988452Y-114588424D01*
X101893655Y-114587183D01*
X101887958Y-114588162D01*
X101887957Y-114588162D01*
X101698567Y-114620705D01*
X101692870Y-114621684D01*
X101501734Y-114692198D01*
X101326649Y-114796363D01*
X101173478Y-114930690D01*
X101169911Y-114935215D01*
X101169906Y-114935220D01*
X101083331Y-115045040D01*
X101047351Y-115090681D01*
X100952492Y-115270978D01*
X100892078Y-115465543D01*
X100868132Y-115667859D01*
X100881457Y-115871151D01*
X100931605Y-116068610D01*
X100953470Y-116116039D01*
X101014479Y-116248378D01*
X101014482Y-116248383D01*
X101016898Y-116253624D01*
X101020229Y-116258337D01*
X101020230Y-116258339D01*
X101062397Y-116318003D01*
X101085500Y-116390724D01*
X101085500Y-117960500D01*
X101065498Y-118028621D01*
X101011842Y-118075114D01*
X100959500Y-118086500D01*
X99745866Y-118086500D01*
X99683684Y-118093255D01*
X99547295Y-118144385D01*
X99430739Y-118231739D01*
X99343385Y-118348295D01*
X99292255Y-118484684D01*
X99285500Y-118546866D01*
X99285500Y-120243134D01*
X99292255Y-120305316D01*
X99343385Y-120441705D01*
X99430739Y-120558261D01*
X99547295Y-120645615D01*
X99683684Y-120696745D01*
X99694474Y-120697917D01*
X99696606Y-120698803D01*
X99699222Y-120699425D01*
X99699121Y-120699848D01*
X99760035Y-120725155D01*
X99800463Y-120783517D01*
X99802922Y-120854471D01*
X99766629Y-120915490D01*
X99757969Y-120922489D01*
X99754207Y-120925646D01*
X99749700Y-120928802D01*
X99587802Y-121090700D01*
X99584645Y-121095208D01*
X99584643Y-121095211D01*
X99550662Y-121143741D01*
X99456477Y-121278251D01*
X99454154Y-121283233D01*
X99454151Y-121283238D01*
X99362039Y-121480775D01*
X99359716Y-121485757D01*
X99300457Y-121706913D01*
X99280502Y-121935000D01*
X99300457Y-122163087D01*
X99359716Y-122384243D01*
X99362039Y-122389224D01*
X99362039Y-122389225D01*
X99454151Y-122586762D01*
X99454154Y-122586767D01*
X99456477Y-122591749D01*
X99587802Y-122779300D01*
X99749700Y-122941198D01*
X99754208Y-122944355D01*
X99754211Y-122944357D01*
X99825686Y-122994404D01*
X99937251Y-123072523D01*
X99942233Y-123074846D01*
X99942238Y-123074849D01*
X99976457Y-123090805D01*
X100029742Y-123137722D01*
X100049203Y-123205999D01*
X100028661Y-123273959D01*
X99976457Y-123319195D01*
X99942238Y-123335151D01*
X99942233Y-123335154D01*
X99937251Y-123337477D01*
X99832389Y-123410902D01*
X99754211Y-123465643D01*
X99754208Y-123465645D01*
X99749700Y-123468802D01*
X99587802Y-123630700D01*
X99584645Y-123635208D01*
X99584643Y-123635211D01*
X99558349Y-123672763D01*
X99456477Y-123818251D01*
X99454154Y-123823233D01*
X99454151Y-123823238D01*
X99392640Y-123955151D01*
X99359716Y-124025757D01*
X99358294Y-124031065D01*
X99358293Y-124031067D01*
X99321352Y-124168933D01*
X99300457Y-124246913D01*
X99280502Y-124475000D01*
X82257500Y-124475000D01*
X82257500Y-122926866D01*
X82250745Y-122864684D01*
X82199615Y-122728295D01*
X82112261Y-122611739D01*
X81995705Y-122524385D01*
X81859316Y-122473255D01*
X81797134Y-122466500D01*
X80000866Y-122466500D01*
X79938684Y-122473255D01*
X79802295Y-122524385D01*
X79685739Y-122611739D01*
X79598385Y-122728295D01*
X79547255Y-122864684D01*
X79540500Y-122926866D01*
X79540500Y-124723134D01*
X79248500Y-124723134D01*
X79248500Y-119262134D01*
X79540500Y-119262134D01*
X79547255Y-119324316D01*
X79598385Y-119460705D01*
X79685739Y-119577261D01*
X79802295Y-119664615D01*
X79938684Y-119715745D01*
X80000866Y-119722500D01*
X81797134Y-119722500D01*
X81859316Y-119715745D01*
X81995705Y-119664615D01*
X82112261Y-119577261D01*
X82199615Y-119460705D01*
X82250745Y-119324316D01*
X82257500Y-119262134D01*
X82257500Y-117602000D01*
X85046502Y-117602000D01*
X85066457Y-117830087D01*
X85067881Y-117835400D01*
X85067881Y-117835402D01*
X85111922Y-117999762D01*
X85125716Y-118051243D01*
X85128039Y-118056224D01*
X85128039Y-118056225D01*
X85220151Y-118253762D01*
X85220154Y-118253767D01*
X85222477Y-118258749D01*
X85353802Y-118446300D01*
X85515700Y-118608198D01*
X85520208Y-118611355D01*
X85520211Y-118611357D01*
X85544651Y-118628470D01*
X85703251Y-118739523D01*
X85708233Y-118741846D01*
X85708238Y-118741849D01*
X85830007Y-118798630D01*
X85910757Y-118836284D01*
X85916065Y-118837706D01*
X85916067Y-118837707D01*
X86126598Y-118894119D01*
X86126600Y-118894119D01*
X86131913Y-118895543D01*
X86360000Y-118915498D01*
X86588087Y-118895543D01*
X86593400Y-118894119D01*
X86593402Y-118894119D01*
X86803933Y-118837707D01*
X86803935Y-118837706D01*
X86809243Y-118836284D01*
X86889993Y-118798630D01*
X87011762Y-118741849D01*
X87011767Y-118741846D01*
X87016749Y-118739523D01*
X87175349Y-118628470D01*
X87199789Y-118611357D01*
X87199792Y-118611355D01*
X87204300Y-118608198D01*
X87366198Y-118446300D01*
X87497523Y-118258749D01*
X87499846Y-118253767D01*
X87499849Y-118253762D01*
X87591961Y-118056225D01*
X87591961Y-118056224D01*
X87594284Y-118051243D01*
X87608079Y-117999762D01*
X87652119Y-117835402D01*
X87652119Y-117835400D01*
X87653543Y-117830087D01*
X87673498Y-117602000D01*
X95206502Y-117602000D01*
X95226457Y-117830087D01*
X95227881Y-117835400D01*
X95227881Y-117835402D01*
X95271922Y-117999762D01*
X95285716Y-118051243D01*
X95288039Y-118056224D01*
X95288039Y-118056225D01*
X95380151Y-118253762D01*
X95380154Y-118253767D01*
X95382477Y-118258749D01*
X95513802Y-118446300D01*
X95675700Y-118608198D01*
X95680208Y-118611355D01*
X95680211Y-118611357D01*
X95704651Y-118628470D01*
X95863251Y-118739523D01*
X95868233Y-118741846D01*
X95868238Y-118741849D01*
X95990007Y-118798630D01*
X96070757Y-118836284D01*
X96076065Y-118837706D01*
X96076067Y-118837707D01*
X96286598Y-118894119D01*
X96286600Y-118894119D01*
X96291913Y-118895543D01*
X96520000Y-118915498D01*
X96748087Y-118895543D01*
X96753400Y-118894119D01*
X96753402Y-118894119D01*
X96963933Y-118837707D01*
X96963935Y-118837706D01*
X96969243Y-118836284D01*
X97049993Y-118798630D01*
X97171762Y-118741849D01*
X97171767Y-118741846D01*
X97176749Y-118739523D01*
X97335349Y-118628470D01*
X97359789Y-118611357D01*
X97359792Y-118611355D01*
X97364300Y-118608198D01*
X97526198Y-118446300D01*
X97657523Y-118258749D01*
X97659846Y-118253767D01*
X97659849Y-118253762D01*
X97751961Y-118056225D01*
X97751961Y-118056224D01*
X97754284Y-118051243D01*
X97768079Y-117999762D01*
X97812119Y-117835402D01*
X97812119Y-117835400D01*
X97813543Y-117830087D01*
X97833498Y-117602000D01*
X97813543Y-117373913D01*
X97812119Y-117368598D01*
X97755707Y-117158067D01*
X97755706Y-117158065D01*
X97754284Y-117152757D01*
X97715121Y-117068771D01*
X97659849Y-116950238D01*
X97659846Y-116950233D01*
X97657523Y-116945251D01*
X97526198Y-116757700D01*
X97364300Y-116595802D01*
X97359792Y-116592645D01*
X97359789Y-116592643D01*
X97232765Y-116503700D01*
X97176749Y-116464477D01*
X97171767Y-116462154D01*
X97171762Y-116462151D01*
X96974225Y-116370039D01*
X96974224Y-116370039D01*
X96969243Y-116367716D01*
X96963935Y-116366294D01*
X96963933Y-116366293D01*
X96753402Y-116309881D01*
X96753400Y-116309881D01*
X96748087Y-116308457D01*
X96520000Y-116288502D01*
X96291913Y-116308457D01*
X96286600Y-116309881D01*
X96286598Y-116309881D01*
X96076067Y-116366293D01*
X96076065Y-116366294D01*
X96070757Y-116367716D01*
X96065776Y-116370039D01*
X96065775Y-116370039D01*
X95868238Y-116462151D01*
X95868233Y-116462154D01*
X95863251Y-116464477D01*
X95807235Y-116503700D01*
X95680211Y-116592643D01*
X95680208Y-116592645D01*
X95675700Y-116595802D01*
X95513802Y-116757700D01*
X95382477Y-116945251D01*
X95380154Y-116950233D01*
X95380151Y-116950238D01*
X95324879Y-117068771D01*
X95285716Y-117152757D01*
X95284294Y-117158065D01*
X95284293Y-117158067D01*
X95227881Y-117368598D01*
X95226457Y-117373913D01*
X95206502Y-117602000D01*
X87673498Y-117602000D01*
X87653543Y-117373913D01*
X87652119Y-117368598D01*
X87595707Y-117158067D01*
X87595706Y-117158065D01*
X87594284Y-117152757D01*
X87555121Y-117068771D01*
X87499849Y-116950238D01*
X87499846Y-116950233D01*
X87497523Y-116945251D01*
X87366198Y-116757700D01*
X87204300Y-116595802D01*
X87199792Y-116592645D01*
X87199789Y-116592643D01*
X87072765Y-116503700D01*
X87016749Y-116464477D01*
X87011767Y-116462154D01*
X87011762Y-116462151D01*
X86814225Y-116370039D01*
X86814224Y-116370039D01*
X86809243Y-116367716D01*
X86803935Y-116366294D01*
X86803933Y-116366293D01*
X86593402Y-116309881D01*
X86593400Y-116309881D01*
X86588087Y-116308457D01*
X86360000Y-116288502D01*
X86131913Y-116308457D01*
X86126600Y-116309881D01*
X86126598Y-116309881D01*
X85916067Y-116366293D01*
X85916065Y-116366294D01*
X85910757Y-116367716D01*
X85905776Y-116370039D01*
X85905775Y-116370039D01*
X85708238Y-116462151D01*
X85708233Y-116462154D01*
X85703251Y-116464477D01*
X85647235Y-116503700D01*
X85520211Y-116592643D01*
X85520208Y-116592645D01*
X85515700Y-116595802D01*
X85353802Y-116757700D01*
X85222477Y-116945251D01*
X85220154Y-116950233D01*
X85220151Y-116950238D01*
X85164879Y-117068771D01*
X85125716Y-117152757D01*
X85124294Y-117158065D01*
X85124293Y-117158067D01*
X85067881Y-117368598D01*
X85066457Y-117373913D01*
X85046502Y-117602000D01*
X82257500Y-117602000D01*
X82257500Y-117465866D01*
X82250745Y-117403684D01*
X82199615Y-117267295D01*
X82112261Y-117150739D01*
X81995705Y-117063385D01*
X81859316Y-117012255D01*
X81797134Y-117005500D01*
X80000866Y-117005500D01*
X79938684Y-117012255D01*
X79802295Y-117063385D01*
X79685739Y-117150739D01*
X79598385Y-117267295D01*
X79547255Y-117403684D01*
X79540500Y-117465866D01*
X79540500Y-119262134D01*
X79248500Y-119262134D01*
X79248500Y-112404134D01*
X79921500Y-112404134D01*
X79928255Y-112466316D01*
X79979385Y-112602705D01*
X80066739Y-112719261D01*
X80183295Y-112806615D01*
X80319684Y-112857745D01*
X80381866Y-112864500D01*
X82178134Y-112864500D01*
X82240316Y-112857745D01*
X82376705Y-112806615D01*
X82493261Y-112719261D01*
X82580615Y-112602705D01*
X82631745Y-112466316D01*
X82638500Y-112404134D01*
X82638500Y-110607866D01*
X82631745Y-110545684D01*
X82610870Y-110490000D01*
X85046502Y-110490000D01*
X85066457Y-110718087D01*
X85125716Y-110939243D01*
X85128039Y-110944224D01*
X85128039Y-110944225D01*
X85220151Y-111141762D01*
X85220154Y-111141767D01*
X85222477Y-111146749D01*
X85225634Y-111151257D01*
X85344332Y-111320775D01*
X85353802Y-111334300D01*
X85515700Y-111496198D01*
X85520208Y-111499355D01*
X85520211Y-111499357D01*
X85580538Y-111541598D01*
X85703251Y-111627523D01*
X85708233Y-111629846D01*
X85708238Y-111629849D01*
X85905775Y-111721961D01*
X85910757Y-111724284D01*
X85916065Y-111725706D01*
X85916067Y-111725707D01*
X86126598Y-111782119D01*
X86126600Y-111782119D01*
X86131913Y-111783543D01*
X86360000Y-111803498D01*
X86588087Y-111783543D01*
X86593400Y-111782119D01*
X86593402Y-111782119D01*
X86803933Y-111725707D01*
X86803935Y-111725706D01*
X86809243Y-111724284D01*
X86814225Y-111721961D01*
X87011762Y-111629849D01*
X87011767Y-111629846D01*
X87016749Y-111627523D01*
X87139462Y-111541598D01*
X87199789Y-111499357D01*
X87199792Y-111499355D01*
X87204300Y-111496198D01*
X87366198Y-111334300D01*
X87375669Y-111320775D01*
X87494366Y-111151257D01*
X87497523Y-111146749D01*
X87499846Y-111141767D01*
X87499849Y-111141762D01*
X87591961Y-110944225D01*
X87591961Y-110944224D01*
X87594284Y-110939243D01*
X87653543Y-110718087D01*
X87673498Y-110490000D01*
X95206502Y-110490000D01*
X95226457Y-110718087D01*
X95285716Y-110939243D01*
X95288039Y-110944224D01*
X95288039Y-110944225D01*
X95380151Y-111141762D01*
X95380154Y-111141767D01*
X95382477Y-111146749D01*
X95385634Y-111151257D01*
X95504332Y-111320775D01*
X95513802Y-111334300D01*
X95675700Y-111496198D01*
X95680208Y-111499355D01*
X95680211Y-111499357D01*
X95740538Y-111541598D01*
X95863251Y-111627523D01*
X95868233Y-111629846D01*
X95868238Y-111629849D01*
X96065775Y-111721961D01*
X96070757Y-111724284D01*
X96076065Y-111725706D01*
X96076067Y-111725707D01*
X96286598Y-111782119D01*
X96286600Y-111782119D01*
X96291913Y-111783543D01*
X96520000Y-111803498D01*
X96748087Y-111783543D01*
X96753400Y-111782119D01*
X96753402Y-111782119D01*
X96779970Y-111775000D01*
X99186502Y-111775000D01*
X99206457Y-112003087D01*
X99207880Y-112008398D01*
X99207881Y-112008402D01*
X99223460Y-112066541D01*
X99265716Y-112224243D01*
X99268039Y-112229224D01*
X99268039Y-112229225D01*
X99360151Y-112426762D01*
X99360154Y-112426767D01*
X99362477Y-112431749D01*
X99386681Y-112466316D01*
X99487214Y-112609891D01*
X99493802Y-112619300D01*
X99655700Y-112781198D01*
X99660208Y-112784355D01*
X99660211Y-112784357D01*
X99722300Y-112827832D01*
X99843251Y-112912523D01*
X99848233Y-112914846D01*
X99848238Y-112914849D01*
X100008499Y-112989579D01*
X100050757Y-113009284D01*
X100056065Y-113010706D01*
X100056067Y-113010707D01*
X100266598Y-113067119D01*
X100266600Y-113067119D01*
X100271913Y-113068543D01*
X100500000Y-113088498D01*
X100728087Y-113068543D01*
X100733400Y-113067119D01*
X100733402Y-113067119D01*
X100943933Y-113010707D01*
X100943935Y-113010706D01*
X100949243Y-113009284D01*
X100991501Y-112989579D01*
X101151762Y-112914849D01*
X101151767Y-112914846D01*
X101156749Y-112912523D01*
X101277700Y-112827832D01*
X101339789Y-112784357D01*
X101339792Y-112784355D01*
X101344300Y-112781198D01*
X101506198Y-112619300D01*
X101512787Y-112609891D01*
X101613319Y-112466316D01*
X101637523Y-112431749D01*
X101639846Y-112426767D01*
X101639849Y-112426762D01*
X101731961Y-112229225D01*
X101731961Y-112229224D01*
X101734284Y-112224243D01*
X101776541Y-112066541D01*
X101792119Y-112008402D01*
X101792120Y-112008398D01*
X101793543Y-112003087D01*
X101813498Y-111775000D01*
X106806502Y-111775000D01*
X106826457Y-112003087D01*
X106827880Y-112008398D01*
X106827881Y-112008402D01*
X106843460Y-112066541D01*
X106885716Y-112224243D01*
X106888039Y-112229224D01*
X106888039Y-112229225D01*
X106980151Y-112426762D01*
X106980154Y-112426767D01*
X106982477Y-112431749D01*
X107006681Y-112466316D01*
X107107214Y-112609891D01*
X107113802Y-112619300D01*
X107275700Y-112781198D01*
X107280208Y-112784355D01*
X107280211Y-112784357D01*
X107342300Y-112827832D01*
X107463251Y-112912523D01*
X107468233Y-112914846D01*
X107468238Y-112914849D01*
X107628499Y-112989579D01*
X107670757Y-113009284D01*
X107676065Y-113010706D01*
X107676067Y-113010707D01*
X107886598Y-113067119D01*
X107886600Y-113067119D01*
X107891913Y-113068543D01*
X108120000Y-113088498D01*
X108348087Y-113068543D01*
X108353398Y-113067120D01*
X108353409Y-113067118D01*
X108411541Y-113051541D01*
X108482517Y-113053230D01*
X108533248Y-113084152D01*
X108668595Y-113219499D01*
X108702621Y-113281811D01*
X108705500Y-113308594D01*
X108705500Y-118007832D01*
X108685498Y-118075953D01*
X108631842Y-118122446D01*
X108561568Y-118132550D01*
X108546895Y-118129540D01*
X108442087Y-118101457D01*
X108214000Y-118081502D01*
X107985913Y-118101457D01*
X107980600Y-118102881D01*
X107980598Y-118102881D01*
X107770067Y-118159293D01*
X107770065Y-118159294D01*
X107764757Y-118160716D01*
X107759776Y-118163039D01*
X107759775Y-118163039D01*
X107562238Y-118255151D01*
X107562233Y-118255154D01*
X107557251Y-118257477D01*
X107458735Y-118326459D01*
X107374211Y-118385643D01*
X107374208Y-118385645D01*
X107369700Y-118388802D01*
X107207802Y-118550700D01*
X107204645Y-118555208D01*
X107204643Y-118555211D01*
X107161004Y-118617534D01*
X107076477Y-118738251D01*
X107074154Y-118743233D01*
X107074151Y-118743238D01*
X106994049Y-118915019D01*
X106979716Y-118945757D01*
X106978294Y-118951065D01*
X106978293Y-118951067D01*
X106947164Y-119067243D01*
X106920457Y-119166913D01*
X106900502Y-119395000D01*
X106920457Y-119623087D01*
X106921881Y-119628400D01*
X106921881Y-119628402D01*
X106956567Y-119757849D01*
X106979716Y-119844243D01*
X106982039Y-119849224D01*
X106982039Y-119849225D01*
X107074151Y-120046762D01*
X107074154Y-120046767D01*
X107076477Y-120051749D01*
X107207802Y-120239300D01*
X107369700Y-120401198D01*
X107374208Y-120404355D01*
X107374211Y-120404357D01*
X107415542Y-120433297D01*
X107557251Y-120532523D01*
X107562233Y-120534846D01*
X107562238Y-120534849D01*
X107596457Y-120550805D01*
X107649742Y-120597722D01*
X107669203Y-120665999D01*
X107648661Y-120733959D01*
X107596457Y-120779195D01*
X107562238Y-120795151D01*
X107562233Y-120795154D01*
X107557251Y-120797477D01*
X107456178Y-120868249D01*
X107374211Y-120925643D01*
X107374208Y-120925645D01*
X107369700Y-120928802D01*
X107207802Y-121090700D01*
X107204645Y-121095208D01*
X107204643Y-121095211D01*
X107170662Y-121143741D01*
X107076477Y-121278251D01*
X107074154Y-121283233D01*
X107074151Y-121283238D01*
X106982039Y-121480775D01*
X106979716Y-121485757D01*
X106920457Y-121706913D01*
X106900502Y-121935000D01*
X106920457Y-122163087D01*
X106979716Y-122384243D01*
X106982039Y-122389224D01*
X106982039Y-122389225D01*
X107074151Y-122586762D01*
X107074154Y-122586767D01*
X107076477Y-122591749D01*
X107207802Y-122779300D01*
X107369700Y-122941198D01*
X107374208Y-122944355D01*
X107374211Y-122944357D01*
X107445686Y-122994404D01*
X107557251Y-123072523D01*
X107562233Y-123074846D01*
X107562238Y-123074849D01*
X107596457Y-123090805D01*
X107649742Y-123137722D01*
X107669203Y-123205999D01*
X107648661Y-123273959D01*
X107596457Y-123319195D01*
X107562238Y-123335151D01*
X107562233Y-123335154D01*
X107557251Y-123337477D01*
X107452389Y-123410902D01*
X107374211Y-123465643D01*
X107374208Y-123465645D01*
X107369700Y-123468802D01*
X107207802Y-123630700D01*
X107204645Y-123635208D01*
X107204643Y-123635211D01*
X107178349Y-123672763D01*
X107076477Y-123818251D01*
X107074154Y-123823233D01*
X107074151Y-123823238D01*
X107012640Y-123955151D01*
X106979716Y-124025757D01*
X106978294Y-124031065D01*
X106978293Y-124031067D01*
X106941352Y-124168933D01*
X106920457Y-124246913D01*
X106900502Y-124475000D01*
X106920457Y-124703087D01*
X106921881Y-124708400D01*
X106921881Y-124708402D01*
X106967665Y-124879267D01*
X106979716Y-124924243D01*
X106982039Y-124929224D01*
X106982039Y-124929225D01*
X107074151Y-125126762D01*
X107074154Y-125126767D01*
X107076477Y-125131749D01*
X107207802Y-125319300D01*
X107369700Y-125481198D01*
X107374208Y-125484355D01*
X107374211Y-125484357D01*
X107452154Y-125538933D01*
X107557251Y-125612523D01*
X107562233Y-125614846D01*
X107562238Y-125614849D01*
X107759775Y-125706961D01*
X107764757Y-125709284D01*
X107770065Y-125710706D01*
X107770067Y-125710707D01*
X107980598Y-125767119D01*
X107980600Y-125767119D01*
X107985913Y-125768543D01*
X108214000Y-125788498D01*
X108442087Y-125768543D01*
X108447400Y-125767119D01*
X108447402Y-125767119D01*
X108657933Y-125710707D01*
X108657935Y-125710706D01*
X108663243Y-125709284D01*
X108668225Y-125706961D01*
X108865762Y-125614849D01*
X108865767Y-125614846D01*
X108870749Y-125612523D01*
X108975846Y-125538933D01*
X109053789Y-125484357D01*
X109053792Y-125484355D01*
X109058300Y-125481198D01*
X109220198Y-125319300D01*
X109351523Y-125131749D01*
X109353846Y-125126767D01*
X109353849Y-125126762D01*
X109445961Y-124929225D01*
X109445961Y-124929224D01*
X109448284Y-124924243D01*
X109452194Y-124909652D01*
X109489147Y-124849031D01*
X109553009Y-124818011D01*
X109623503Y-124826442D01*
X109678249Y-124871646D01*
X109683019Y-124879267D01*
X109750960Y-124996944D01*
X109755378Y-125001851D01*
X109755379Y-125001852D01*
X109869654Y-125128767D01*
X109878747Y-125138866D01*
X110033248Y-125251118D01*
X110039276Y-125253802D01*
X110039278Y-125253803D01*
X110201681Y-125326109D01*
X110207712Y-125328794D01*
X110301113Y-125348647D01*
X110388056Y-125367128D01*
X110388061Y-125367128D01*
X110394513Y-125368500D01*
X110585487Y-125368500D01*
X110591939Y-125367128D01*
X110591944Y-125367128D01*
X110678887Y-125348647D01*
X110772288Y-125328794D01*
X110778319Y-125326109D01*
X110940722Y-125253803D01*
X110940724Y-125253802D01*
X110946752Y-125251118D01*
X111101253Y-125138866D01*
X111110346Y-125128767D01*
X111224621Y-125001852D01*
X111224622Y-125001851D01*
X111229040Y-124996944D01*
X111324527Y-124831556D01*
X111383542Y-124649928D01*
X111403504Y-124460000D01*
X111383542Y-124270072D01*
X111324527Y-124088444D01*
X111229040Y-123923056D01*
X111101253Y-123781134D01*
X110946752Y-123668882D01*
X110940724Y-123666198D01*
X110940722Y-123666197D01*
X110778319Y-123593891D01*
X110778318Y-123593891D01*
X110772288Y-123591206D01*
X110678888Y-123571353D01*
X110591944Y-123552872D01*
X110591939Y-123552872D01*
X110585487Y-123551500D01*
X110529595Y-123551500D01*
X110461474Y-123531498D01*
X110440499Y-123514595D01*
X110009404Y-123083499D01*
X109975379Y-123021187D01*
X109972500Y-122994404D01*
X109972500Y-118618000D01*
X112732502Y-118618000D01*
X112752457Y-118846087D01*
X112753881Y-118851400D01*
X112753881Y-118851402D01*
X112807467Y-119051384D01*
X112811716Y-119067243D01*
X112814039Y-119072224D01*
X112814039Y-119072225D01*
X112906151Y-119269762D01*
X112906154Y-119269767D01*
X112908477Y-119274749D01*
X112948365Y-119331715D01*
X113032798Y-119452297D01*
X113039802Y-119462300D01*
X113201700Y-119624198D01*
X113206208Y-119627355D01*
X113206211Y-119627357D01*
X113251729Y-119659229D01*
X113389251Y-119755523D01*
X113394233Y-119757846D01*
X113394238Y-119757849D01*
X113568125Y-119838933D01*
X113596757Y-119852284D01*
X113602065Y-119853706D01*
X113602067Y-119853707D01*
X113812598Y-119910119D01*
X113812600Y-119910119D01*
X113817913Y-119911543D01*
X114046000Y-119931498D01*
X114274087Y-119911543D01*
X114279400Y-119910119D01*
X114279402Y-119910119D01*
X114489933Y-119853707D01*
X114489935Y-119853706D01*
X114495243Y-119852284D01*
X114523875Y-119838933D01*
X114697762Y-119757849D01*
X114697767Y-119757846D01*
X114702749Y-119755523D01*
X114840271Y-119659229D01*
X114885789Y-119627357D01*
X114885792Y-119627355D01*
X114890300Y-119624198D01*
X115052198Y-119462300D01*
X115059203Y-119452297D01*
X115143635Y-119331715D01*
X115183523Y-119274749D01*
X115185846Y-119269767D01*
X115185849Y-119269762D01*
X115277961Y-119072225D01*
X115277961Y-119072224D01*
X115280284Y-119067243D01*
X115284534Y-119051384D01*
X115338119Y-118851402D01*
X115338119Y-118851400D01*
X115339543Y-118846087D01*
X115359498Y-118618000D01*
X115339543Y-118389913D01*
X115330820Y-118357357D01*
X115281707Y-118174067D01*
X115281706Y-118174065D01*
X115280284Y-118168757D01*
X115277618Y-118163039D01*
X115185849Y-117966238D01*
X115185846Y-117966233D01*
X115183523Y-117961251D01*
X115087844Y-117824607D01*
X115055357Y-117778211D01*
X115055355Y-117778208D01*
X115052198Y-117773700D01*
X114890300Y-117611802D01*
X114885792Y-117608645D01*
X114885789Y-117608643D01*
X114749875Y-117513475D01*
X114702749Y-117480477D01*
X114697767Y-117478154D01*
X114697762Y-117478151D01*
X114500225Y-117386039D01*
X114500224Y-117386039D01*
X114495243Y-117383716D01*
X114489935Y-117382294D01*
X114489933Y-117382293D01*
X114279402Y-117325881D01*
X114279400Y-117325881D01*
X114274087Y-117324457D01*
X114046000Y-117304502D01*
X113817913Y-117324457D01*
X113812600Y-117325881D01*
X113812598Y-117325881D01*
X113602067Y-117382293D01*
X113602065Y-117382294D01*
X113596757Y-117383716D01*
X113591776Y-117386039D01*
X113591775Y-117386039D01*
X113394238Y-117478151D01*
X113394233Y-117478154D01*
X113389251Y-117480477D01*
X113342125Y-117513475D01*
X113206211Y-117608643D01*
X113206208Y-117608645D01*
X113201700Y-117611802D01*
X113039802Y-117773700D01*
X113036645Y-117778208D01*
X113036643Y-117778211D01*
X113004156Y-117824607D01*
X112908477Y-117961251D01*
X112906154Y-117966233D01*
X112906151Y-117966238D01*
X112814382Y-118163039D01*
X112811716Y-118168757D01*
X112810294Y-118174065D01*
X112810293Y-118174067D01*
X112761180Y-118357357D01*
X112752457Y-118389913D01*
X112732502Y-118618000D01*
X109972500Y-118618000D01*
X109972500Y-114427000D01*
X111716502Y-114427000D01*
X111736457Y-114655087D01*
X111737881Y-114660400D01*
X111737881Y-114660402D01*
X111778159Y-114810718D01*
X111795716Y-114876243D01*
X111798039Y-114881224D01*
X111798039Y-114881225D01*
X111890151Y-115078762D01*
X111890154Y-115078767D01*
X111892477Y-115083749D01*
X112023802Y-115271300D01*
X112185700Y-115433198D01*
X112190208Y-115436355D01*
X112190211Y-115436357D01*
X112264773Y-115488566D01*
X112373251Y-115564523D01*
X112378233Y-115566846D01*
X112378238Y-115566849D01*
X112575775Y-115658961D01*
X112580757Y-115661284D01*
X112586065Y-115662706D01*
X112586067Y-115662707D01*
X112796598Y-115719119D01*
X112796600Y-115719119D01*
X112801913Y-115720543D01*
X113030000Y-115740498D01*
X113258087Y-115720543D01*
X113263400Y-115719119D01*
X113263402Y-115719119D01*
X113473933Y-115662707D01*
X113473935Y-115662706D01*
X113479243Y-115661284D01*
X113484225Y-115658961D01*
X113681762Y-115566849D01*
X113681767Y-115566846D01*
X113686749Y-115564523D01*
X113795227Y-115488566D01*
X113869789Y-115436357D01*
X113869792Y-115436355D01*
X113874300Y-115433198D01*
X114036198Y-115271300D01*
X114167523Y-115083749D01*
X114169846Y-115078767D01*
X114169849Y-115078762D01*
X114261961Y-114881225D01*
X114261961Y-114881224D01*
X114264284Y-114876243D01*
X114281842Y-114810718D01*
X114322119Y-114660402D01*
X114322119Y-114660400D01*
X114323543Y-114655087D01*
X114324022Y-114649611D01*
X114324023Y-114649606D01*
X114342251Y-114441250D01*
X114368114Y-114375131D01*
X114378677Y-114363136D01*
X115014832Y-113726981D01*
X115029865Y-113714140D01*
X115035913Y-113709746D01*
X115035914Y-113709745D01*
X115041253Y-113705866D01*
X115087016Y-113655041D01*
X115091557Y-113650256D01*
X115106072Y-113635741D01*
X115118994Y-113619784D01*
X115123278Y-113614769D01*
X115164619Y-113568855D01*
X115164623Y-113568850D01*
X115169040Y-113563944D01*
X115172340Y-113558228D01*
X115172343Y-113558224D01*
X115176073Y-113551763D01*
X115187273Y-113535466D01*
X115191975Y-113529660D01*
X115191976Y-113529658D01*
X115196129Y-113524530D01*
X115227186Y-113463577D01*
X115230333Y-113457782D01*
X115261223Y-113404279D01*
X115261224Y-113404278D01*
X115264527Y-113398556D01*
X115268875Y-113385173D01*
X115276441Y-113366907D01*
X115282829Y-113354370D01*
X115300533Y-113288299D01*
X115302400Y-113281997D01*
X115323542Y-113216928D01*
X115324232Y-113210363D01*
X115324234Y-113210354D01*
X115325015Y-113202925D01*
X115328617Y-113183491D01*
X115330547Y-113176286D01*
X115330547Y-113176284D01*
X115332257Y-113169903D01*
X115332663Y-113162168D01*
X115335836Y-113101616D01*
X115336353Y-113095042D01*
X115338156Y-113077884D01*
X115338156Y-113077882D01*
X115338500Y-113074610D01*
X115338500Y-113054074D01*
X115338673Y-113047480D01*
X115341907Y-112985782D01*
X115341907Y-112985777D01*
X115342252Y-112979190D01*
X115340051Y-112965292D01*
X115338500Y-112945583D01*
X115338500Y-112146726D01*
X115358502Y-112078605D01*
X115412158Y-112032112D01*
X115482432Y-112022008D01*
X115547012Y-112051502D01*
X115586207Y-112114113D01*
X115615716Y-112224243D01*
X115618039Y-112229224D01*
X115618039Y-112229225D01*
X115710151Y-112426762D01*
X115710154Y-112426767D01*
X115712477Y-112431749D01*
X115736681Y-112466316D01*
X115837214Y-112609891D01*
X115843802Y-112619300D01*
X116005700Y-112781198D01*
X116010208Y-112784355D01*
X116010211Y-112784357D01*
X116072300Y-112827832D01*
X116193251Y-112912523D01*
X116198233Y-112914846D01*
X116198238Y-112914849D01*
X116358499Y-112989579D01*
X116400757Y-113009284D01*
X116406065Y-113010706D01*
X116406067Y-113010707D01*
X116616598Y-113067119D01*
X116616600Y-113067119D01*
X116621913Y-113068543D01*
X116850000Y-113088498D01*
X117078087Y-113068543D01*
X117083400Y-113067119D01*
X117083402Y-113067119D01*
X117293933Y-113010707D01*
X117293935Y-113010706D01*
X117299243Y-113009284D01*
X117341501Y-112989579D01*
X117501762Y-112914849D01*
X117501767Y-112914846D01*
X117506749Y-112912523D01*
X117627700Y-112827832D01*
X117689789Y-112784357D01*
X117689792Y-112784355D01*
X117694300Y-112781198D01*
X117856198Y-112619300D01*
X117862787Y-112609891D01*
X117963319Y-112466316D01*
X117987523Y-112431749D01*
X117989846Y-112426767D01*
X117989849Y-112426762D01*
X118081961Y-112229225D01*
X118081961Y-112229224D01*
X118084284Y-112224243D01*
X118126541Y-112066541D01*
X118142119Y-112008402D01*
X118142120Y-112008398D01*
X118143543Y-112003087D01*
X118163498Y-111775000D01*
X118143543Y-111546913D01*
X118084284Y-111325757D01*
X118000812Y-111146749D01*
X117989849Y-111123238D01*
X117989846Y-111123233D01*
X117987523Y-111118251D01*
X117914098Y-111013389D01*
X117859357Y-110935211D01*
X117859355Y-110935208D01*
X117856198Y-110930700D01*
X117694300Y-110768802D01*
X117689792Y-110765645D01*
X117689789Y-110765643D01*
X117611611Y-110710902D01*
X117506749Y-110637477D01*
X117501767Y-110635154D01*
X117501762Y-110635151D01*
X117467543Y-110619195D01*
X117414258Y-110572278D01*
X117394797Y-110504001D01*
X117415339Y-110436041D01*
X117467543Y-110390805D01*
X117501762Y-110374849D01*
X117501767Y-110374846D01*
X117506749Y-110372523D01*
X117656890Y-110267393D01*
X117689789Y-110244357D01*
X117689792Y-110244355D01*
X117694300Y-110241198D01*
X117856198Y-110079300D01*
X117987523Y-109891749D01*
X117989846Y-109886767D01*
X117989849Y-109886762D01*
X118081961Y-109689225D01*
X118081961Y-109689224D01*
X118084284Y-109684243D01*
X118092097Y-109655087D01*
X118142119Y-109468402D01*
X118142119Y-109468400D01*
X118143543Y-109463087D01*
X118163498Y-109235000D01*
X118143543Y-109006913D01*
X118138349Y-108987530D01*
X118085707Y-108791067D01*
X118085706Y-108791064D01*
X118084284Y-108785757D01*
X118079379Y-108775238D01*
X117989849Y-108583238D01*
X117989846Y-108583233D01*
X117987523Y-108578251D01*
X117914098Y-108473389D01*
X117859357Y-108395211D01*
X117859355Y-108395208D01*
X117856198Y-108390700D01*
X117694300Y-108228802D01*
X117689792Y-108225645D01*
X117689789Y-108225643D01*
X117611611Y-108170902D01*
X117506749Y-108097477D01*
X117501767Y-108095154D01*
X117501762Y-108095151D01*
X117467543Y-108079195D01*
X117414258Y-108032278D01*
X117394797Y-107964001D01*
X117415339Y-107896041D01*
X117467543Y-107850805D01*
X117501762Y-107834849D01*
X117501767Y-107834846D01*
X117506749Y-107832523D01*
X117648458Y-107733297D01*
X117689789Y-107704357D01*
X117689792Y-107704355D01*
X117694300Y-107701198D01*
X117856198Y-107539300D01*
X117863973Y-107528197D01*
X117946310Y-107410607D01*
X117987523Y-107351749D01*
X117989846Y-107346767D01*
X117989849Y-107346762D01*
X118081961Y-107149225D01*
X118081961Y-107149224D01*
X118084284Y-107144243D01*
X118086969Y-107134225D01*
X118142119Y-106928402D01*
X118142119Y-106928400D01*
X118143543Y-106923087D01*
X118163498Y-106695000D01*
X118143543Y-106466913D01*
X118130037Y-106416508D01*
X118085707Y-106251067D01*
X118085706Y-106251064D01*
X118084284Y-106245757D01*
X118079766Y-106236067D01*
X117989849Y-106043238D01*
X117989846Y-106043233D01*
X117987523Y-106038251D01*
X117886502Y-105893978D01*
X117859357Y-105855211D01*
X117859355Y-105855208D01*
X117856198Y-105850700D01*
X117694300Y-105688802D01*
X117689792Y-105685645D01*
X117689789Y-105685643D01*
X117556958Y-105592634D01*
X117506749Y-105557477D01*
X117501767Y-105555154D01*
X117501762Y-105555151D01*
X117467543Y-105539195D01*
X117414258Y-105492278D01*
X117394797Y-105424001D01*
X117415339Y-105356041D01*
X117467543Y-105310805D01*
X117501762Y-105294849D01*
X117501767Y-105294846D01*
X117506749Y-105292523D01*
X117649315Y-105192697D01*
X117689789Y-105164357D01*
X117689792Y-105164355D01*
X117694300Y-105161198D01*
X117856198Y-104999300D01*
X117861911Y-104991142D01*
X117933685Y-104888637D01*
X117987523Y-104811749D01*
X117989846Y-104806767D01*
X117989849Y-104806762D01*
X118081961Y-104609225D01*
X118081961Y-104609224D01*
X118084284Y-104604243D01*
X118107502Y-104517595D01*
X118142119Y-104388402D01*
X118142120Y-104388398D01*
X118143543Y-104383087D01*
X118163498Y-104155000D01*
X118143543Y-103926913D01*
X118084284Y-103705757D01*
X118081961Y-103700775D01*
X117989849Y-103503238D01*
X117989846Y-103503233D01*
X117987523Y-103498251D01*
X117856198Y-103310700D01*
X117694300Y-103148802D01*
X117689792Y-103145645D01*
X117689789Y-103145643D01*
X117538942Y-103040019D01*
X117506749Y-103017477D01*
X117501767Y-103015154D01*
X117501762Y-103015151D01*
X117467543Y-102999195D01*
X117414258Y-102952278D01*
X117394797Y-102884001D01*
X117415339Y-102816041D01*
X117467543Y-102770805D01*
X117501762Y-102754849D01*
X117501767Y-102754846D01*
X117506749Y-102752523D01*
X117611611Y-102679098D01*
X117689789Y-102624357D01*
X117689792Y-102624355D01*
X117694300Y-102621198D01*
X117856198Y-102459300D01*
X117987523Y-102271749D01*
X117989846Y-102266767D01*
X117989849Y-102266762D01*
X118081961Y-102069225D01*
X118081961Y-102069224D01*
X118084284Y-102064243D01*
X118091932Y-102035703D01*
X118142119Y-101848402D01*
X118142119Y-101848400D01*
X118143543Y-101843087D01*
X118163498Y-101615000D01*
X118143543Y-101386913D01*
X118123979Y-101313898D01*
X118085707Y-101171067D01*
X118085706Y-101171064D01*
X118084284Y-101165757D01*
X118022157Y-101032524D01*
X117989849Y-100963238D01*
X117989846Y-100963233D01*
X117987523Y-100958251D01*
X117856198Y-100770700D01*
X117694300Y-100608802D01*
X117689792Y-100605645D01*
X117689789Y-100605643D01*
X117528512Y-100492716D01*
X117506749Y-100477477D01*
X117501767Y-100475154D01*
X117501762Y-100475151D01*
X117467543Y-100459195D01*
X117414258Y-100412278D01*
X117394797Y-100344001D01*
X117415339Y-100276041D01*
X117467543Y-100230805D01*
X117501762Y-100214849D01*
X117501767Y-100214846D01*
X117506749Y-100212523D01*
X117673302Y-100095901D01*
X117689789Y-100084357D01*
X117689792Y-100084355D01*
X117694300Y-100081198D01*
X117856198Y-99919300D01*
X117987523Y-99731749D01*
X117989846Y-99726767D01*
X117989849Y-99726762D01*
X118081961Y-99529225D01*
X118081961Y-99529224D01*
X118084284Y-99524243D01*
X118097687Y-99474225D01*
X118142119Y-99308402D01*
X118142119Y-99308400D01*
X118143543Y-99303087D01*
X118163498Y-99075000D01*
X118143543Y-98846913D01*
X118084284Y-98625757D01*
X118081961Y-98620775D01*
X117989849Y-98423238D01*
X117989846Y-98423233D01*
X117987523Y-98418251D01*
X117914098Y-98313389D01*
X117859357Y-98235211D01*
X117859355Y-98235208D01*
X117856198Y-98230700D01*
X117694300Y-98068802D01*
X117689792Y-98065645D01*
X117689789Y-98065643D01*
X117611241Y-98010643D01*
X117506749Y-97937477D01*
X117501767Y-97935154D01*
X117501762Y-97935151D01*
X117467543Y-97919195D01*
X117414258Y-97872278D01*
X117394797Y-97804001D01*
X117415339Y-97736041D01*
X117467543Y-97690805D01*
X117501762Y-97674849D01*
X117501767Y-97674846D01*
X117506749Y-97672523D01*
X117672307Y-97556598D01*
X117689789Y-97544357D01*
X117689792Y-97544355D01*
X117694300Y-97541198D01*
X117856198Y-97379300D01*
X117987523Y-97191749D01*
X117989846Y-97186767D01*
X117989849Y-97186762D01*
X118081961Y-96989225D01*
X118081961Y-96989224D01*
X118084284Y-96984243D01*
X118114793Y-96870385D01*
X118142119Y-96768402D01*
X118142119Y-96768400D01*
X118143543Y-96763087D01*
X118163498Y-96535000D01*
X118143543Y-96306913D01*
X118142119Y-96301598D01*
X118142118Y-96301591D01*
X118126541Y-96243459D01*
X118128230Y-96172483D01*
X118159152Y-96121752D01*
X118542247Y-95738657D01*
X118550537Y-95731113D01*
X118557018Y-95727000D01*
X118603659Y-95677332D01*
X118606413Y-95674491D01*
X118626135Y-95654769D01*
X118628612Y-95651576D01*
X118636317Y-95642555D01*
X118661159Y-95616100D01*
X118666586Y-95610321D01*
X118670407Y-95603371D01*
X118676346Y-95592568D01*
X118687202Y-95576041D01*
X118694757Y-95566302D01*
X118694758Y-95566300D01*
X118699614Y-95560040D01*
X118717174Y-95519460D01*
X118722391Y-95508812D01*
X118739875Y-95477009D01*
X118739876Y-95477007D01*
X118743695Y-95470060D01*
X118748733Y-95450437D01*
X118755137Y-95431734D01*
X118760033Y-95420420D01*
X118760033Y-95420419D01*
X118763181Y-95413145D01*
X118764420Y-95405322D01*
X118764423Y-95405312D01*
X118770099Y-95369476D01*
X118772505Y-95357856D01*
X118781528Y-95322711D01*
X118781528Y-95322710D01*
X118783500Y-95315030D01*
X118783500Y-95294776D01*
X118785051Y-95275065D01*
X118786980Y-95262886D01*
X118788220Y-95255057D01*
X118784059Y-95211038D01*
X118783500Y-95199181D01*
X118783500Y-94367191D01*
X121437749Y-94367191D01*
X121438094Y-94373778D01*
X121438094Y-94373783D01*
X121441328Y-94435481D01*
X121441501Y-94442075D01*
X121441501Y-94462611D01*
X121441845Y-94465883D01*
X121441845Y-94465885D01*
X121443648Y-94483043D01*
X121444165Y-94489617D01*
X121447744Y-94557904D01*
X121449454Y-94564285D01*
X121449454Y-94564287D01*
X121451384Y-94571492D01*
X121454986Y-94590926D01*
X121455767Y-94598355D01*
X121455769Y-94598364D01*
X121456459Y-94604929D01*
X121477601Y-94669998D01*
X121479468Y-94676300D01*
X121497172Y-94742371D01*
X121503560Y-94754908D01*
X121511126Y-94773174D01*
X121515474Y-94786557D01*
X121518777Y-94792279D01*
X121518778Y-94792280D01*
X121549668Y-94845783D01*
X121552815Y-94851578D01*
X121583872Y-94912531D01*
X121588025Y-94917659D01*
X121588026Y-94917661D01*
X121592728Y-94923467D01*
X121603928Y-94939764D01*
X121607658Y-94946225D01*
X121607661Y-94946229D01*
X121610961Y-94951945D01*
X121615378Y-94956851D01*
X121615382Y-94956856D01*
X121656723Y-95002770D01*
X121661007Y-95007785D01*
X121673929Y-95023742D01*
X121688444Y-95038257D01*
X121692985Y-95043042D01*
X121738748Y-95093867D01*
X121744087Y-95097746D01*
X121744088Y-95097747D01*
X121750136Y-95102141D01*
X121765169Y-95114982D01*
X123121323Y-96471136D01*
X123155349Y-96533448D01*
X123157748Y-96549246D01*
X123158518Y-96558039D01*
X123175977Y-96757606D01*
X123175978Y-96757611D01*
X123176457Y-96763087D01*
X123177881Y-96768400D01*
X123177881Y-96768402D01*
X123205208Y-96870385D01*
X123235716Y-96984243D01*
X123238039Y-96989224D01*
X123238039Y-96989225D01*
X123330151Y-97186762D01*
X123330154Y-97186767D01*
X123332477Y-97191749D01*
X123463802Y-97379300D01*
X123625700Y-97541198D01*
X123630208Y-97544355D01*
X123630211Y-97544357D01*
X123647693Y-97556598D01*
X123813251Y-97672523D01*
X123818233Y-97674846D01*
X123818238Y-97674849D01*
X123852457Y-97690805D01*
X123905742Y-97737722D01*
X123925203Y-97805999D01*
X123904661Y-97873959D01*
X123852457Y-97919195D01*
X123818238Y-97935151D01*
X123818233Y-97935154D01*
X123813251Y-97937477D01*
X123708759Y-98010643D01*
X123630211Y-98065643D01*
X123630208Y-98065645D01*
X123625700Y-98068802D01*
X123463802Y-98230700D01*
X123460645Y-98235208D01*
X123460643Y-98235211D01*
X123405902Y-98313389D01*
X123332477Y-98418251D01*
X123330154Y-98423233D01*
X123330151Y-98423238D01*
X123238039Y-98620775D01*
X123235716Y-98625757D01*
X123176457Y-98846913D01*
X123156502Y-99075000D01*
X123176457Y-99303087D01*
X123177880Y-99308398D01*
X123177882Y-99308409D01*
X123202866Y-99401647D01*
X123201177Y-99472624D01*
X123161384Y-99531420D01*
X123096119Y-99559368D01*
X123026106Y-99547595D01*
X123018160Y-99543378D01*
X123017090Y-99542760D01*
X123011752Y-99538882D01*
X123005722Y-99536197D01*
X122843319Y-99463891D01*
X122843318Y-99463891D01*
X122837288Y-99461206D01*
X122743887Y-99441353D01*
X122656944Y-99422872D01*
X122656939Y-99422872D01*
X122650487Y-99421500D01*
X122459513Y-99421500D01*
X122453061Y-99422872D01*
X122453056Y-99422872D01*
X122366113Y-99441353D01*
X122272712Y-99461206D01*
X122266682Y-99463891D01*
X122266681Y-99463891D01*
X122104278Y-99536197D01*
X122104276Y-99536198D01*
X122098248Y-99538882D01*
X122092907Y-99542762D01*
X122092906Y-99542763D01*
X122042843Y-99579136D01*
X121943747Y-99651134D01*
X121815960Y-99793056D01*
X121720473Y-99958444D01*
X121661458Y-100140072D01*
X121660768Y-100146633D01*
X121660768Y-100146635D01*
X121654175Y-100209366D01*
X121641496Y-100330000D01*
X121642186Y-100336564D01*
X121642186Y-100336565D01*
X121645019Y-100363515D01*
X121661458Y-100519928D01*
X121720473Y-100701556D01*
X121815960Y-100866944D01*
X121889137Y-100948215D01*
X121919853Y-101012221D01*
X121921500Y-101032524D01*
X121921500Y-104701233D01*
X121920973Y-104712416D01*
X121919298Y-104719909D01*
X121919547Y-104727835D01*
X121919547Y-104727836D01*
X121921438Y-104787986D01*
X121921500Y-104791945D01*
X121921500Y-104819856D01*
X121921997Y-104823790D01*
X121921997Y-104823791D01*
X121922005Y-104823856D01*
X121922938Y-104835693D01*
X121924327Y-104879889D01*
X121928850Y-104895457D01*
X121929978Y-104899339D01*
X121933987Y-104918700D01*
X121936526Y-104938797D01*
X121939445Y-104946168D01*
X121939445Y-104946170D01*
X121952804Y-104979912D01*
X121956649Y-104991142D01*
X121968982Y-105033593D01*
X121973015Y-105040412D01*
X121973017Y-105040417D01*
X121979293Y-105051028D01*
X121987988Y-105068776D01*
X121995448Y-105087617D01*
X122000110Y-105094033D01*
X122000110Y-105094034D01*
X122021436Y-105123387D01*
X122027952Y-105133307D01*
X122044128Y-105160658D01*
X122050458Y-105171362D01*
X122064779Y-105185683D01*
X122077619Y-105200716D01*
X122089528Y-105217107D01*
X122095634Y-105222158D01*
X122123605Y-105245298D01*
X122132384Y-105253288D01*
X123160848Y-106281752D01*
X123194874Y-106344064D01*
X123193459Y-106403459D01*
X123177882Y-106461591D01*
X123177881Y-106461598D01*
X123176457Y-106466913D01*
X123156502Y-106695000D01*
X123176457Y-106923087D01*
X123177881Y-106928400D01*
X123177881Y-106928402D01*
X123233032Y-107134225D01*
X123235716Y-107144243D01*
X123238039Y-107149224D01*
X123238039Y-107149225D01*
X123330151Y-107346762D01*
X123330154Y-107346767D01*
X123332477Y-107351749D01*
X123373690Y-107410607D01*
X123456028Y-107528197D01*
X123463802Y-107539300D01*
X123625700Y-107701198D01*
X123630208Y-107704355D01*
X123630211Y-107704357D01*
X123671542Y-107733297D01*
X123813251Y-107832523D01*
X123818233Y-107834846D01*
X123818238Y-107834849D01*
X123852457Y-107850805D01*
X123905742Y-107897722D01*
X123925203Y-107965999D01*
X123904661Y-108033959D01*
X123852457Y-108079195D01*
X123818238Y-108095151D01*
X123818233Y-108095154D01*
X123813251Y-108097477D01*
X123708389Y-108170902D01*
X123630211Y-108225643D01*
X123630208Y-108225645D01*
X123625700Y-108228802D01*
X123463802Y-108390700D01*
X123460645Y-108395208D01*
X123460643Y-108395211D01*
X123405902Y-108473389D01*
X123332477Y-108578251D01*
X123330154Y-108583233D01*
X123330151Y-108583238D01*
X123240621Y-108775238D01*
X123235716Y-108785757D01*
X123234294Y-108791064D01*
X123234293Y-108791067D01*
X123181651Y-108987530D01*
X123176457Y-109006913D01*
X123156502Y-109235000D01*
X123176457Y-109463087D01*
X123177881Y-109468400D01*
X123177881Y-109468402D01*
X123227904Y-109655087D01*
X123235716Y-109684243D01*
X123238039Y-109689224D01*
X123238039Y-109689225D01*
X123330151Y-109886762D01*
X123330154Y-109886767D01*
X123332477Y-109891749D01*
X123463802Y-110079300D01*
X123625700Y-110241198D01*
X123630208Y-110244355D01*
X123630211Y-110244357D01*
X123663110Y-110267393D01*
X123813251Y-110372523D01*
X123818233Y-110374846D01*
X123818238Y-110374849D01*
X123852457Y-110390805D01*
X123905742Y-110437722D01*
X123925203Y-110505999D01*
X123904661Y-110573959D01*
X123852457Y-110619195D01*
X123818238Y-110635151D01*
X123818233Y-110635154D01*
X123813251Y-110637477D01*
X123708389Y-110710902D01*
X123630211Y-110765643D01*
X123630208Y-110765645D01*
X123625700Y-110768802D01*
X123463802Y-110930700D01*
X123460645Y-110935208D01*
X123460643Y-110935211D01*
X123405902Y-111013389D01*
X123332477Y-111118251D01*
X123330154Y-111123233D01*
X123330151Y-111123238D01*
X123319188Y-111146749D01*
X123235716Y-111325757D01*
X123176457Y-111546913D01*
X123156502Y-111775000D01*
X123176457Y-112003087D01*
X123177880Y-112008398D01*
X123177881Y-112008402D01*
X123193460Y-112066541D01*
X123235716Y-112224243D01*
X123238039Y-112229224D01*
X123238039Y-112229225D01*
X123330151Y-112426762D01*
X123330154Y-112426767D01*
X123332477Y-112431749D01*
X123356681Y-112466316D01*
X123457214Y-112609891D01*
X123463802Y-112619300D01*
X123625700Y-112781198D01*
X123630208Y-112784355D01*
X123630211Y-112784357D01*
X123692300Y-112827832D01*
X123813251Y-112912523D01*
X123818233Y-112914846D01*
X123818238Y-112914849D01*
X123978499Y-112989579D01*
X124020757Y-113009284D01*
X124026065Y-113010706D01*
X124026067Y-113010707D01*
X124236598Y-113067119D01*
X124236600Y-113067119D01*
X124241913Y-113068543D01*
X124470000Y-113088498D01*
X124698087Y-113068543D01*
X124802890Y-113040461D01*
X124873865Y-113042151D01*
X124932661Y-113081945D01*
X124960609Y-113147209D01*
X124961500Y-113162168D01*
X124961500Y-116914406D01*
X124941498Y-116982527D01*
X124924595Y-117003501D01*
X124619248Y-117308848D01*
X124556936Y-117342874D01*
X124497541Y-117341459D01*
X124439409Y-117325882D01*
X124439398Y-117325880D01*
X124434087Y-117324457D01*
X124206000Y-117304502D01*
X123977913Y-117324457D01*
X123972600Y-117325881D01*
X123972598Y-117325881D01*
X123762067Y-117382293D01*
X123762065Y-117382294D01*
X123756757Y-117383716D01*
X123751776Y-117386039D01*
X123751775Y-117386039D01*
X123554238Y-117478151D01*
X123554233Y-117478154D01*
X123549251Y-117480477D01*
X123502125Y-117513475D01*
X123366211Y-117608643D01*
X123366208Y-117608645D01*
X123361700Y-117611802D01*
X123199802Y-117773700D01*
X123196645Y-117778208D01*
X123196643Y-117778211D01*
X123164156Y-117824607D01*
X123068477Y-117961251D01*
X123066154Y-117966233D01*
X123066151Y-117966238D01*
X122974382Y-118163039D01*
X122971716Y-118168757D01*
X122970294Y-118174065D01*
X122970293Y-118174067D01*
X122921180Y-118357357D01*
X122912457Y-118389913D01*
X122892502Y-118618000D01*
X122912457Y-118846087D01*
X122913881Y-118851400D01*
X122913881Y-118851402D01*
X122967467Y-119051384D01*
X122971716Y-119067243D01*
X122974039Y-119072224D01*
X122974039Y-119072225D01*
X123066151Y-119269762D01*
X123066154Y-119269767D01*
X123068477Y-119274749D01*
X123108365Y-119331715D01*
X123192798Y-119452297D01*
X123199802Y-119462300D01*
X123361700Y-119624198D01*
X123366208Y-119627355D01*
X123366211Y-119627357D01*
X123411729Y-119659229D01*
X123549251Y-119755523D01*
X123554233Y-119757846D01*
X123554238Y-119757849D01*
X123728125Y-119838933D01*
X123756757Y-119852284D01*
X123762065Y-119853706D01*
X123762067Y-119853707D01*
X123972598Y-119910119D01*
X123972600Y-119910119D01*
X123977913Y-119911543D01*
X124206000Y-119931498D01*
X124434087Y-119911543D01*
X124439400Y-119910119D01*
X124439402Y-119910119D01*
X124649933Y-119853707D01*
X124649935Y-119853706D01*
X124655243Y-119852284D01*
X124683875Y-119838933D01*
X124857762Y-119757849D01*
X124857767Y-119757846D01*
X124862749Y-119755523D01*
X125000271Y-119659229D01*
X125045789Y-119627357D01*
X125045792Y-119627355D01*
X125050300Y-119624198D01*
X125212198Y-119462300D01*
X125219203Y-119452297D01*
X125303635Y-119331715D01*
X125343523Y-119274749D01*
X125345846Y-119269767D01*
X125345849Y-119269762D01*
X125437961Y-119072225D01*
X125437961Y-119072224D01*
X125440284Y-119067243D01*
X125444534Y-119051384D01*
X125498119Y-118851402D01*
X125498119Y-118851400D01*
X125499543Y-118846087D01*
X125519498Y-118618000D01*
X125499543Y-118389913D01*
X125498119Y-118384598D01*
X125498118Y-118384591D01*
X125482541Y-118326459D01*
X125484230Y-118255483D01*
X125515152Y-118204752D01*
X125987247Y-117732657D01*
X125995537Y-117725113D01*
X126002018Y-117721000D01*
X126048659Y-117671332D01*
X126051413Y-117668491D01*
X126071135Y-117648769D01*
X126073612Y-117645576D01*
X126081317Y-117636555D01*
X126111586Y-117604321D01*
X126115872Y-117596525D01*
X126121346Y-117586568D01*
X126132202Y-117570041D01*
X126139757Y-117560302D01*
X126139758Y-117560300D01*
X126144614Y-117554040D01*
X126162174Y-117513460D01*
X126167391Y-117502812D01*
X126184875Y-117471009D01*
X126184876Y-117471007D01*
X126188695Y-117464060D01*
X126193733Y-117444437D01*
X126200137Y-117425734D01*
X126205033Y-117414420D01*
X126205033Y-117414419D01*
X126208181Y-117407145D01*
X126209420Y-117399322D01*
X126209423Y-117399312D01*
X126215099Y-117363476D01*
X126217505Y-117351856D01*
X126226528Y-117316711D01*
X126226528Y-117316710D01*
X126228500Y-117309030D01*
X126228500Y-117288776D01*
X126230051Y-117269065D01*
X126231980Y-117256886D01*
X126233220Y-117249057D01*
X126229059Y-117205038D01*
X126228500Y-117193181D01*
X126228500Y-107188000D01*
X128607502Y-107188000D01*
X128627457Y-107416087D01*
X128628881Y-107421400D01*
X128628881Y-107421402D01*
X128662410Y-107546531D01*
X128686716Y-107637243D01*
X128689039Y-107642224D01*
X128689039Y-107642225D01*
X128781151Y-107839762D01*
X128781154Y-107839767D01*
X128783477Y-107844749D01*
X128842669Y-107929284D01*
X128906570Y-108020543D01*
X128914802Y-108032300D01*
X129076700Y-108194198D01*
X129081208Y-108197355D01*
X129081211Y-108197357D01*
X129121608Y-108225643D01*
X129264251Y-108325523D01*
X129269233Y-108327846D01*
X129269238Y-108327849D01*
X129461804Y-108417643D01*
X129471757Y-108422284D01*
X129477065Y-108423706D01*
X129477067Y-108423707D01*
X129687598Y-108480119D01*
X129687600Y-108480119D01*
X129692913Y-108481543D01*
X129921000Y-108501498D01*
X130149087Y-108481543D01*
X130154400Y-108480119D01*
X130154402Y-108480119D01*
X130364933Y-108423707D01*
X130364935Y-108423706D01*
X130370243Y-108422284D01*
X130380196Y-108417643D01*
X130572762Y-108327849D01*
X130572767Y-108327846D01*
X130577749Y-108325523D01*
X130720392Y-108225643D01*
X130760789Y-108197357D01*
X130760792Y-108197355D01*
X130765300Y-108194198D01*
X130927198Y-108032300D01*
X130935431Y-108020543D01*
X130999331Y-107929284D01*
X131058523Y-107844749D01*
X131060846Y-107839767D01*
X131060849Y-107839762D01*
X131152961Y-107642225D01*
X131152961Y-107642224D01*
X131155284Y-107637243D01*
X131179591Y-107546531D01*
X131213119Y-107421402D01*
X131213119Y-107421400D01*
X131214543Y-107416087D01*
X131234498Y-107188000D01*
X131214543Y-106959913D01*
X131212453Y-106952112D01*
X131156707Y-106744067D01*
X131156706Y-106744065D01*
X131155284Y-106738757D01*
X131132327Y-106689525D01*
X131060849Y-106536238D01*
X131060846Y-106536233D01*
X131058523Y-106531251D01*
X130927198Y-106343700D01*
X130765300Y-106181802D01*
X130760792Y-106178645D01*
X130760789Y-106178643D01*
X130599551Y-106065743D01*
X130577749Y-106050477D01*
X130572767Y-106048154D01*
X130572762Y-106048151D01*
X130375225Y-105956039D01*
X130375224Y-105956039D01*
X130370243Y-105953716D01*
X130364935Y-105952294D01*
X130364933Y-105952293D01*
X130154402Y-105895881D01*
X130154400Y-105895881D01*
X130149087Y-105894457D01*
X129921000Y-105874502D01*
X129692913Y-105894457D01*
X129687600Y-105895881D01*
X129687598Y-105895881D01*
X129477067Y-105952293D01*
X129477065Y-105952294D01*
X129471757Y-105953716D01*
X129466776Y-105956039D01*
X129466775Y-105956039D01*
X129269238Y-106048151D01*
X129269233Y-106048154D01*
X129264251Y-106050477D01*
X129242449Y-106065743D01*
X129081211Y-106178643D01*
X129081208Y-106178645D01*
X129076700Y-106181802D01*
X128914802Y-106343700D01*
X128783477Y-106531251D01*
X128781154Y-106536233D01*
X128781151Y-106536238D01*
X128709673Y-106689525D01*
X128686716Y-106738757D01*
X128685294Y-106744065D01*
X128685293Y-106744067D01*
X128629547Y-106952112D01*
X128627457Y-106959913D01*
X128607502Y-107188000D01*
X126228500Y-107188000D01*
X126228500Y-105358767D01*
X126229027Y-105347584D01*
X126230702Y-105340091D01*
X126229782Y-105310805D01*
X126228562Y-105272014D01*
X126228500Y-105268055D01*
X126228500Y-105240144D01*
X126227995Y-105236144D01*
X126227062Y-105224301D01*
X126226635Y-105210694D01*
X126225673Y-105180110D01*
X126220022Y-105160658D01*
X126216014Y-105141306D01*
X126214467Y-105129063D01*
X126213474Y-105121203D01*
X126210556Y-105113832D01*
X126197200Y-105080097D01*
X126193355Y-105068870D01*
X126185088Y-105040417D01*
X126181018Y-105026407D01*
X126176984Y-105019585D01*
X126176981Y-105019579D01*
X126170706Y-105008968D01*
X126162010Y-104991218D01*
X126157472Y-104979756D01*
X126157469Y-104979751D01*
X126154552Y-104972383D01*
X126141901Y-104954970D01*
X126128573Y-104936625D01*
X126122057Y-104926707D01*
X126103575Y-104895457D01*
X126099542Y-104888637D01*
X126085218Y-104874313D01*
X126072376Y-104859278D01*
X126060472Y-104842893D01*
X126026406Y-104814711D01*
X126017627Y-104806722D01*
X125779152Y-104568247D01*
X125745126Y-104505935D01*
X125746540Y-104446541D01*
X125750570Y-104431502D01*
X125763543Y-104383087D01*
X125783498Y-104155000D01*
X125771874Y-104022134D01*
X128689500Y-104022134D01*
X128696255Y-104084316D01*
X128747385Y-104220705D01*
X128834739Y-104337261D01*
X128951295Y-104424615D01*
X129087684Y-104475745D01*
X129149866Y-104482500D01*
X130946134Y-104482500D01*
X131008316Y-104475745D01*
X131144705Y-104424615D01*
X131261261Y-104337261D01*
X131348615Y-104220705D01*
X131399745Y-104084316D01*
X131406500Y-104022134D01*
X131406500Y-102225866D01*
X131399745Y-102163684D01*
X131348615Y-102027295D01*
X131261261Y-101910739D01*
X131144705Y-101823385D01*
X131008316Y-101772255D01*
X130946134Y-101765500D01*
X129149866Y-101765500D01*
X129087684Y-101772255D01*
X128951295Y-101823385D01*
X128834739Y-101910739D01*
X128747385Y-102027295D01*
X128696255Y-102163684D01*
X128689500Y-102225866D01*
X128689500Y-104022134D01*
X125771874Y-104022134D01*
X125763543Y-103926913D01*
X125704284Y-103705757D01*
X125701961Y-103700775D01*
X125609849Y-103503238D01*
X125609846Y-103503233D01*
X125607523Y-103498251D01*
X125476198Y-103310700D01*
X125314300Y-103148802D01*
X125309792Y-103145645D01*
X125309789Y-103145643D01*
X125158942Y-103040019D01*
X125126749Y-103017477D01*
X125121767Y-103015154D01*
X125121762Y-103015151D01*
X125087543Y-102999195D01*
X125034258Y-102952278D01*
X125014797Y-102884001D01*
X125035339Y-102816041D01*
X125087543Y-102770805D01*
X125121762Y-102754849D01*
X125121767Y-102754846D01*
X125126749Y-102752523D01*
X125231611Y-102679098D01*
X125309789Y-102624357D01*
X125309792Y-102624355D01*
X125314300Y-102621198D01*
X125476198Y-102459300D01*
X125607523Y-102271749D01*
X125609846Y-102266767D01*
X125609849Y-102266762D01*
X125701961Y-102069225D01*
X125701961Y-102069224D01*
X125704284Y-102064243D01*
X125711932Y-102035703D01*
X125762119Y-101848402D01*
X125762119Y-101848400D01*
X125763543Y-101843087D01*
X125783498Y-101615000D01*
X125763543Y-101386913D01*
X125743979Y-101313898D01*
X125705707Y-101171067D01*
X125705706Y-101171064D01*
X125704284Y-101165757D01*
X125642157Y-101032524D01*
X125609849Y-100963238D01*
X125609846Y-100963233D01*
X125607523Y-100958251D01*
X125476198Y-100770700D01*
X125314300Y-100608802D01*
X125309792Y-100605645D01*
X125309789Y-100605643D01*
X125148512Y-100492716D01*
X125126749Y-100477477D01*
X125121767Y-100475154D01*
X125121762Y-100475151D01*
X125087543Y-100459195D01*
X125034258Y-100412278D01*
X125014797Y-100344001D01*
X125035339Y-100276041D01*
X125087543Y-100230805D01*
X125121762Y-100214849D01*
X125121767Y-100214846D01*
X125126749Y-100212523D01*
X125293302Y-100095901D01*
X125309789Y-100084357D01*
X125309792Y-100084355D01*
X125314300Y-100081198D01*
X125476198Y-99919300D01*
X125607523Y-99731749D01*
X125609846Y-99726767D01*
X125609849Y-99726762D01*
X125701961Y-99529225D01*
X125701961Y-99529224D01*
X125704284Y-99524243D01*
X125717687Y-99474225D01*
X125762119Y-99308402D01*
X125762119Y-99308400D01*
X125763543Y-99303087D01*
X125783498Y-99075000D01*
X125782985Y-99069134D01*
X128816500Y-99069134D01*
X128823255Y-99131316D01*
X128874385Y-99267705D01*
X128961739Y-99384261D01*
X129078295Y-99471615D01*
X129214684Y-99522745D01*
X129276866Y-99529500D01*
X131073134Y-99529500D01*
X131135316Y-99522745D01*
X131271705Y-99471615D01*
X131388261Y-99384261D01*
X131475615Y-99267705D01*
X131526745Y-99131316D01*
X131533500Y-99069134D01*
X131533500Y-97272866D01*
X131526745Y-97210684D01*
X131475615Y-97074295D01*
X131388261Y-96957739D01*
X131271705Y-96870385D01*
X131135316Y-96819255D01*
X131073134Y-96812500D01*
X129276866Y-96812500D01*
X129214684Y-96819255D01*
X129078295Y-96870385D01*
X128961739Y-96957739D01*
X128874385Y-97074295D01*
X128823255Y-97210684D01*
X128816500Y-97272866D01*
X128816500Y-99069134D01*
X125782985Y-99069134D01*
X125763543Y-98846913D01*
X125704284Y-98625757D01*
X125701961Y-98620775D01*
X125609849Y-98423238D01*
X125609846Y-98423233D01*
X125607523Y-98418251D01*
X125534098Y-98313389D01*
X125479357Y-98235211D01*
X125479355Y-98235208D01*
X125476198Y-98230700D01*
X125314300Y-98068802D01*
X125309792Y-98065645D01*
X125309789Y-98065643D01*
X125231241Y-98010643D01*
X125126749Y-97937477D01*
X125121767Y-97935154D01*
X125121762Y-97935151D01*
X125087543Y-97919195D01*
X125034258Y-97872278D01*
X125014797Y-97804001D01*
X125035339Y-97736041D01*
X125087543Y-97690805D01*
X125121762Y-97674849D01*
X125121767Y-97674846D01*
X125126749Y-97672523D01*
X125292307Y-97556598D01*
X125309789Y-97544357D01*
X125309792Y-97544355D01*
X125314300Y-97541198D01*
X125476198Y-97379300D01*
X125607523Y-97191749D01*
X125609846Y-97186767D01*
X125609849Y-97186762D01*
X125701961Y-96989225D01*
X125701961Y-96989224D01*
X125704284Y-96984243D01*
X125734793Y-96870385D01*
X125762119Y-96768402D01*
X125762119Y-96768400D01*
X125763543Y-96763087D01*
X125783498Y-96535000D01*
X125763543Y-96306913D01*
X125750037Y-96256508D01*
X125705707Y-96091067D01*
X125705706Y-96091064D01*
X125704284Y-96085757D01*
X125609966Y-95883489D01*
X125609849Y-95883238D01*
X125609846Y-95883233D01*
X125607523Y-95878251D01*
X125501616Y-95727000D01*
X125479357Y-95695211D01*
X125479355Y-95695208D01*
X125476198Y-95690700D01*
X125314300Y-95528802D01*
X125309792Y-95525645D01*
X125309789Y-95525643D01*
X125219441Y-95462381D01*
X125126749Y-95397477D01*
X125121767Y-95395154D01*
X125121762Y-95395151D01*
X125086951Y-95378919D01*
X125033666Y-95332002D01*
X125014205Y-95263725D01*
X125034747Y-95195765D01*
X125086951Y-95150529D01*
X125121511Y-95134414D01*
X125131007Y-95128931D01*
X125309467Y-95003972D01*
X125317875Y-94996916D01*
X125471916Y-94842875D01*
X125478972Y-94834467D01*
X125603931Y-94656007D01*
X125609414Y-94646511D01*
X125701490Y-94449053D01*
X125705236Y-94438761D01*
X125751394Y-94266497D01*
X125751058Y-94252401D01*
X125743116Y-94249000D01*
X124342000Y-94249000D01*
X124273879Y-94228998D01*
X124227386Y-94175342D01*
X124216000Y-94123000D01*
X124216000Y-93722885D01*
X124724000Y-93722885D01*
X124728475Y-93738124D01*
X124729865Y-93739329D01*
X124737548Y-93741000D01*
X125737967Y-93741000D01*
X125751498Y-93737027D01*
X125752727Y-93728478D01*
X125720481Y-93608134D01*
X128816500Y-93608134D01*
X128823255Y-93670316D01*
X128874385Y-93806705D01*
X128961739Y-93923261D01*
X129078295Y-94010615D01*
X129214684Y-94061745D01*
X129276866Y-94068500D01*
X131073134Y-94068500D01*
X131135316Y-94061745D01*
X131271705Y-94010615D01*
X131388261Y-93923261D01*
X131475615Y-93806705D01*
X131526745Y-93670316D01*
X131533500Y-93608134D01*
X131533500Y-91811866D01*
X131526745Y-91749684D01*
X131475615Y-91613295D01*
X131388261Y-91496739D01*
X131271705Y-91409385D01*
X131135316Y-91358255D01*
X131073134Y-91351500D01*
X129276866Y-91351500D01*
X129214684Y-91358255D01*
X129078295Y-91409385D01*
X128961739Y-91496739D01*
X128874385Y-91613295D01*
X128823255Y-91749684D01*
X128816500Y-91811866D01*
X128816500Y-93608134D01*
X125720481Y-93608134D01*
X125705236Y-93551239D01*
X125701490Y-93540947D01*
X125609414Y-93343489D01*
X125603931Y-93333993D01*
X125478972Y-93155533D01*
X125471916Y-93147125D01*
X125317875Y-92993084D01*
X125309467Y-92986028D01*
X125131007Y-92861069D01*
X125121511Y-92855586D01*
X124924053Y-92763510D01*
X124913761Y-92759764D01*
X124741497Y-92713606D01*
X124727401Y-92713942D01*
X124724000Y-92721884D01*
X124724000Y-93722885D01*
X124216000Y-93722885D01*
X124216000Y-92727033D01*
X124212027Y-92713502D01*
X124203478Y-92712273D01*
X124026239Y-92759764D01*
X124015947Y-92763510D01*
X123818489Y-92855586D01*
X123808993Y-92861069D01*
X123630533Y-92986028D01*
X123622125Y-92993084D01*
X123473596Y-93141613D01*
X123411284Y-93175639D01*
X123340469Y-93170574D01*
X123283633Y-93128027D01*
X123258822Y-93061507D01*
X123258501Y-93052518D01*
X123258501Y-91208464D01*
X123278503Y-91140343D01*
X123332159Y-91093850D01*
X123367295Y-91084583D01*
X123367188Y-91083978D01*
X123372606Y-91083022D01*
X123378087Y-91082543D01*
X123525859Y-91042947D01*
X123593933Y-91024707D01*
X123593935Y-91024706D01*
X123599243Y-91023284D01*
X123631175Y-91008394D01*
X123801762Y-90928849D01*
X123801767Y-90928846D01*
X123806749Y-90926523D01*
X123911611Y-90853098D01*
X123989789Y-90798357D01*
X123989792Y-90798355D01*
X123994300Y-90795198D01*
X124156198Y-90633300D01*
X124206176Y-90561925D01*
X124284366Y-90450257D01*
X124287523Y-90445749D01*
X124289846Y-90440767D01*
X124289849Y-90440762D01*
X124381961Y-90243225D01*
X124381961Y-90243224D01*
X124384284Y-90238243D01*
X124389858Y-90217443D01*
X124442119Y-90022402D01*
X124442119Y-90022400D01*
X124443543Y-90017087D01*
X124463498Y-89789000D01*
X124443543Y-89560913D01*
X124406981Y-89424461D01*
X124385707Y-89345067D01*
X124385706Y-89345065D01*
X124384284Y-89339757D01*
X124306112Y-89172115D01*
X124289849Y-89137238D01*
X124289846Y-89137233D01*
X124287523Y-89132251D01*
X124156198Y-88944700D01*
X123994300Y-88782802D01*
X123989792Y-88779645D01*
X123989789Y-88779643D01*
X123863920Y-88691509D01*
X123806749Y-88651477D01*
X123801767Y-88649154D01*
X123801762Y-88649151D01*
X123604225Y-88557039D01*
X123604224Y-88557039D01*
X123599243Y-88554716D01*
X123593935Y-88553294D01*
X123593933Y-88553293D01*
X123383402Y-88496881D01*
X123383400Y-88496881D01*
X123378087Y-88495457D01*
X123150000Y-88475502D01*
X122921913Y-88495457D01*
X122916600Y-88496881D01*
X122916598Y-88496881D01*
X122706067Y-88553293D01*
X122706065Y-88553294D01*
X122700757Y-88554716D01*
X122695776Y-88557039D01*
X122695775Y-88557039D01*
X122498238Y-88649151D01*
X122498233Y-88649154D01*
X122493251Y-88651477D01*
X122436080Y-88691509D01*
X122310211Y-88779643D01*
X122310208Y-88779645D01*
X122305700Y-88782802D01*
X122143802Y-88944700D01*
X122012477Y-89132251D01*
X122010154Y-89137233D01*
X122010151Y-89137238D01*
X121993888Y-89172115D01*
X121915716Y-89339757D01*
X121914294Y-89345065D01*
X121914293Y-89345067D01*
X121893019Y-89424461D01*
X121856457Y-89560913D01*
X121855978Y-89566389D01*
X121855977Y-89566394D01*
X121844630Y-89696096D01*
X121839033Y-89760078D01*
X121837749Y-89774750D01*
X121811886Y-89840869D01*
X121801323Y-89852864D01*
X121765169Y-89889018D01*
X121750136Y-89901859D01*
X121738748Y-89910133D01*
X121734328Y-89915042D01*
X121692985Y-89960958D01*
X121688444Y-89965743D01*
X121673929Y-89980258D01*
X121671853Y-89982822D01*
X121661007Y-89996215D01*
X121656723Y-90001230D01*
X121615382Y-90047144D01*
X121615378Y-90047149D01*
X121610961Y-90052055D01*
X121607661Y-90057771D01*
X121607658Y-90057775D01*
X121603928Y-90064236D01*
X121592728Y-90080532D01*
X121583872Y-90091469D01*
X121562057Y-90134284D01*
X121552816Y-90152420D01*
X121549670Y-90158214D01*
X121537657Y-90179021D01*
X121523510Y-90203525D01*
X121515474Y-90217443D01*
X121513433Y-90223725D01*
X121513432Y-90223727D01*
X121511126Y-90230825D01*
X121503561Y-90249091D01*
X121497172Y-90261629D01*
X121495464Y-90268002D01*
X121495464Y-90268003D01*
X121479470Y-90327694D01*
X121477601Y-90334002D01*
X121456459Y-90399071D01*
X121455769Y-90405636D01*
X121455767Y-90405645D01*
X121454986Y-90413074D01*
X121451384Y-90432508D01*
X121449454Y-90439713D01*
X121447744Y-90446096D01*
X121447399Y-90452687D01*
X121447398Y-90452691D01*
X121444165Y-90514383D01*
X121443648Y-90520957D01*
X121441845Y-90538115D01*
X121441501Y-90541389D01*
X121441501Y-90561925D01*
X121441328Y-90568519D01*
X121437749Y-90636809D01*
X121438781Y-90643324D01*
X121439950Y-90650704D01*
X121441501Y-90670416D01*
X121441501Y-94333584D01*
X121439950Y-94353293D01*
X121437749Y-94367191D01*
X118783500Y-94367191D01*
X118783500Y-91008394D01*
X118803502Y-90940273D01*
X118837229Y-90905181D01*
X118989789Y-90798357D01*
X118989792Y-90798355D01*
X118994300Y-90795198D01*
X119156198Y-90633300D01*
X119206176Y-90561925D01*
X119284366Y-90450257D01*
X119287523Y-90445749D01*
X119289846Y-90440767D01*
X119289849Y-90440762D01*
X119381961Y-90243225D01*
X119381961Y-90243224D01*
X119384284Y-90238243D01*
X119389858Y-90217443D01*
X119442119Y-90022402D01*
X119442119Y-90022400D01*
X119443543Y-90017087D01*
X119463498Y-89789000D01*
X119443543Y-89560913D01*
X119406981Y-89424461D01*
X119385707Y-89345067D01*
X119385706Y-89345065D01*
X119384284Y-89339757D01*
X119306112Y-89172115D01*
X119289849Y-89137238D01*
X119289846Y-89137233D01*
X119287523Y-89132251D01*
X119156198Y-88944700D01*
X118994300Y-88782802D01*
X118989792Y-88779645D01*
X118989789Y-88779643D01*
X118863920Y-88691509D01*
X118806749Y-88651477D01*
X118801767Y-88649154D01*
X118801762Y-88649151D01*
X118604225Y-88557039D01*
X118604224Y-88557039D01*
X118599243Y-88554716D01*
X118593935Y-88553294D01*
X118593933Y-88553293D01*
X118383402Y-88496881D01*
X118383400Y-88496881D01*
X118378087Y-88495457D01*
X118150000Y-88475502D01*
X117921913Y-88495457D01*
X117916600Y-88496881D01*
X117916598Y-88496881D01*
X117706067Y-88553293D01*
X117706065Y-88553294D01*
X117700757Y-88554716D01*
X117695776Y-88557039D01*
X117695775Y-88557039D01*
X117498238Y-88649151D01*
X117498233Y-88649154D01*
X117493251Y-88651477D01*
X117436080Y-88691509D01*
X117310211Y-88779643D01*
X117310208Y-88779645D01*
X117305700Y-88782802D01*
X117143802Y-88944700D01*
X117012477Y-89132251D01*
X117010154Y-89137233D01*
X117010151Y-89137238D01*
X116993888Y-89172115D01*
X116915716Y-89339757D01*
X116914294Y-89345065D01*
X116914293Y-89345067D01*
X116893019Y-89424461D01*
X116856457Y-89560913D01*
X116836502Y-89789000D01*
X116856457Y-90017087D01*
X116857881Y-90022400D01*
X116857881Y-90022402D01*
X116910143Y-90217443D01*
X116915716Y-90238243D01*
X116918039Y-90243224D01*
X116918039Y-90243225D01*
X117010151Y-90440762D01*
X117010154Y-90440767D01*
X117012477Y-90445749D01*
X117015634Y-90450257D01*
X117093825Y-90561925D01*
X117143802Y-90633300D01*
X117305700Y-90795198D01*
X117310208Y-90798355D01*
X117310211Y-90798357D01*
X117462771Y-90905181D01*
X117507099Y-90960638D01*
X117516500Y-91008394D01*
X117516500Y-92560500D01*
X117496498Y-92628621D01*
X117442842Y-92675114D01*
X117390500Y-92686500D01*
X116001866Y-92686500D01*
X115939684Y-92693255D01*
X115803295Y-92744385D01*
X115686739Y-92831739D01*
X115599385Y-92948295D01*
X115596233Y-92956703D01*
X115596232Y-92956705D01*
X115582482Y-92993383D01*
X115539841Y-93050148D01*
X115473279Y-93074848D01*
X115403930Y-93059641D01*
X115353812Y-93009355D01*
X115338500Y-92949154D01*
X115338500Y-90327905D01*
X115350305Y-90274656D01*
X115364959Y-90243230D01*
X115364961Y-90243225D01*
X115367284Y-90238243D01*
X115372858Y-90217443D01*
X115425119Y-90022402D01*
X115425119Y-90022400D01*
X115426543Y-90017087D01*
X115446498Y-89789000D01*
X115426543Y-89560913D01*
X115389981Y-89424461D01*
X115368707Y-89345067D01*
X115368706Y-89345065D01*
X115367284Y-89339757D01*
X115289112Y-89172115D01*
X115272849Y-89137238D01*
X115272846Y-89137233D01*
X115270523Y-89132251D01*
X115139198Y-88944700D01*
X114977300Y-88782802D01*
X114972792Y-88779645D01*
X114972789Y-88779643D01*
X114846920Y-88691509D01*
X114789749Y-88651477D01*
X114784767Y-88649154D01*
X114784762Y-88649151D01*
X114587225Y-88557039D01*
X114587224Y-88557039D01*
X114582243Y-88554716D01*
X114576935Y-88553294D01*
X114576933Y-88553293D01*
X114366402Y-88496881D01*
X114366400Y-88496881D01*
X114361087Y-88495457D01*
X114133000Y-88475502D01*
X113904913Y-88495457D01*
X113899600Y-88496881D01*
X113899598Y-88496881D01*
X113689067Y-88553293D01*
X113689065Y-88553294D01*
X113683757Y-88554716D01*
X113678776Y-88557039D01*
X113678775Y-88557039D01*
X113481238Y-88649151D01*
X113481233Y-88649154D01*
X113476251Y-88651477D01*
X113419080Y-88691509D01*
X113293211Y-88779643D01*
X113293208Y-88779645D01*
X113288700Y-88782802D01*
X113126802Y-88944700D01*
X112995477Y-89132251D01*
X112993154Y-89137233D01*
X112993151Y-89137238D01*
X112976888Y-89172115D01*
X112898716Y-89339757D01*
X112897294Y-89345065D01*
X112897293Y-89345067D01*
X112876019Y-89424461D01*
X112839457Y-89560913D01*
X112819502Y-89789000D01*
X112839457Y-90017087D01*
X112840881Y-90022400D01*
X112840881Y-90022402D01*
X112893143Y-90217443D01*
X112898716Y-90238243D01*
X112901039Y-90243224D01*
X112901039Y-90243225D01*
X112993151Y-90440762D01*
X112993154Y-90440767D01*
X112995477Y-90445749D01*
X112998634Y-90450257D01*
X113076825Y-90561925D01*
X113126802Y-90633300D01*
X113288700Y-90795198D01*
X113293208Y-90798355D01*
X113293211Y-90798357D01*
X113384911Y-90862566D01*
X113419917Y-90887077D01*
X113467771Y-90920585D01*
X113512099Y-90976042D01*
X113521500Y-91023798D01*
X113521500Y-92632832D01*
X113501498Y-92700953D01*
X113447842Y-92747446D01*
X113377568Y-92757550D01*
X113362895Y-92754540D01*
X113258087Y-92726457D01*
X113030000Y-92706502D01*
X112801913Y-92726457D01*
X112796600Y-92727881D01*
X112796598Y-92727881D01*
X112586067Y-92784293D01*
X112586065Y-92784294D01*
X112580757Y-92785716D01*
X112575776Y-92788039D01*
X112575775Y-92788039D01*
X112378238Y-92880151D01*
X112378233Y-92880154D01*
X112373251Y-92882477D01*
X112289516Y-92941109D01*
X112190211Y-93010643D01*
X112190208Y-93010645D01*
X112185700Y-93013802D01*
X112023802Y-93175700D01*
X111892477Y-93363251D01*
X111890154Y-93368233D01*
X111890151Y-93368238D01*
X111804817Y-93551239D01*
X111795716Y-93570757D01*
X111794294Y-93576065D01*
X111794293Y-93576067D01*
X111771144Y-93662460D01*
X111736457Y-93791913D01*
X111716502Y-94020000D01*
X111736457Y-94248087D01*
X111737881Y-94253400D01*
X111737881Y-94253402D01*
X111762024Y-94343502D01*
X111795716Y-94469243D01*
X111798039Y-94474224D01*
X111798039Y-94474225D01*
X111890151Y-94671762D01*
X111890154Y-94671767D01*
X111892477Y-94676749D01*
X111895634Y-94681257D01*
X112006589Y-94839717D01*
X112023802Y-94864300D01*
X112185700Y-95026198D01*
X112190208Y-95029355D01*
X112190211Y-95029357D01*
X112218109Y-95048891D01*
X112373251Y-95157523D01*
X112378233Y-95159846D01*
X112378238Y-95159849D01*
X112575775Y-95251961D01*
X112580757Y-95254284D01*
X112586065Y-95255706D01*
X112586067Y-95255707D01*
X112796598Y-95312119D01*
X112796600Y-95312119D01*
X112801913Y-95313543D01*
X113030000Y-95333498D01*
X113258087Y-95313543D01*
X113362890Y-95285461D01*
X113433865Y-95287151D01*
X113492661Y-95326945D01*
X113520609Y-95392209D01*
X113521500Y-95407168D01*
X113521500Y-97632832D01*
X113501498Y-97700953D01*
X113447842Y-97747446D01*
X113377568Y-97757550D01*
X113362895Y-97754540D01*
X113258087Y-97726457D01*
X113030000Y-97706502D01*
X112801913Y-97726457D01*
X112796600Y-97727881D01*
X112796598Y-97727881D01*
X112586067Y-97784293D01*
X112586065Y-97784294D01*
X112580757Y-97785716D01*
X112575776Y-97788039D01*
X112575775Y-97788039D01*
X112378238Y-97880151D01*
X112378233Y-97880154D01*
X112373251Y-97882477D01*
X112268389Y-97955902D01*
X112190211Y-98010643D01*
X112190208Y-98010645D01*
X112185700Y-98013802D01*
X112023802Y-98175700D01*
X112020645Y-98180208D01*
X112020643Y-98180211D01*
X111975820Y-98244225D01*
X111892477Y-98363251D01*
X111890154Y-98368233D01*
X111890151Y-98368238D01*
X111855867Y-98441762D01*
X111795716Y-98570757D01*
X111794294Y-98576065D01*
X111794293Y-98576067D01*
X111777645Y-98638197D01*
X111736457Y-98791913D01*
X111716502Y-99020000D01*
X111736457Y-99248087D01*
X111737881Y-99253400D01*
X111737881Y-99253402D01*
X111789683Y-99446726D01*
X111795716Y-99469243D01*
X111798039Y-99474224D01*
X111798039Y-99474225D01*
X111890151Y-99671762D01*
X111890154Y-99671767D01*
X111892477Y-99676749D01*
X112023802Y-99864300D01*
X112185700Y-100026198D01*
X112190208Y-100029355D01*
X112190211Y-100029357D01*
X112258682Y-100077301D01*
X112373251Y-100157523D01*
X112378233Y-100159846D01*
X112378238Y-100159849D01*
X112538499Y-100234579D01*
X112580757Y-100254284D01*
X112584739Y-100255351D01*
X112641568Y-100297193D01*
X112666906Y-100363515D01*
X112652365Y-100433006D01*
X112602563Y-100483605D01*
X112585247Y-100491513D01*
X112580757Y-100492716D01*
X112575776Y-100495039D01*
X112575775Y-100495039D01*
X112378238Y-100587151D01*
X112378233Y-100587154D01*
X112373251Y-100589477D01*
X112268389Y-100662902D01*
X112190211Y-100717643D01*
X112190208Y-100717645D01*
X112185700Y-100720802D01*
X112023802Y-100882700D01*
X111892477Y-101070251D01*
X111890154Y-101075233D01*
X111890151Y-101075238D01*
X111798039Y-101272775D01*
X111795716Y-101277757D01*
X111794294Y-101283065D01*
X111794293Y-101283067D01*
X111764999Y-101392393D01*
X111736457Y-101498913D01*
X111716502Y-101727000D01*
X111736457Y-101955087D01*
X111737881Y-101960400D01*
X111737881Y-101960402D01*
X111764283Y-102058933D01*
X111795716Y-102176243D01*
X111798039Y-102181224D01*
X111798039Y-102181225D01*
X111890151Y-102378762D01*
X111890154Y-102378767D01*
X111892477Y-102383749D01*
X112023802Y-102571300D01*
X112185700Y-102733198D01*
X112190208Y-102736355D01*
X112190211Y-102736357D01*
X112239408Y-102770805D01*
X112373251Y-102864523D01*
X112378233Y-102866846D01*
X112378238Y-102866849D01*
X112538499Y-102941579D01*
X112580757Y-102961284D01*
X112586065Y-102962706D01*
X112586067Y-102962707D01*
X112796598Y-103019119D01*
X112796600Y-103019119D01*
X112801913Y-103020543D01*
X113030000Y-103040498D01*
X113258087Y-103020543D01*
X113362890Y-102992461D01*
X113433865Y-102994151D01*
X113492661Y-103033945D01*
X113520609Y-103099209D01*
X113521500Y-103114168D01*
X113521500Y-105339832D01*
X113501498Y-105407953D01*
X113447842Y-105454446D01*
X113377568Y-105464550D01*
X113362895Y-105461540D01*
X113258087Y-105433457D01*
X113030000Y-105413502D01*
X112801913Y-105433457D01*
X112796600Y-105434881D01*
X112796598Y-105434881D01*
X112586067Y-105491293D01*
X112586065Y-105491294D01*
X112580757Y-105492716D01*
X112575776Y-105495039D01*
X112575775Y-105495039D01*
X112378238Y-105587151D01*
X112378233Y-105587154D01*
X112373251Y-105589477D01*
X112277243Y-105656703D01*
X112190211Y-105717643D01*
X112190208Y-105717645D01*
X112185700Y-105720802D01*
X112023802Y-105882700D01*
X112020645Y-105887208D01*
X112020643Y-105887211D01*
X111975072Y-105952293D01*
X111892477Y-106070251D01*
X111890154Y-106075233D01*
X111890151Y-106075238D01*
X111798039Y-106272775D01*
X111795716Y-106277757D01*
X111794294Y-106283065D01*
X111794293Y-106283067D01*
X111743563Y-106472393D01*
X111736457Y-106498913D01*
X111716502Y-106727000D01*
X111736457Y-106955087D01*
X111737881Y-106960400D01*
X111737881Y-106960402D01*
X111787142Y-107144243D01*
X111795716Y-107176243D01*
X111798039Y-107181224D01*
X111798039Y-107181225D01*
X111890151Y-107378762D01*
X111890154Y-107378767D01*
X111892477Y-107383749D01*
X111918842Y-107421402D01*
X112006459Y-107546531D01*
X112023802Y-107571300D01*
X112185700Y-107733198D01*
X112190208Y-107736355D01*
X112190211Y-107736357D01*
X112235826Y-107768297D01*
X112373251Y-107864523D01*
X112378233Y-107866846D01*
X112378238Y-107866849D01*
X112580757Y-107961284D01*
X112580162Y-107962561D01*
X112631951Y-108000693D01*
X112657290Y-108067014D01*
X112642750Y-108136505D01*
X112592948Y-108187105D01*
X112580740Y-108192680D01*
X112580757Y-108192716D01*
X112378238Y-108287151D01*
X112378233Y-108287154D01*
X112373251Y-108289477D01*
X112268389Y-108362902D01*
X112190211Y-108417643D01*
X112190208Y-108417645D01*
X112185700Y-108420802D01*
X112023802Y-108582700D01*
X111892477Y-108770251D01*
X111890154Y-108775233D01*
X111890151Y-108775238D01*
X111802363Y-108963503D01*
X111795716Y-108977757D01*
X111794294Y-108983065D01*
X111794293Y-108983067D01*
X111786435Y-109012393D01*
X111736457Y-109198913D01*
X111716502Y-109427000D01*
X111736457Y-109655087D01*
X111737881Y-109660400D01*
X111737881Y-109660402D01*
X111785533Y-109838238D01*
X111795716Y-109876243D01*
X111798039Y-109881224D01*
X111798039Y-109881225D01*
X111890151Y-110078762D01*
X111890154Y-110078767D01*
X111892477Y-110083749D01*
X111941249Y-110153402D01*
X112013508Y-110256598D01*
X112023802Y-110271300D01*
X112185700Y-110433198D01*
X112190208Y-110436355D01*
X112190211Y-110436357D01*
X112209094Y-110449579D01*
X112373251Y-110564523D01*
X112378233Y-110566846D01*
X112378238Y-110566849D01*
X112538499Y-110641579D01*
X112580757Y-110661284D01*
X112586065Y-110662706D01*
X112586067Y-110662707D01*
X112796598Y-110719119D01*
X112796600Y-110719119D01*
X112801913Y-110720543D01*
X113030000Y-110740498D01*
X113258087Y-110720543D01*
X113362890Y-110692461D01*
X113433865Y-110694151D01*
X113492661Y-110733945D01*
X113520609Y-110799209D01*
X113521500Y-110814168D01*
X113521500Y-112598497D01*
X113501498Y-112666618D01*
X113484595Y-112687592D01*
X113093864Y-113078323D01*
X113031552Y-113112349D01*
X113015754Y-113114748D01*
X112937096Y-113121630D01*
X112807394Y-113132977D01*
X112807389Y-113132978D01*
X112801913Y-113133457D01*
X112796600Y-113134881D01*
X112796598Y-113134881D01*
X112586067Y-113191293D01*
X112586065Y-113191294D01*
X112580757Y-113192716D01*
X112575776Y-113195039D01*
X112575775Y-113195039D01*
X112378238Y-113287151D01*
X112378233Y-113287154D01*
X112373251Y-113289477D01*
X112272178Y-113360249D01*
X112190211Y-113417643D01*
X112190208Y-113417645D01*
X112185700Y-113420802D01*
X112023802Y-113582700D01*
X112020645Y-113587208D01*
X112020643Y-113587211D01*
X111986662Y-113635741D01*
X111892477Y-113770251D01*
X111890154Y-113775233D01*
X111890151Y-113775238D01*
X111798039Y-113972775D01*
X111795716Y-113977757D01*
X111736457Y-114198913D01*
X111716502Y-114427000D01*
X109972500Y-114427000D01*
X109972500Y-113072763D01*
X109973027Y-113061579D01*
X109974701Y-113054091D01*
X109972562Y-112986032D01*
X109972500Y-112982075D01*
X109972500Y-112954144D01*
X109971994Y-112950138D01*
X109971061Y-112938292D01*
X109970252Y-112912523D01*
X109969673Y-112894110D01*
X109964022Y-112874658D01*
X109960014Y-112855306D01*
X109958467Y-112843063D01*
X109957474Y-112835203D01*
X109954556Y-112827832D01*
X109941200Y-112794097D01*
X109937355Y-112782870D01*
X109935737Y-112777301D01*
X109925018Y-112740407D01*
X109920984Y-112733585D01*
X109920981Y-112733579D01*
X109914706Y-112722968D01*
X109906010Y-112705218D01*
X109901472Y-112693756D01*
X109901469Y-112693751D01*
X109898552Y-112686383D01*
X109872573Y-112650625D01*
X109866057Y-112640707D01*
X109853396Y-112619300D01*
X109843542Y-112602637D01*
X109829218Y-112588313D01*
X109816376Y-112573278D01*
X109804472Y-112556893D01*
X109770406Y-112528711D01*
X109761627Y-112520722D01*
X109429152Y-112188247D01*
X109395126Y-112125935D01*
X109396540Y-112066541D01*
X109400570Y-112051502D01*
X109413543Y-112003087D01*
X109433498Y-111775000D01*
X109413543Y-111546913D01*
X109354284Y-111325757D01*
X109270812Y-111146749D01*
X109259849Y-111123238D01*
X109259846Y-111123233D01*
X109257523Y-111118251D01*
X109184098Y-111013389D01*
X109129357Y-110935211D01*
X109129355Y-110935208D01*
X109126198Y-110930700D01*
X108964300Y-110768802D01*
X108959792Y-110765645D01*
X108959789Y-110765643D01*
X108881611Y-110710902D01*
X108776749Y-110637477D01*
X108771767Y-110635154D01*
X108771762Y-110635151D01*
X108736951Y-110618919D01*
X108683666Y-110572002D01*
X108664205Y-110503725D01*
X108684747Y-110435765D01*
X108736951Y-110390529D01*
X108771511Y-110374414D01*
X108781007Y-110368931D01*
X108959467Y-110243972D01*
X108967875Y-110236916D01*
X109121916Y-110082875D01*
X109128972Y-110074467D01*
X109253931Y-109896007D01*
X109259414Y-109886511D01*
X109351490Y-109689053D01*
X109355236Y-109678761D01*
X109401394Y-109506497D01*
X109401058Y-109492401D01*
X109393116Y-109489000D01*
X106852033Y-109489000D01*
X106838502Y-109492973D01*
X106837273Y-109501522D01*
X106884764Y-109678761D01*
X106888510Y-109689053D01*
X106980586Y-109886511D01*
X106986069Y-109896007D01*
X107111028Y-110074467D01*
X107118084Y-110082875D01*
X107272125Y-110236916D01*
X107280533Y-110243972D01*
X107458993Y-110368931D01*
X107468489Y-110374414D01*
X107503049Y-110390529D01*
X107556334Y-110437446D01*
X107575795Y-110505723D01*
X107555253Y-110573683D01*
X107503049Y-110618919D01*
X107468238Y-110635151D01*
X107468233Y-110635154D01*
X107463251Y-110637477D01*
X107358389Y-110710902D01*
X107280211Y-110765643D01*
X107280208Y-110765645D01*
X107275700Y-110768802D01*
X107113802Y-110930700D01*
X107110645Y-110935208D01*
X107110643Y-110935211D01*
X107055902Y-111013389D01*
X106982477Y-111118251D01*
X106980154Y-111123233D01*
X106980151Y-111123238D01*
X106969188Y-111146749D01*
X106885716Y-111325757D01*
X106826457Y-111546913D01*
X106806502Y-111775000D01*
X101813498Y-111775000D01*
X101793543Y-111546913D01*
X101734284Y-111325757D01*
X101650812Y-111146749D01*
X101639849Y-111123238D01*
X101639846Y-111123233D01*
X101637523Y-111118251D01*
X101564098Y-111013389D01*
X101509357Y-110935211D01*
X101509355Y-110935208D01*
X101506198Y-110930700D01*
X101344300Y-110768802D01*
X101339792Y-110765645D01*
X101339789Y-110765643D01*
X101261611Y-110710902D01*
X101156749Y-110637477D01*
X101151767Y-110635154D01*
X101151762Y-110635151D01*
X101117543Y-110619195D01*
X101064258Y-110572278D01*
X101044797Y-110504001D01*
X101065339Y-110436041D01*
X101117543Y-110390805D01*
X101151762Y-110374849D01*
X101151767Y-110374846D01*
X101156749Y-110372523D01*
X101306890Y-110267393D01*
X101339789Y-110244357D01*
X101339792Y-110244355D01*
X101344300Y-110241198D01*
X101506198Y-110079300D01*
X101637523Y-109891749D01*
X101639846Y-109886767D01*
X101639849Y-109886762D01*
X101731961Y-109689225D01*
X101731961Y-109689224D01*
X101734284Y-109684243D01*
X101742097Y-109655087D01*
X101792119Y-109468402D01*
X101792119Y-109468400D01*
X101793543Y-109463087D01*
X101813498Y-109235000D01*
X101793543Y-109006913D01*
X101788349Y-108987530D01*
X101735707Y-108791067D01*
X101735706Y-108791064D01*
X101734284Y-108785757D01*
X101729379Y-108775238D01*
X101639849Y-108583238D01*
X101639846Y-108583233D01*
X101637523Y-108578251D01*
X101564098Y-108473389D01*
X101509357Y-108395211D01*
X101509355Y-108395208D01*
X101506198Y-108390700D01*
X101344300Y-108228802D01*
X101339789Y-108225643D01*
X101335576Y-108222108D01*
X101336527Y-108220974D01*
X101296529Y-108170929D01*
X101289224Y-108100310D01*
X101321258Y-108036951D01*
X101382462Y-108000970D01*
X101399517Y-107997918D01*
X101410316Y-107996745D01*
X101546705Y-107945615D01*
X101663261Y-107858261D01*
X101750615Y-107741705D01*
X101801745Y-107605316D01*
X101808500Y-107543134D01*
X101808500Y-106695000D01*
X106806502Y-106695000D01*
X106826457Y-106923087D01*
X106827881Y-106928400D01*
X106827881Y-106928402D01*
X106883032Y-107134225D01*
X106885716Y-107144243D01*
X106888039Y-107149224D01*
X106888039Y-107149225D01*
X106980151Y-107346762D01*
X106980154Y-107346767D01*
X106982477Y-107351749D01*
X107023690Y-107410607D01*
X107106028Y-107528197D01*
X107113802Y-107539300D01*
X107275700Y-107701198D01*
X107280208Y-107704355D01*
X107280211Y-107704357D01*
X107321542Y-107733297D01*
X107463251Y-107832523D01*
X107468233Y-107834846D01*
X107468238Y-107834849D01*
X107503049Y-107851081D01*
X107556334Y-107897998D01*
X107575795Y-107966275D01*
X107555253Y-108034235D01*
X107503049Y-108079471D01*
X107468489Y-108095586D01*
X107458993Y-108101069D01*
X107280533Y-108226028D01*
X107272125Y-108233084D01*
X107118084Y-108387125D01*
X107111028Y-108395533D01*
X106986069Y-108573993D01*
X106980586Y-108583489D01*
X106888510Y-108780947D01*
X106884764Y-108791239D01*
X106838606Y-108963503D01*
X106838942Y-108977599D01*
X106846884Y-108981000D01*
X109387967Y-108981000D01*
X109401498Y-108977027D01*
X109402727Y-108968478D01*
X109355236Y-108791239D01*
X109351490Y-108780947D01*
X109259414Y-108583489D01*
X109253931Y-108573993D01*
X109128972Y-108395533D01*
X109121916Y-108387125D01*
X108967875Y-108233084D01*
X108959467Y-108226028D01*
X108781007Y-108101069D01*
X108771511Y-108095586D01*
X108736951Y-108079471D01*
X108683666Y-108032554D01*
X108664205Y-107964277D01*
X108684747Y-107896317D01*
X108736951Y-107851081D01*
X108771762Y-107834849D01*
X108771767Y-107834846D01*
X108776749Y-107832523D01*
X108918458Y-107733297D01*
X108959789Y-107704357D01*
X108959792Y-107704355D01*
X108964300Y-107701198D01*
X109126198Y-107539300D01*
X109133973Y-107528197D01*
X109216310Y-107410607D01*
X109257523Y-107351749D01*
X109259846Y-107346767D01*
X109259849Y-107346762D01*
X109351961Y-107149225D01*
X109351961Y-107149224D01*
X109354284Y-107144243D01*
X109356969Y-107134225D01*
X109412119Y-106928402D01*
X109412119Y-106928400D01*
X109413543Y-106923087D01*
X109433498Y-106695000D01*
X109413543Y-106466913D01*
X109400037Y-106416508D01*
X109355707Y-106251067D01*
X109355706Y-106251064D01*
X109354284Y-106245757D01*
X109349766Y-106236067D01*
X109259849Y-106043238D01*
X109259846Y-106043233D01*
X109257523Y-106038251D01*
X109156502Y-105893978D01*
X109129357Y-105855211D01*
X109129355Y-105855208D01*
X109126198Y-105850700D01*
X108964300Y-105688802D01*
X108959792Y-105685645D01*
X108959789Y-105685643D01*
X108826958Y-105592634D01*
X108776749Y-105557477D01*
X108771767Y-105555154D01*
X108771762Y-105555151D01*
X108574225Y-105463039D01*
X108574224Y-105463039D01*
X108569243Y-105460716D01*
X108563935Y-105459294D01*
X108563933Y-105459293D01*
X108353402Y-105402881D01*
X108353400Y-105402881D01*
X108348087Y-105401457D01*
X108120000Y-105381502D01*
X107891913Y-105401457D01*
X107886600Y-105402881D01*
X107886598Y-105402881D01*
X107676067Y-105459293D01*
X107676065Y-105459294D01*
X107670757Y-105460716D01*
X107665776Y-105463039D01*
X107665775Y-105463039D01*
X107468238Y-105555151D01*
X107468233Y-105555154D01*
X107463251Y-105557477D01*
X107413042Y-105592634D01*
X107280211Y-105685643D01*
X107280208Y-105685645D01*
X107275700Y-105688802D01*
X107113802Y-105850700D01*
X107110645Y-105855208D01*
X107110643Y-105855211D01*
X107083498Y-105893978D01*
X106982477Y-106038251D01*
X106980154Y-106043233D01*
X106980151Y-106043238D01*
X106890234Y-106236067D01*
X106885716Y-106245757D01*
X106884294Y-106251064D01*
X106884293Y-106251067D01*
X106839963Y-106416508D01*
X106826457Y-106466913D01*
X106806502Y-106695000D01*
X101808500Y-106695000D01*
X101808500Y-105846866D01*
X101801745Y-105784684D01*
X101750615Y-105648295D01*
X101663261Y-105531739D01*
X101546705Y-105444385D01*
X101410316Y-105393255D01*
X101348134Y-105386500D01*
X99651866Y-105386500D01*
X99589684Y-105393255D01*
X99453295Y-105444385D01*
X99336739Y-105531739D01*
X99249385Y-105648295D01*
X99198255Y-105784684D01*
X99191500Y-105846866D01*
X99191500Y-107543134D01*
X99198255Y-107605316D01*
X99249385Y-107741705D01*
X99336739Y-107858261D01*
X99453295Y-107945615D01*
X99589684Y-107996745D01*
X99600474Y-107997917D01*
X99602606Y-107998803D01*
X99605222Y-107999425D01*
X99605121Y-107999848D01*
X99666035Y-108025155D01*
X99706463Y-108083517D01*
X99708922Y-108154471D01*
X99672629Y-108215490D01*
X99663969Y-108222489D01*
X99660207Y-108225646D01*
X99655700Y-108228802D01*
X99493802Y-108390700D01*
X99490645Y-108395208D01*
X99490643Y-108395211D01*
X99435902Y-108473389D01*
X99362477Y-108578251D01*
X99360154Y-108583233D01*
X99360151Y-108583238D01*
X99270621Y-108775238D01*
X99265716Y-108785757D01*
X99264294Y-108791064D01*
X99264293Y-108791067D01*
X99211651Y-108987530D01*
X99206457Y-109006913D01*
X99186502Y-109235000D01*
X99206457Y-109463087D01*
X99207881Y-109468400D01*
X99207881Y-109468402D01*
X99257904Y-109655087D01*
X99265716Y-109684243D01*
X99268039Y-109689224D01*
X99268039Y-109689225D01*
X99360151Y-109886762D01*
X99360154Y-109886767D01*
X99362477Y-109891749D01*
X99493802Y-110079300D01*
X99655700Y-110241198D01*
X99660208Y-110244355D01*
X99660211Y-110244357D01*
X99693110Y-110267393D01*
X99843251Y-110372523D01*
X99848233Y-110374846D01*
X99848238Y-110374849D01*
X99882457Y-110390805D01*
X99935742Y-110437722D01*
X99955203Y-110505999D01*
X99934661Y-110573959D01*
X99882457Y-110619195D01*
X99848238Y-110635151D01*
X99848233Y-110635154D01*
X99843251Y-110637477D01*
X99738389Y-110710902D01*
X99660211Y-110765643D01*
X99660208Y-110765645D01*
X99655700Y-110768802D01*
X99493802Y-110930700D01*
X99490645Y-110935208D01*
X99490643Y-110935211D01*
X99435902Y-111013389D01*
X99362477Y-111118251D01*
X99360154Y-111123233D01*
X99360151Y-111123238D01*
X99349188Y-111146749D01*
X99265716Y-111325757D01*
X99206457Y-111546913D01*
X99186502Y-111775000D01*
X96779970Y-111775000D01*
X96963933Y-111725707D01*
X96963935Y-111725706D01*
X96969243Y-111724284D01*
X96974225Y-111721961D01*
X97171762Y-111629849D01*
X97171767Y-111629846D01*
X97176749Y-111627523D01*
X97299462Y-111541598D01*
X97359789Y-111499357D01*
X97359792Y-111499355D01*
X97364300Y-111496198D01*
X97526198Y-111334300D01*
X97535669Y-111320775D01*
X97654366Y-111151257D01*
X97657523Y-111146749D01*
X97659846Y-111141767D01*
X97659849Y-111141762D01*
X97751961Y-110944225D01*
X97751961Y-110944224D01*
X97754284Y-110939243D01*
X97813543Y-110718087D01*
X97833498Y-110490000D01*
X97813543Y-110261913D01*
X97808736Y-110243972D01*
X97755707Y-110046067D01*
X97755706Y-110046065D01*
X97754284Y-110040757D01*
X97686903Y-109896257D01*
X97659849Y-109838238D01*
X97659846Y-109838233D01*
X97657523Y-109833251D01*
X97549348Y-109678761D01*
X97529357Y-109650211D01*
X97529355Y-109650208D01*
X97526198Y-109645700D01*
X97364300Y-109483802D01*
X97359792Y-109480645D01*
X97359789Y-109480643D01*
X97275359Y-109421525D01*
X97176749Y-109352477D01*
X97171767Y-109350154D01*
X97171762Y-109350151D01*
X96974225Y-109258039D01*
X96974224Y-109258039D01*
X96969243Y-109255716D01*
X96963935Y-109254294D01*
X96963933Y-109254293D01*
X96753402Y-109197881D01*
X96753400Y-109197881D01*
X96748087Y-109196457D01*
X96520000Y-109176502D01*
X96291913Y-109196457D01*
X96286600Y-109197881D01*
X96286598Y-109197881D01*
X96076067Y-109254293D01*
X96076065Y-109254294D01*
X96070757Y-109255716D01*
X96065776Y-109258039D01*
X96065775Y-109258039D01*
X95868238Y-109350151D01*
X95868233Y-109350154D01*
X95863251Y-109352477D01*
X95764641Y-109421525D01*
X95680211Y-109480643D01*
X95680208Y-109480645D01*
X95675700Y-109483802D01*
X95513802Y-109645700D01*
X95510645Y-109650208D01*
X95510643Y-109650211D01*
X95490652Y-109678761D01*
X95382477Y-109833251D01*
X95380154Y-109838233D01*
X95380151Y-109838238D01*
X95353097Y-109896257D01*
X95285716Y-110040757D01*
X95284294Y-110046065D01*
X95284293Y-110046067D01*
X95231264Y-110243972D01*
X95226457Y-110261913D01*
X95206502Y-110490000D01*
X87673498Y-110490000D01*
X87653543Y-110261913D01*
X87648736Y-110243972D01*
X87595707Y-110046067D01*
X87595706Y-110046065D01*
X87594284Y-110040757D01*
X87526903Y-109896257D01*
X87499849Y-109838238D01*
X87499846Y-109838233D01*
X87497523Y-109833251D01*
X87389348Y-109678761D01*
X87369357Y-109650211D01*
X87369355Y-109650208D01*
X87366198Y-109645700D01*
X87204300Y-109483802D01*
X87199792Y-109480645D01*
X87199789Y-109480643D01*
X87115359Y-109421525D01*
X87016749Y-109352477D01*
X87011767Y-109350154D01*
X87011762Y-109350151D01*
X86814225Y-109258039D01*
X86814224Y-109258039D01*
X86809243Y-109255716D01*
X86803935Y-109254294D01*
X86803933Y-109254293D01*
X86593402Y-109197881D01*
X86593400Y-109197881D01*
X86588087Y-109196457D01*
X86360000Y-109176502D01*
X86131913Y-109196457D01*
X86126600Y-109197881D01*
X86126598Y-109197881D01*
X85916067Y-109254293D01*
X85916065Y-109254294D01*
X85910757Y-109255716D01*
X85905776Y-109258039D01*
X85905775Y-109258039D01*
X85708238Y-109350151D01*
X85708233Y-109350154D01*
X85703251Y-109352477D01*
X85604641Y-109421525D01*
X85520211Y-109480643D01*
X85520208Y-109480645D01*
X85515700Y-109483802D01*
X85353802Y-109645700D01*
X85350645Y-109650208D01*
X85350643Y-109650211D01*
X85330652Y-109678761D01*
X85222477Y-109833251D01*
X85220154Y-109838233D01*
X85220151Y-109838238D01*
X85193097Y-109896257D01*
X85125716Y-110040757D01*
X85124294Y-110046065D01*
X85124293Y-110046067D01*
X85071264Y-110243972D01*
X85066457Y-110261913D01*
X85046502Y-110490000D01*
X82610870Y-110490000D01*
X82580615Y-110409295D01*
X82493261Y-110292739D01*
X82376705Y-110205385D01*
X82240316Y-110154255D01*
X82178134Y-110147500D01*
X80381866Y-110147500D01*
X80319684Y-110154255D01*
X80183295Y-110205385D01*
X80066739Y-110292739D01*
X79979385Y-110409295D01*
X79928255Y-110545684D01*
X79921500Y-110607866D01*
X79921500Y-112404134D01*
X79248500Y-112404134D01*
X79248500Y-107578134D01*
X79921500Y-107578134D01*
X79928255Y-107640316D01*
X79979385Y-107776705D01*
X80066739Y-107893261D01*
X80183295Y-107980615D01*
X80319684Y-108031745D01*
X80381866Y-108038500D01*
X82178134Y-108038500D01*
X82240316Y-108031745D01*
X82376705Y-107980615D01*
X82493261Y-107893261D01*
X82580615Y-107776705D01*
X82631745Y-107640316D01*
X82638500Y-107578134D01*
X82638500Y-106680000D01*
X85046502Y-106680000D01*
X85066457Y-106908087D01*
X85067881Y-106913400D01*
X85067881Y-106913402D01*
X85078254Y-106952112D01*
X85125716Y-107129243D01*
X85128039Y-107134224D01*
X85128039Y-107134225D01*
X85220151Y-107331762D01*
X85220154Y-107331767D01*
X85222477Y-107336749D01*
X85353802Y-107524300D01*
X85515700Y-107686198D01*
X85520208Y-107689355D01*
X85520211Y-107689357D01*
X85577257Y-107729301D01*
X85703251Y-107817523D01*
X85708233Y-107819846D01*
X85708238Y-107819849D01*
X85872226Y-107896317D01*
X85910757Y-107914284D01*
X85916065Y-107915706D01*
X85916067Y-107915707D01*
X86126598Y-107972119D01*
X86126600Y-107972119D01*
X86131913Y-107973543D01*
X86360000Y-107993498D01*
X86588087Y-107973543D01*
X86593400Y-107972119D01*
X86593402Y-107972119D01*
X86803933Y-107915707D01*
X86803935Y-107915706D01*
X86809243Y-107914284D01*
X86847774Y-107896317D01*
X87011762Y-107819849D01*
X87011767Y-107819846D01*
X87016749Y-107817523D01*
X87142743Y-107729301D01*
X87199789Y-107689357D01*
X87199792Y-107689355D01*
X87204300Y-107686198D01*
X87366198Y-107524300D01*
X87497523Y-107336749D01*
X87499846Y-107331767D01*
X87499849Y-107331762D01*
X87591961Y-107134225D01*
X87591961Y-107134224D01*
X87594284Y-107129243D01*
X87641747Y-106952112D01*
X87652119Y-106913402D01*
X87652119Y-106913400D01*
X87653543Y-106908087D01*
X87673498Y-106680000D01*
X95206502Y-106680000D01*
X95226457Y-106908087D01*
X95227881Y-106913400D01*
X95227881Y-106913402D01*
X95238254Y-106952112D01*
X95285716Y-107129243D01*
X95288039Y-107134224D01*
X95288039Y-107134225D01*
X95380151Y-107331762D01*
X95380154Y-107331767D01*
X95382477Y-107336749D01*
X95513802Y-107524300D01*
X95675700Y-107686198D01*
X95680208Y-107689355D01*
X95680211Y-107689357D01*
X95737257Y-107729301D01*
X95863251Y-107817523D01*
X95868233Y-107819846D01*
X95868238Y-107819849D01*
X96032226Y-107896317D01*
X96070757Y-107914284D01*
X96076065Y-107915706D01*
X96076067Y-107915707D01*
X96286598Y-107972119D01*
X96286600Y-107972119D01*
X96291913Y-107973543D01*
X96520000Y-107993498D01*
X96748087Y-107973543D01*
X96753400Y-107972119D01*
X96753402Y-107972119D01*
X96963933Y-107915707D01*
X96963935Y-107915706D01*
X96969243Y-107914284D01*
X97007774Y-107896317D01*
X97171762Y-107819849D01*
X97171767Y-107819846D01*
X97176749Y-107817523D01*
X97302743Y-107729301D01*
X97359789Y-107689357D01*
X97359792Y-107689355D01*
X97364300Y-107686198D01*
X97526198Y-107524300D01*
X97657523Y-107336749D01*
X97659846Y-107331767D01*
X97659849Y-107331762D01*
X97751961Y-107134225D01*
X97751961Y-107134224D01*
X97754284Y-107129243D01*
X97801747Y-106952112D01*
X97812119Y-106913402D01*
X97812119Y-106913400D01*
X97813543Y-106908087D01*
X97833498Y-106680000D01*
X97813543Y-106451913D01*
X97797998Y-106393898D01*
X97755707Y-106236067D01*
X97755706Y-106236065D01*
X97754284Y-106230757D01*
X97681765Y-106075238D01*
X97659849Y-106028238D01*
X97659846Y-106028233D01*
X97657523Y-106023251D01*
X97567005Y-105893978D01*
X97529357Y-105840211D01*
X97529355Y-105840208D01*
X97526198Y-105835700D01*
X97364300Y-105673802D01*
X97359792Y-105670645D01*
X97359789Y-105670643D01*
X97224780Y-105576109D01*
X97176749Y-105542477D01*
X97171767Y-105540154D01*
X97171762Y-105540151D01*
X96974225Y-105448039D01*
X96974224Y-105448039D01*
X96969243Y-105445716D01*
X96963935Y-105444294D01*
X96963933Y-105444293D01*
X96753402Y-105387881D01*
X96753400Y-105387881D01*
X96748087Y-105386457D01*
X96520000Y-105366502D01*
X96291913Y-105386457D01*
X96286600Y-105387881D01*
X96286598Y-105387881D01*
X96076067Y-105444293D01*
X96076065Y-105444294D01*
X96070757Y-105445716D01*
X96065776Y-105448039D01*
X96065775Y-105448039D01*
X95868238Y-105540151D01*
X95868233Y-105540154D01*
X95863251Y-105542477D01*
X95815220Y-105576109D01*
X95680211Y-105670643D01*
X95680208Y-105670645D01*
X95675700Y-105673802D01*
X95513802Y-105835700D01*
X95510645Y-105840208D01*
X95510643Y-105840211D01*
X95472995Y-105893978D01*
X95382477Y-106023251D01*
X95380154Y-106028233D01*
X95380151Y-106028238D01*
X95358235Y-106075238D01*
X95285716Y-106230757D01*
X95284294Y-106236065D01*
X95284293Y-106236067D01*
X95242002Y-106393898D01*
X95226457Y-106451913D01*
X95206502Y-106680000D01*
X87673498Y-106680000D01*
X87653543Y-106451913D01*
X87637998Y-106393898D01*
X87595707Y-106236067D01*
X87595706Y-106236065D01*
X87594284Y-106230757D01*
X87521765Y-106075238D01*
X87499849Y-106028238D01*
X87499846Y-106028233D01*
X87497523Y-106023251D01*
X87407005Y-105893978D01*
X87369357Y-105840211D01*
X87369355Y-105840208D01*
X87366198Y-105835700D01*
X87204300Y-105673802D01*
X87199792Y-105670645D01*
X87199789Y-105670643D01*
X87064780Y-105576109D01*
X87016749Y-105542477D01*
X87011767Y-105540154D01*
X87011762Y-105540151D01*
X86814225Y-105448039D01*
X86814224Y-105448039D01*
X86809243Y-105445716D01*
X86803935Y-105444294D01*
X86803933Y-105444293D01*
X86593402Y-105387881D01*
X86593400Y-105387881D01*
X86588087Y-105386457D01*
X86360000Y-105366502D01*
X86131913Y-105386457D01*
X86126600Y-105387881D01*
X86126598Y-105387881D01*
X85916067Y-105444293D01*
X85916065Y-105444294D01*
X85910757Y-105445716D01*
X85905776Y-105448039D01*
X85905775Y-105448039D01*
X85708238Y-105540151D01*
X85708233Y-105540154D01*
X85703251Y-105542477D01*
X85655220Y-105576109D01*
X85520211Y-105670643D01*
X85520208Y-105670645D01*
X85515700Y-105673802D01*
X85353802Y-105835700D01*
X85350645Y-105840208D01*
X85350643Y-105840211D01*
X85312995Y-105893978D01*
X85222477Y-106023251D01*
X85220154Y-106028233D01*
X85220151Y-106028238D01*
X85198235Y-106075238D01*
X85125716Y-106230757D01*
X85124294Y-106236065D01*
X85124293Y-106236067D01*
X85082002Y-106393898D01*
X85066457Y-106451913D01*
X85046502Y-106680000D01*
X82638500Y-106680000D01*
X82638500Y-105781866D01*
X82631745Y-105719684D01*
X82580615Y-105583295D01*
X82493261Y-105466739D01*
X82376705Y-105379385D01*
X82240316Y-105328255D01*
X82178134Y-105321500D01*
X80381866Y-105321500D01*
X80319684Y-105328255D01*
X80183295Y-105379385D01*
X80066739Y-105466739D01*
X79979385Y-105583295D01*
X79928255Y-105719684D01*
X79921500Y-105781866D01*
X79921500Y-107578134D01*
X79248500Y-107578134D01*
X79248500Y-99958134D01*
X79921500Y-99958134D01*
X79928255Y-100020316D01*
X79979385Y-100156705D01*
X80066739Y-100273261D01*
X80183295Y-100360615D01*
X80319684Y-100411745D01*
X80381866Y-100418500D01*
X82178134Y-100418500D01*
X82240316Y-100411745D01*
X82376705Y-100360615D01*
X82493261Y-100273261D01*
X82580615Y-100156705D01*
X82631745Y-100020316D01*
X82638500Y-99958134D01*
X82638500Y-98161866D01*
X82631745Y-98099684D01*
X82580615Y-97963295D01*
X82493261Y-97846739D01*
X82417554Y-97790000D01*
X85046502Y-97790000D01*
X85066457Y-98018087D01*
X85067881Y-98023400D01*
X85067881Y-98023402D01*
X85108690Y-98175700D01*
X85125716Y-98239243D01*
X85128039Y-98244224D01*
X85128039Y-98244225D01*
X85220151Y-98441762D01*
X85220154Y-98441767D01*
X85222477Y-98446749D01*
X85225634Y-98451257D01*
X85344332Y-98620775D01*
X85353802Y-98634300D01*
X85515700Y-98796198D01*
X85520208Y-98799355D01*
X85520211Y-98799357D01*
X85580538Y-98841598D01*
X85703251Y-98927523D01*
X85708233Y-98929846D01*
X85708238Y-98929849D01*
X85901570Y-99020000D01*
X85910757Y-99024284D01*
X85916065Y-99025706D01*
X85916067Y-99025707D01*
X86126598Y-99082119D01*
X86126600Y-99082119D01*
X86131913Y-99083543D01*
X86360000Y-99103498D01*
X86588087Y-99083543D01*
X86593400Y-99082119D01*
X86593402Y-99082119D01*
X86803933Y-99025707D01*
X86803935Y-99025706D01*
X86809243Y-99024284D01*
X86818430Y-99020000D01*
X87011762Y-98929849D01*
X87011767Y-98929846D01*
X87016749Y-98927523D01*
X87139462Y-98841598D01*
X87199789Y-98799357D01*
X87199792Y-98799355D01*
X87204300Y-98796198D01*
X87366198Y-98634300D01*
X87375669Y-98620775D01*
X87494366Y-98451257D01*
X87497523Y-98446749D01*
X87499846Y-98441767D01*
X87499849Y-98441762D01*
X87591961Y-98244225D01*
X87591961Y-98244224D01*
X87594284Y-98239243D01*
X87611311Y-98175700D01*
X87652119Y-98023402D01*
X87652119Y-98023400D01*
X87653543Y-98018087D01*
X87673498Y-97790000D01*
X95206502Y-97790000D01*
X95226457Y-98018087D01*
X95227881Y-98023400D01*
X95227881Y-98023402D01*
X95268690Y-98175700D01*
X95285716Y-98239243D01*
X95288039Y-98244224D01*
X95288039Y-98244225D01*
X95380151Y-98441762D01*
X95380154Y-98441767D01*
X95382477Y-98446749D01*
X95385634Y-98451257D01*
X95504332Y-98620775D01*
X95513802Y-98634300D01*
X95675700Y-98796198D01*
X95680208Y-98799355D01*
X95680211Y-98799357D01*
X95740538Y-98841598D01*
X95863251Y-98927523D01*
X95868233Y-98929846D01*
X95868238Y-98929849D01*
X96061570Y-99020000D01*
X96070757Y-99024284D01*
X96076065Y-99025706D01*
X96076067Y-99025707D01*
X96286598Y-99082119D01*
X96286600Y-99082119D01*
X96291913Y-99083543D01*
X96520000Y-99103498D01*
X96748087Y-99083543D01*
X96753400Y-99082119D01*
X96753402Y-99082119D01*
X96779970Y-99075000D01*
X99026502Y-99075000D01*
X99046457Y-99303087D01*
X99047881Y-99308400D01*
X99047881Y-99308402D01*
X99092314Y-99474225D01*
X99105716Y-99524243D01*
X99108039Y-99529224D01*
X99108039Y-99529225D01*
X99200151Y-99726762D01*
X99200154Y-99726767D01*
X99202477Y-99731749D01*
X99333802Y-99919300D01*
X99495700Y-100081198D01*
X99500208Y-100084355D01*
X99500211Y-100084357D01*
X99516698Y-100095901D01*
X99683251Y-100212523D01*
X99688233Y-100214846D01*
X99688238Y-100214849D01*
X99885775Y-100306961D01*
X99890757Y-100309284D01*
X99896065Y-100310706D01*
X99896067Y-100310707D01*
X100106598Y-100367119D01*
X100106600Y-100367119D01*
X100111913Y-100368543D01*
X100340000Y-100388498D01*
X100568087Y-100368543D01*
X100573400Y-100367119D01*
X100573402Y-100367119D01*
X100783933Y-100310707D01*
X100783935Y-100310706D01*
X100789243Y-100309284D01*
X100794225Y-100306961D01*
X100991762Y-100214849D01*
X100991767Y-100214846D01*
X100996749Y-100212523D01*
X101163302Y-100095901D01*
X101179789Y-100084357D01*
X101179792Y-100084355D01*
X101184300Y-100081198D01*
X101346198Y-99919300D01*
X101477523Y-99731749D01*
X101479846Y-99726767D01*
X101479849Y-99726762D01*
X101571961Y-99529225D01*
X101571961Y-99529224D01*
X101574284Y-99524243D01*
X101587687Y-99474225D01*
X101632119Y-99308402D01*
X101632119Y-99308400D01*
X101633543Y-99303087D01*
X101653498Y-99075000D01*
X106646502Y-99075000D01*
X106666457Y-99303087D01*
X106667881Y-99308400D01*
X106667881Y-99308402D01*
X106712314Y-99474225D01*
X106725716Y-99524243D01*
X106728039Y-99529224D01*
X106728039Y-99529225D01*
X106820151Y-99726762D01*
X106820154Y-99726767D01*
X106822477Y-99731749D01*
X106953802Y-99919300D01*
X107115700Y-100081198D01*
X107120208Y-100084355D01*
X107120211Y-100084357D01*
X107136698Y-100095901D01*
X107303251Y-100212523D01*
X107308233Y-100214846D01*
X107308238Y-100214849D01*
X107505775Y-100306961D01*
X107510757Y-100309284D01*
X107516065Y-100310706D01*
X107516067Y-100310707D01*
X107726598Y-100367119D01*
X107726600Y-100367119D01*
X107731913Y-100368543D01*
X107960000Y-100388498D01*
X108188087Y-100368543D01*
X108193400Y-100367119D01*
X108193402Y-100367119D01*
X108403933Y-100310707D01*
X108403935Y-100310706D01*
X108409243Y-100309284D01*
X108414225Y-100306961D01*
X108611762Y-100214849D01*
X108611767Y-100214846D01*
X108616749Y-100212523D01*
X108783302Y-100095901D01*
X108799789Y-100084357D01*
X108799792Y-100084355D01*
X108804300Y-100081198D01*
X108966198Y-99919300D01*
X109097523Y-99731749D01*
X109099846Y-99726767D01*
X109099849Y-99726762D01*
X109191961Y-99529225D01*
X109191961Y-99529224D01*
X109194284Y-99524243D01*
X109207687Y-99474225D01*
X109252119Y-99308402D01*
X109252119Y-99308400D01*
X109253543Y-99303087D01*
X109273498Y-99075000D01*
X109253543Y-98846913D01*
X109194284Y-98625757D01*
X109191961Y-98620775D01*
X109099849Y-98423238D01*
X109099846Y-98423233D01*
X109097523Y-98418251D01*
X109024098Y-98313389D01*
X108969357Y-98235211D01*
X108969355Y-98235208D01*
X108966198Y-98230700D01*
X108804300Y-98068802D01*
X108799792Y-98065645D01*
X108799789Y-98065643D01*
X108721241Y-98010643D01*
X108616749Y-97937477D01*
X108611767Y-97935154D01*
X108611762Y-97935151D01*
X108576951Y-97918919D01*
X108523666Y-97872002D01*
X108504205Y-97803725D01*
X108524747Y-97735765D01*
X108576951Y-97690529D01*
X108611511Y-97674414D01*
X108621007Y-97668931D01*
X108799467Y-97543972D01*
X108807875Y-97536916D01*
X108961916Y-97382875D01*
X108968972Y-97374467D01*
X109093931Y-97196007D01*
X109099414Y-97186511D01*
X109191490Y-96989053D01*
X109195236Y-96978761D01*
X109241394Y-96806497D01*
X109241058Y-96792401D01*
X109233116Y-96789000D01*
X106692033Y-96789000D01*
X106678502Y-96792973D01*
X106677273Y-96801522D01*
X106724764Y-96978761D01*
X106728510Y-96989053D01*
X106820586Y-97186511D01*
X106826069Y-97196007D01*
X106951028Y-97374467D01*
X106958084Y-97382875D01*
X107112125Y-97536916D01*
X107120533Y-97543972D01*
X107298993Y-97668931D01*
X107308489Y-97674414D01*
X107343049Y-97690529D01*
X107396334Y-97737446D01*
X107415795Y-97805723D01*
X107395253Y-97873683D01*
X107343049Y-97918919D01*
X107308238Y-97935151D01*
X107308233Y-97935154D01*
X107303251Y-97937477D01*
X107198759Y-98010643D01*
X107120211Y-98065643D01*
X107120208Y-98065645D01*
X107115700Y-98068802D01*
X106953802Y-98230700D01*
X106950645Y-98235208D01*
X106950643Y-98235211D01*
X106895902Y-98313389D01*
X106822477Y-98418251D01*
X106820154Y-98423233D01*
X106820151Y-98423238D01*
X106728039Y-98620775D01*
X106725716Y-98625757D01*
X106666457Y-98846913D01*
X106646502Y-99075000D01*
X101653498Y-99075000D01*
X101633543Y-98846913D01*
X101574284Y-98625757D01*
X101571961Y-98620775D01*
X101479849Y-98423238D01*
X101479846Y-98423233D01*
X101477523Y-98418251D01*
X101404098Y-98313389D01*
X101349357Y-98235211D01*
X101349355Y-98235208D01*
X101346198Y-98230700D01*
X101184300Y-98068802D01*
X101179792Y-98065645D01*
X101179789Y-98065643D01*
X101101241Y-98010643D01*
X100996749Y-97937477D01*
X100991767Y-97935154D01*
X100991762Y-97935151D01*
X100957543Y-97919195D01*
X100904258Y-97872278D01*
X100884797Y-97804001D01*
X100905339Y-97736041D01*
X100957543Y-97690805D01*
X100991762Y-97674849D01*
X100991767Y-97674846D01*
X100996749Y-97672523D01*
X101162307Y-97556598D01*
X101179789Y-97544357D01*
X101179792Y-97544355D01*
X101184300Y-97541198D01*
X101346198Y-97379300D01*
X101477523Y-97191749D01*
X101479846Y-97186767D01*
X101479849Y-97186762D01*
X101571961Y-96989225D01*
X101571961Y-96989224D01*
X101574284Y-96984243D01*
X101604793Y-96870385D01*
X101632119Y-96768402D01*
X101632119Y-96768400D01*
X101633543Y-96763087D01*
X101653498Y-96535000D01*
X101633543Y-96306913D01*
X101620037Y-96256508D01*
X101575707Y-96091067D01*
X101575706Y-96091064D01*
X101574284Y-96085757D01*
X101479966Y-95883489D01*
X101479849Y-95883238D01*
X101479846Y-95883233D01*
X101477523Y-95878251D01*
X101371616Y-95727000D01*
X101349357Y-95695211D01*
X101349355Y-95695208D01*
X101346198Y-95690700D01*
X101184300Y-95528802D01*
X101179789Y-95525643D01*
X101175576Y-95522108D01*
X101176527Y-95520974D01*
X101136529Y-95470929D01*
X101129224Y-95400310D01*
X101161258Y-95336951D01*
X101222462Y-95300970D01*
X101239517Y-95297918D01*
X101250316Y-95296745D01*
X101386705Y-95245615D01*
X101503261Y-95158261D01*
X101590615Y-95041705D01*
X101641745Y-94905316D01*
X101648500Y-94843134D01*
X101648500Y-93995000D01*
X106646502Y-93995000D01*
X106666457Y-94223087D01*
X106667881Y-94228400D01*
X106667881Y-94228402D01*
X106723032Y-94434225D01*
X106725716Y-94444243D01*
X106728039Y-94449224D01*
X106728039Y-94449225D01*
X106820151Y-94646762D01*
X106820154Y-94646767D01*
X106822477Y-94651749D01*
X106843139Y-94681257D01*
X106946028Y-94828197D01*
X106953802Y-94839300D01*
X107115700Y-95001198D01*
X107120208Y-95004355D01*
X107120211Y-95004357D01*
X107171960Y-95040592D01*
X107303251Y-95132523D01*
X107308233Y-95134846D01*
X107308238Y-95134849D01*
X107343049Y-95151081D01*
X107396334Y-95197998D01*
X107415795Y-95266275D01*
X107395253Y-95334235D01*
X107343049Y-95379471D01*
X107308489Y-95395586D01*
X107298993Y-95401069D01*
X107120533Y-95526028D01*
X107112125Y-95533084D01*
X106958084Y-95687125D01*
X106951028Y-95695533D01*
X106826069Y-95873993D01*
X106820586Y-95883489D01*
X106728510Y-96080947D01*
X106724764Y-96091239D01*
X106678606Y-96263503D01*
X106678942Y-96277599D01*
X106686884Y-96281000D01*
X109227967Y-96281000D01*
X109241498Y-96277027D01*
X109242727Y-96268478D01*
X109195236Y-96091239D01*
X109191490Y-96080947D01*
X109099414Y-95883489D01*
X109093931Y-95873993D01*
X108968972Y-95695533D01*
X108961916Y-95687125D01*
X108807875Y-95533084D01*
X108799467Y-95526028D01*
X108621007Y-95401069D01*
X108611511Y-95395586D01*
X108576951Y-95379471D01*
X108523666Y-95332554D01*
X108504205Y-95264277D01*
X108524747Y-95196317D01*
X108576951Y-95151081D01*
X108611762Y-95134849D01*
X108611767Y-95134846D01*
X108616749Y-95132523D01*
X108748040Y-95040592D01*
X108799789Y-95004357D01*
X108799792Y-95004355D01*
X108804300Y-95001198D01*
X108966198Y-94839300D01*
X108973973Y-94828197D01*
X109076861Y-94681257D01*
X109097523Y-94651749D01*
X109099846Y-94646767D01*
X109099849Y-94646762D01*
X109191961Y-94449225D01*
X109191961Y-94449224D01*
X109194284Y-94444243D01*
X109196969Y-94434225D01*
X109252119Y-94228402D01*
X109252119Y-94228400D01*
X109253543Y-94223087D01*
X109273498Y-93995000D01*
X109253543Y-93766913D01*
X109210998Y-93608134D01*
X109195707Y-93551067D01*
X109195706Y-93551065D01*
X109194284Y-93545757D01*
X109189766Y-93536067D01*
X109099849Y-93343238D01*
X109099846Y-93343233D01*
X109097523Y-93338251D01*
X108986862Y-93180211D01*
X108969357Y-93155211D01*
X108969355Y-93155208D01*
X108966198Y-93150700D01*
X108804300Y-92988802D01*
X108799792Y-92985645D01*
X108799789Y-92985643D01*
X108721611Y-92930902D01*
X108616749Y-92857477D01*
X108611767Y-92855154D01*
X108611762Y-92855151D01*
X108414225Y-92763039D01*
X108414224Y-92763039D01*
X108409243Y-92760716D01*
X108403935Y-92759294D01*
X108403933Y-92759293D01*
X108193402Y-92702881D01*
X108193400Y-92702881D01*
X108188087Y-92701457D01*
X107960000Y-92681502D01*
X107731913Y-92701457D01*
X107726600Y-92702881D01*
X107726598Y-92702881D01*
X107516067Y-92759293D01*
X107516065Y-92759294D01*
X107510757Y-92760716D01*
X107505776Y-92763039D01*
X107505775Y-92763039D01*
X107308238Y-92855151D01*
X107308233Y-92855154D01*
X107303251Y-92857477D01*
X107198389Y-92930902D01*
X107120211Y-92985643D01*
X107120208Y-92985645D01*
X107115700Y-92988802D01*
X106953802Y-93150700D01*
X106950645Y-93155208D01*
X106950643Y-93155211D01*
X106933138Y-93180211D01*
X106822477Y-93338251D01*
X106820154Y-93343233D01*
X106820151Y-93343238D01*
X106730234Y-93536067D01*
X106725716Y-93545757D01*
X106724294Y-93551065D01*
X106724293Y-93551067D01*
X106709002Y-93608134D01*
X106666457Y-93766913D01*
X106646502Y-93995000D01*
X101648500Y-93995000D01*
X101648500Y-93146866D01*
X101641745Y-93084684D01*
X101590615Y-92948295D01*
X101503261Y-92831739D01*
X101386705Y-92744385D01*
X101250316Y-92693255D01*
X101188134Y-92686500D01*
X99491866Y-92686500D01*
X99429684Y-92693255D01*
X99293295Y-92744385D01*
X99176739Y-92831739D01*
X99089385Y-92948295D01*
X99038255Y-93084684D01*
X99031500Y-93146866D01*
X99031500Y-94843134D01*
X99038255Y-94905316D01*
X99089385Y-95041705D01*
X99176739Y-95158261D01*
X99293295Y-95245615D01*
X99429684Y-95296745D01*
X99440474Y-95297917D01*
X99442606Y-95298803D01*
X99445222Y-95299425D01*
X99445121Y-95299848D01*
X99506035Y-95325155D01*
X99546463Y-95383517D01*
X99548922Y-95454471D01*
X99512629Y-95515490D01*
X99503969Y-95522489D01*
X99500207Y-95525646D01*
X99495700Y-95528802D01*
X99333802Y-95690700D01*
X99330645Y-95695208D01*
X99330643Y-95695211D01*
X99308384Y-95727000D01*
X99202477Y-95878251D01*
X99200154Y-95883233D01*
X99200151Y-95883238D01*
X99200034Y-95883489D01*
X99105716Y-96085757D01*
X99104294Y-96091064D01*
X99104293Y-96091067D01*
X99059963Y-96256508D01*
X99046457Y-96306913D01*
X99026502Y-96535000D01*
X99046457Y-96763087D01*
X99047881Y-96768400D01*
X99047881Y-96768402D01*
X99075208Y-96870385D01*
X99105716Y-96984243D01*
X99108039Y-96989224D01*
X99108039Y-96989225D01*
X99200151Y-97186762D01*
X99200154Y-97186767D01*
X99202477Y-97191749D01*
X99333802Y-97379300D01*
X99495700Y-97541198D01*
X99500208Y-97544355D01*
X99500211Y-97544357D01*
X99517693Y-97556598D01*
X99683251Y-97672523D01*
X99688233Y-97674846D01*
X99688238Y-97674849D01*
X99722457Y-97690805D01*
X99775742Y-97737722D01*
X99795203Y-97805999D01*
X99774661Y-97873959D01*
X99722457Y-97919195D01*
X99688238Y-97935151D01*
X99688233Y-97935154D01*
X99683251Y-97937477D01*
X99578759Y-98010643D01*
X99500211Y-98065643D01*
X99500208Y-98065645D01*
X99495700Y-98068802D01*
X99333802Y-98230700D01*
X99330645Y-98235208D01*
X99330643Y-98235211D01*
X99275902Y-98313389D01*
X99202477Y-98418251D01*
X99200154Y-98423233D01*
X99200151Y-98423238D01*
X99108039Y-98620775D01*
X99105716Y-98625757D01*
X99046457Y-98846913D01*
X99026502Y-99075000D01*
X96779970Y-99075000D01*
X96963933Y-99025707D01*
X96963935Y-99025706D01*
X96969243Y-99024284D01*
X96978430Y-99020000D01*
X97171762Y-98929849D01*
X97171767Y-98929846D01*
X97176749Y-98927523D01*
X97299462Y-98841598D01*
X97359789Y-98799357D01*
X97359792Y-98799355D01*
X97364300Y-98796198D01*
X97526198Y-98634300D01*
X97535669Y-98620775D01*
X97654366Y-98451257D01*
X97657523Y-98446749D01*
X97659846Y-98441767D01*
X97659849Y-98441762D01*
X97751961Y-98244225D01*
X97751961Y-98244224D01*
X97754284Y-98239243D01*
X97771311Y-98175700D01*
X97812119Y-98023402D01*
X97812119Y-98023400D01*
X97813543Y-98018087D01*
X97833498Y-97790000D01*
X97813543Y-97561913D01*
X97808736Y-97543972D01*
X97755707Y-97346067D01*
X97755706Y-97346065D01*
X97754284Y-97340757D01*
X97751961Y-97335775D01*
X97659849Y-97138238D01*
X97659846Y-97138233D01*
X97657523Y-97133251D01*
X97549348Y-96978761D01*
X97529357Y-96950211D01*
X97529355Y-96950208D01*
X97526198Y-96945700D01*
X97364300Y-96783802D01*
X97359792Y-96780645D01*
X97359789Y-96780643D01*
X97281611Y-96725902D01*
X97176749Y-96652477D01*
X97171767Y-96650154D01*
X97171762Y-96650151D01*
X96974225Y-96558039D01*
X96974224Y-96558039D01*
X96969243Y-96555716D01*
X96963935Y-96554294D01*
X96963933Y-96554293D01*
X96753402Y-96497881D01*
X96753400Y-96497881D01*
X96748087Y-96496457D01*
X96520000Y-96476502D01*
X96291913Y-96496457D01*
X96286600Y-96497881D01*
X96286598Y-96497881D01*
X96076067Y-96554293D01*
X96076065Y-96554294D01*
X96070757Y-96555716D01*
X96065776Y-96558039D01*
X96065775Y-96558039D01*
X95868238Y-96650151D01*
X95868233Y-96650154D01*
X95863251Y-96652477D01*
X95758389Y-96725902D01*
X95680211Y-96780643D01*
X95680208Y-96780645D01*
X95675700Y-96783802D01*
X95513802Y-96945700D01*
X95510645Y-96950208D01*
X95510643Y-96950211D01*
X95490652Y-96978761D01*
X95382477Y-97133251D01*
X95380154Y-97138233D01*
X95380151Y-97138238D01*
X95288039Y-97335775D01*
X95285716Y-97340757D01*
X95284294Y-97346065D01*
X95284293Y-97346067D01*
X95231264Y-97543972D01*
X95226457Y-97561913D01*
X95206502Y-97790000D01*
X87673498Y-97790000D01*
X87653543Y-97561913D01*
X87648736Y-97543972D01*
X87595707Y-97346067D01*
X87595706Y-97346065D01*
X87594284Y-97340757D01*
X87591961Y-97335775D01*
X87499849Y-97138238D01*
X87499846Y-97138233D01*
X87497523Y-97133251D01*
X87389348Y-96978761D01*
X87369357Y-96950211D01*
X87369355Y-96950208D01*
X87366198Y-96945700D01*
X87204300Y-96783802D01*
X87199792Y-96780645D01*
X87199789Y-96780643D01*
X87121611Y-96725902D01*
X87016749Y-96652477D01*
X87011767Y-96650154D01*
X87011762Y-96650151D01*
X86814225Y-96558039D01*
X86814224Y-96558039D01*
X86809243Y-96555716D01*
X86803935Y-96554294D01*
X86803933Y-96554293D01*
X86593402Y-96497881D01*
X86593400Y-96497881D01*
X86588087Y-96496457D01*
X86360000Y-96476502D01*
X86131913Y-96496457D01*
X86126600Y-96497881D01*
X86126598Y-96497881D01*
X85916067Y-96554293D01*
X85916065Y-96554294D01*
X85910757Y-96555716D01*
X85905776Y-96558039D01*
X85905775Y-96558039D01*
X85708238Y-96650151D01*
X85708233Y-96650154D01*
X85703251Y-96652477D01*
X85598389Y-96725902D01*
X85520211Y-96780643D01*
X85520208Y-96780645D01*
X85515700Y-96783802D01*
X85353802Y-96945700D01*
X85350645Y-96950208D01*
X85350643Y-96950211D01*
X85330652Y-96978761D01*
X85222477Y-97133251D01*
X85220154Y-97138233D01*
X85220151Y-97138238D01*
X85128039Y-97335775D01*
X85125716Y-97340757D01*
X85124294Y-97346065D01*
X85124293Y-97346067D01*
X85071264Y-97543972D01*
X85066457Y-97561913D01*
X85046502Y-97790000D01*
X82417554Y-97790000D01*
X82376705Y-97759385D01*
X82240316Y-97708255D01*
X82178134Y-97701500D01*
X80381866Y-97701500D01*
X80319684Y-97708255D01*
X80183295Y-97759385D01*
X80066739Y-97846739D01*
X79979385Y-97963295D01*
X79928255Y-98099684D01*
X79921500Y-98161866D01*
X79921500Y-99958134D01*
X79248500Y-99958134D01*
X79248500Y-94878134D01*
X79921500Y-94878134D01*
X79928255Y-94940316D01*
X79979385Y-95076705D01*
X80066739Y-95193261D01*
X80183295Y-95280615D01*
X80319684Y-95331745D01*
X80381866Y-95338500D01*
X82178134Y-95338500D01*
X82240316Y-95331745D01*
X82376705Y-95280615D01*
X82493261Y-95193261D01*
X82580615Y-95076705D01*
X82631745Y-94940316D01*
X82638500Y-94878134D01*
X82638500Y-93980000D01*
X85046502Y-93980000D01*
X85066457Y-94208087D01*
X85067881Y-94213400D01*
X85067881Y-94213402D01*
X85102742Y-94343502D01*
X85125716Y-94429243D01*
X85128039Y-94434224D01*
X85128039Y-94434225D01*
X85220151Y-94631762D01*
X85220154Y-94631767D01*
X85222477Y-94636749D01*
X85353802Y-94824300D01*
X85515700Y-94986198D01*
X85520208Y-94989355D01*
X85520211Y-94989357D01*
X85542869Y-95005222D01*
X85703251Y-95117523D01*
X85708233Y-95119846D01*
X85708238Y-95119849D01*
X85872226Y-95196317D01*
X85910757Y-95214284D01*
X85916065Y-95215706D01*
X85916067Y-95215707D01*
X86126598Y-95272119D01*
X86126600Y-95272119D01*
X86131913Y-95273543D01*
X86360000Y-95293498D01*
X86588087Y-95273543D01*
X86593400Y-95272119D01*
X86593402Y-95272119D01*
X86803933Y-95215707D01*
X86803935Y-95215706D01*
X86809243Y-95214284D01*
X86847774Y-95196317D01*
X87011762Y-95119849D01*
X87011767Y-95119846D01*
X87016749Y-95117523D01*
X87177131Y-95005222D01*
X87199789Y-94989357D01*
X87199792Y-94989355D01*
X87204300Y-94986198D01*
X87366198Y-94824300D01*
X87497523Y-94636749D01*
X87499846Y-94631767D01*
X87499849Y-94631762D01*
X87591961Y-94434225D01*
X87591961Y-94434224D01*
X87594284Y-94429243D01*
X87617259Y-94343502D01*
X87652119Y-94213402D01*
X87652119Y-94213400D01*
X87653543Y-94208087D01*
X87673498Y-93980000D01*
X95206502Y-93980000D01*
X95226457Y-94208087D01*
X95227881Y-94213400D01*
X95227881Y-94213402D01*
X95262742Y-94343502D01*
X95285716Y-94429243D01*
X95288039Y-94434224D01*
X95288039Y-94434225D01*
X95380151Y-94631762D01*
X95380154Y-94631767D01*
X95382477Y-94636749D01*
X95513802Y-94824300D01*
X95675700Y-94986198D01*
X95680208Y-94989355D01*
X95680211Y-94989357D01*
X95702869Y-95005222D01*
X95863251Y-95117523D01*
X95868233Y-95119846D01*
X95868238Y-95119849D01*
X96032226Y-95196317D01*
X96070757Y-95214284D01*
X96076065Y-95215706D01*
X96076067Y-95215707D01*
X96286598Y-95272119D01*
X96286600Y-95272119D01*
X96291913Y-95273543D01*
X96520000Y-95293498D01*
X96748087Y-95273543D01*
X96753400Y-95272119D01*
X96753402Y-95272119D01*
X96963933Y-95215707D01*
X96963935Y-95215706D01*
X96969243Y-95214284D01*
X97007774Y-95196317D01*
X97171762Y-95119849D01*
X97171767Y-95119846D01*
X97176749Y-95117523D01*
X97337131Y-95005222D01*
X97359789Y-94989357D01*
X97359792Y-94989355D01*
X97364300Y-94986198D01*
X97526198Y-94824300D01*
X97657523Y-94636749D01*
X97659846Y-94631767D01*
X97659849Y-94631762D01*
X97751961Y-94434225D01*
X97751961Y-94434224D01*
X97754284Y-94429243D01*
X97777259Y-94343502D01*
X97812119Y-94213402D01*
X97812119Y-94213400D01*
X97813543Y-94208087D01*
X97833498Y-93980000D01*
X97813543Y-93751913D01*
X97789574Y-93662460D01*
X97755707Y-93536067D01*
X97755706Y-93536065D01*
X97754284Y-93530757D01*
X97678501Y-93368238D01*
X97659849Y-93328238D01*
X97659846Y-93328233D01*
X97657523Y-93323251D01*
X97557365Y-93180211D01*
X97529357Y-93140211D01*
X97529355Y-93140208D01*
X97526198Y-93135700D01*
X97364300Y-92973802D01*
X97359792Y-92970645D01*
X97359789Y-92970643D01*
X97235043Y-92883295D01*
X97176749Y-92842477D01*
X97171767Y-92840154D01*
X97171762Y-92840151D01*
X96974225Y-92748039D01*
X96974224Y-92748039D01*
X96969243Y-92745716D01*
X96963935Y-92744294D01*
X96963933Y-92744293D01*
X96753402Y-92687881D01*
X96753400Y-92687881D01*
X96748087Y-92686457D01*
X96520000Y-92666502D01*
X96291913Y-92686457D01*
X96286600Y-92687881D01*
X96286598Y-92687881D01*
X96076067Y-92744293D01*
X96076065Y-92744294D01*
X96070757Y-92745716D01*
X96065776Y-92748039D01*
X96065775Y-92748039D01*
X95868238Y-92840151D01*
X95868233Y-92840154D01*
X95863251Y-92842477D01*
X95804957Y-92883295D01*
X95680211Y-92970643D01*
X95680208Y-92970645D01*
X95675700Y-92973802D01*
X95513802Y-93135700D01*
X95510645Y-93140208D01*
X95510643Y-93140211D01*
X95482635Y-93180211D01*
X95382477Y-93323251D01*
X95380154Y-93328233D01*
X95380151Y-93328238D01*
X95361499Y-93368238D01*
X95285716Y-93530757D01*
X95284294Y-93536065D01*
X95284293Y-93536067D01*
X95250426Y-93662460D01*
X95226457Y-93751913D01*
X95206502Y-93980000D01*
X87673498Y-93980000D01*
X87653543Y-93751913D01*
X87629574Y-93662460D01*
X87595707Y-93536067D01*
X87595706Y-93536065D01*
X87594284Y-93530757D01*
X87518501Y-93368238D01*
X87499849Y-93328238D01*
X87499846Y-93328233D01*
X87497523Y-93323251D01*
X87397365Y-93180211D01*
X87369357Y-93140211D01*
X87369355Y-93140208D01*
X87366198Y-93135700D01*
X87204300Y-92973802D01*
X87199792Y-92970645D01*
X87199789Y-92970643D01*
X87075043Y-92883295D01*
X87016749Y-92842477D01*
X87011767Y-92840154D01*
X87011762Y-92840151D01*
X86814225Y-92748039D01*
X86814224Y-92748039D01*
X86809243Y-92745716D01*
X86803935Y-92744294D01*
X86803933Y-92744293D01*
X86593402Y-92687881D01*
X86593400Y-92687881D01*
X86588087Y-92686457D01*
X86360000Y-92666502D01*
X86131913Y-92686457D01*
X86126600Y-92687881D01*
X86126598Y-92687881D01*
X85916067Y-92744293D01*
X85916065Y-92744294D01*
X85910757Y-92745716D01*
X85905776Y-92748039D01*
X85905775Y-92748039D01*
X85708238Y-92840151D01*
X85708233Y-92840154D01*
X85703251Y-92842477D01*
X85644957Y-92883295D01*
X85520211Y-92970643D01*
X85520208Y-92970645D01*
X85515700Y-92973802D01*
X85353802Y-93135700D01*
X85350645Y-93140208D01*
X85350643Y-93140211D01*
X85322635Y-93180211D01*
X85222477Y-93323251D01*
X85220154Y-93328233D01*
X85220151Y-93328238D01*
X85201499Y-93368238D01*
X85125716Y-93530757D01*
X85124294Y-93536065D01*
X85124293Y-93536067D01*
X85090426Y-93662460D01*
X85066457Y-93751913D01*
X85046502Y-93980000D01*
X82638500Y-93980000D01*
X82638500Y-93081866D01*
X82631745Y-93019684D01*
X82580615Y-92883295D01*
X82493261Y-92766739D01*
X82376705Y-92679385D01*
X82240316Y-92628255D01*
X82178134Y-92621500D01*
X80381866Y-92621500D01*
X80319684Y-92628255D01*
X80183295Y-92679385D01*
X80066739Y-92766739D01*
X79979385Y-92883295D01*
X79928255Y-93019684D01*
X79921500Y-93081866D01*
X79921500Y-94878134D01*
X79248500Y-94878134D01*
X79248500Y-90875062D01*
X108411493Y-90875062D01*
X108420789Y-90887077D01*
X108471994Y-90922931D01*
X108481489Y-90928414D01*
X108678947Y-91020490D01*
X108689239Y-91024236D01*
X108899688Y-91080625D01*
X108910481Y-91082528D01*
X109127525Y-91101517D01*
X109138475Y-91101517D01*
X109355519Y-91082528D01*
X109366312Y-91080625D01*
X109576761Y-91024236D01*
X109587053Y-91020490D01*
X109784511Y-90928414D01*
X109794006Y-90922931D01*
X109846048Y-90886491D01*
X109854424Y-90876012D01*
X109847356Y-90862566D01*
X109145812Y-90161022D01*
X109131868Y-90153408D01*
X109130035Y-90153539D01*
X109123420Y-90157790D01*
X108417923Y-90863287D01*
X108411493Y-90875062D01*
X79248500Y-90875062D01*
X79248500Y-89925134D01*
X88303500Y-89925134D01*
X88310255Y-89987316D01*
X88361385Y-90123705D01*
X88448739Y-90240261D01*
X88565295Y-90327615D01*
X88701684Y-90378745D01*
X88763866Y-90385500D01*
X90560134Y-90385500D01*
X90622316Y-90378745D01*
X90758705Y-90327615D01*
X90875261Y-90240261D01*
X90962615Y-90123705D01*
X91013745Y-89987316D01*
X91020500Y-89925134D01*
X91020500Y-88900000D01*
X94484502Y-88900000D01*
X94504457Y-89128087D01*
X94505881Y-89133400D01*
X94505881Y-89133402D01*
X94515031Y-89167548D01*
X94563716Y-89349243D01*
X94566039Y-89354224D01*
X94566039Y-89354225D01*
X94658151Y-89551762D01*
X94658154Y-89551767D01*
X94660477Y-89556749D01*
X94733902Y-89661611D01*
X94779025Y-89726052D01*
X94791802Y-89744300D01*
X94953700Y-89906198D01*
X94958208Y-89909355D01*
X94958211Y-89909357D01*
X94999195Y-89938054D01*
X95141251Y-90037523D01*
X95146233Y-90039846D01*
X95146238Y-90039849D01*
X95343775Y-90131961D01*
X95348757Y-90134284D01*
X95354065Y-90135706D01*
X95354067Y-90135707D01*
X95564598Y-90192119D01*
X95564600Y-90192119D01*
X95569913Y-90193543D01*
X95798000Y-90213498D01*
X96026087Y-90193543D01*
X96031400Y-90192119D01*
X96031402Y-90192119D01*
X96241933Y-90135707D01*
X96241935Y-90135706D01*
X96247243Y-90134284D01*
X96252225Y-90131961D01*
X96449762Y-90039849D01*
X96449767Y-90039846D01*
X96454749Y-90037523D01*
X96596805Y-89938054D01*
X96637789Y-89909357D01*
X96637792Y-89909355D01*
X96642300Y-89906198D01*
X96788420Y-89760078D01*
X96850732Y-89726052D01*
X96921547Y-89731117D01*
X96978383Y-89773664D01*
X96995683Y-89810606D01*
X96996748Y-89810207D01*
X97044676Y-89938054D01*
X97053214Y-89953649D01*
X97129715Y-90055724D01*
X97142276Y-90068285D01*
X97244351Y-90144786D01*
X97259946Y-90153324D01*
X97380394Y-90198478D01*
X97395649Y-90202105D01*
X97446514Y-90207631D01*
X97453328Y-90208000D01*
X98025885Y-90208000D01*
X98041124Y-90203525D01*
X98042329Y-90202135D01*
X98044000Y-90194452D01*
X98044000Y-90189884D01*
X98552000Y-90189884D01*
X98556475Y-90205123D01*
X98557865Y-90206328D01*
X98565548Y-90207999D01*
X99142669Y-90207999D01*
X99149490Y-90207629D01*
X99200352Y-90202105D01*
X99215604Y-90198479D01*
X99336054Y-90153324D01*
X99351649Y-90144786D01*
X99453724Y-90068285D01*
X99466285Y-90055724D01*
X99542786Y-89953649D01*
X99551324Y-89938054D01*
X99596478Y-89817606D01*
X99600105Y-89802351D01*
X99600940Y-89794669D01*
X102655001Y-89794669D01*
X102655371Y-89801490D01*
X102660895Y-89852352D01*
X102664521Y-89867604D01*
X102709676Y-89988054D01*
X102718214Y-90003649D01*
X102794715Y-90105724D01*
X102807276Y-90118285D01*
X102909351Y-90194786D01*
X102924946Y-90203324D01*
X103045394Y-90248478D01*
X103060649Y-90252105D01*
X103111514Y-90257631D01*
X103118328Y-90258000D01*
X103740885Y-90258000D01*
X103756124Y-90253525D01*
X103757329Y-90252135D01*
X103759000Y-90244452D01*
X103759000Y-90239884D01*
X104267000Y-90239884D01*
X104271475Y-90255123D01*
X104272865Y-90256328D01*
X104280548Y-90257999D01*
X104907669Y-90257999D01*
X104914490Y-90257629D01*
X104965352Y-90252105D01*
X104980604Y-90248479D01*
X105101054Y-90203324D01*
X105116649Y-90194786D01*
X105218724Y-90118285D01*
X105231285Y-90105724D01*
X105307786Y-90003649D01*
X105316324Y-89988054D01*
X105361478Y-89867606D01*
X105365105Y-89852351D01*
X105370631Y-89801486D01*
X105371000Y-89794669D01*
X105371000Y-89794475D01*
X107820483Y-89794475D01*
X107839471Y-90011517D01*
X107841375Y-90022312D01*
X107897764Y-90232761D01*
X107901510Y-90243053D01*
X107993586Y-90440511D01*
X107999069Y-90450006D01*
X108035509Y-90502048D01*
X108045988Y-90510424D01*
X108059434Y-90503356D01*
X108760978Y-89801812D01*
X108767356Y-89790132D01*
X109497408Y-89790132D01*
X109497539Y-89791965D01*
X109501790Y-89798580D01*
X110207287Y-90504077D01*
X110219062Y-90510507D01*
X110231077Y-90501211D01*
X110266931Y-90450006D01*
X110272414Y-90440511D01*
X110364490Y-90243053D01*
X110368236Y-90232761D01*
X110424625Y-90022312D01*
X110426529Y-90011517D01*
X110445517Y-89794475D01*
X110445517Y-89783525D01*
X110426528Y-89566481D01*
X110424625Y-89555688D01*
X110368236Y-89345239D01*
X110364490Y-89334947D01*
X110272414Y-89137489D01*
X110266931Y-89127994D01*
X110230491Y-89075952D01*
X110220012Y-89067576D01*
X110206566Y-89074644D01*
X109505022Y-89776188D01*
X109497408Y-89790132D01*
X108767356Y-89790132D01*
X108768592Y-89787868D01*
X108768461Y-89786035D01*
X108764210Y-89779420D01*
X108058713Y-89073923D01*
X108046938Y-89067493D01*
X108034923Y-89076789D01*
X107999069Y-89127994D01*
X107993586Y-89137489D01*
X107901510Y-89334947D01*
X107897764Y-89345239D01*
X107841375Y-89555688D01*
X107839472Y-89566481D01*
X107820483Y-89783525D01*
X107820483Y-89794475D01*
X105371000Y-89794475D01*
X105371000Y-89172115D01*
X105366525Y-89156876D01*
X105365135Y-89155671D01*
X105357452Y-89154000D01*
X104285115Y-89154000D01*
X104269876Y-89158475D01*
X104268671Y-89159865D01*
X104267000Y-89167548D01*
X104267000Y-90239884D01*
X103759000Y-90239884D01*
X103759000Y-89172115D01*
X103754525Y-89156876D01*
X103753135Y-89155671D01*
X103745452Y-89154000D01*
X102673116Y-89154000D01*
X102657877Y-89158475D01*
X102656672Y-89159865D01*
X102655001Y-89167548D01*
X102655001Y-89794669D01*
X99600940Y-89794669D01*
X99605631Y-89751486D01*
X99606000Y-89744672D01*
X99606000Y-89172115D01*
X99601525Y-89156876D01*
X99600135Y-89155671D01*
X99592452Y-89154000D01*
X98570115Y-89154000D01*
X98554876Y-89158475D01*
X98553671Y-89159865D01*
X98552000Y-89167548D01*
X98552000Y-90189884D01*
X98044000Y-90189884D01*
X98044000Y-88701988D01*
X108411576Y-88701988D01*
X108418644Y-88715434D01*
X109120188Y-89416978D01*
X109134132Y-89424592D01*
X109135965Y-89424461D01*
X109142580Y-89420210D01*
X109848077Y-88714713D01*
X109854507Y-88702938D01*
X109845211Y-88690923D01*
X109794006Y-88655069D01*
X109784511Y-88649586D01*
X109587053Y-88557510D01*
X109576761Y-88553764D01*
X109366312Y-88497375D01*
X109355519Y-88495472D01*
X109138475Y-88476483D01*
X109127525Y-88476483D01*
X108910481Y-88495472D01*
X108899688Y-88497375D01*
X108689239Y-88553764D01*
X108678947Y-88557510D01*
X108481489Y-88649586D01*
X108471994Y-88655069D01*
X108419952Y-88691509D01*
X108411576Y-88701988D01*
X98044000Y-88701988D01*
X98044000Y-88627885D01*
X98552000Y-88627885D01*
X98556475Y-88643124D01*
X98557865Y-88644329D01*
X98565548Y-88646000D01*
X99587884Y-88646000D01*
X99603123Y-88641525D01*
X99604328Y-88640135D01*
X99605999Y-88632452D01*
X99605999Y-88627885D01*
X102655000Y-88627885D01*
X102659475Y-88643124D01*
X102660865Y-88644329D01*
X102668548Y-88646000D01*
X103740885Y-88646000D01*
X103756124Y-88641525D01*
X103757329Y-88640135D01*
X103759000Y-88632452D01*
X103759000Y-88627885D01*
X104267000Y-88627885D01*
X104271475Y-88643124D01*
X104272865Y-88644329D01*
X104280548Y-88646000D01*
X105352884Y-88646000D01*
X105368123Y-88641525D01*
X105369328Y-88640135D01*
X105370999Y-88632452D01*
X105370999Y-88005331D01*
X105370629Y-87998510D01*
X105365105Y-87947648D01*
X105361479Y-87932396D01*
X105316324Y-87811946D01*
X105307786Y-87796351D01*
X105231285Y-87694276D01*
X105218724Y-87681715D01*
X105116649Y-87605214D01*
X105101054Y-87596676D01*
X104980606Y-87551522D01*
X104965351Y-87547895D01*
X104914486Y-87542369D01*
X104907672Y-87542000D01*
X104285115Y-87542000D01*
X104269876Y-87546475D01*
X104268671Y-87547865D01*
X104267000Y-87555548D01*
X104267000Y-88627885D01*
X103759000Y-88627885D01*
X103759000Y-87560116D01*
X103754525Y-87544877D01*
X103753135Y-87543672D01*
X103745452Y-87542001D01*
X103118331Y-87542001D01*
X103111510Y-87542371D01*
X103060648Y-87547895D01*
X103045396Y-87551521D01*
X102924946Y-87596676D01*
X102909351Y-87605214D01*
X102807276Y-87681715D01*
X102794715Y-87694276D01*
X102718214Y-87796351D01*
X102709676Y-87811946D01*
X102664522Y-87932394D01*
X102660895Y-87947649D01*
X102655369Y-87998514D01*
X102655000Y-88005328D01*
X102655000Y-88627885D01*
X99605999Y-88627885D01*
X99605999Y-88055331D01*
X99605629Y-88048510D01*
X99600105Y-87997648D01*
X99596479Y-87982396D01*
X99551324Y-87861946D01*
X99542786Y-87846351D01*
X99466285Y-87744276D01*
X99453724Y-87731715D01*
X99351649Y-87655214D01*
X99336054Y-87646676D01*
X99215606Y-87601522D01*
X99200351Y-87597895D01*
X99149486Y-87592369D01*
X99142672Y-87592000D01*
X98570115Y-87592000D01*
X98554876Y-87596475D01*
X98553671Y-87597865D01*
X98552000Y-87605548D01*
X98552000Y-88627885D01*
X98044000Y-88627885D01*
X98044000Y-87610116D01*
X98039525Y-87594877D01*
X98038135Y-87593672D01*
X98030452Y-87592001D01*
X97453331Y-87592001D01*
X97446510Y-87592371D01*
X97395648Y-87597895D01*
X97380396Y-87601521D01*
X97259946Y-87646676D01*
X97244351Y-87655214D01*
X97142276Y-87731715D01*
X97129715Y-87744276D01*
X97053214Y-87846351D01*
X97044676Y-87861946D01*
X96996748Y-87989793D01*
X96994888Y-87989096D01*
X96964869Y-88041628D01*
X96901910Y-88074442D01*
X96831206Y-88068008D01*
X96788419Y-88039921D01*
X96642300Y-87893802D01*
X96637792Y-87890645D01*
X96637789Y-87890643D01*
X96559611Y-87835902D01*
X96454749Y-87762477D01*
X96449767Y-87760154D01*
X96449762Y-87760151D01*
X96252225Y-87668039D01*
X96252224Y-87668039D01*
X96247243Y-87665716D01*
X96241935Y-87664294D01*
X96241933Y-87664293D01*
X96031402Y-87607881D01*
X96031400Y-87607881D01*
X96026087Y-87606457D01*
X95798000Y-87586502D01*
X95569913Y-87606457D01*
X95564600Y-87607881D01*
X95564598Y-87607881D01*
X95354067Y-87664293D01*
X95354065Y-87664294D01*
X95348757Y-87665716D01*
X95343776Y-87668039D01*
X95343775Y-87668039D01*
X95146238Y-87760151D01*
X95146233Y-87760154D01*
X95141251Y-87762477D01*
X95036389Y-87835902D01*
X94958211Y-87890643D01*
X94958208Y-87890645D01*
X94953700Y-87893802D01*
X94791802Y-88055700D01*
X94788645Y-88060208D01*
X94788643Y-88060211D01*
X94778610Y-88074540D01*
X94660477Y-88243251D01*
X94658154Y-88248233D01*
X94658151Y-88248238D01*
X94566039Y-88445775D01*
X94563716Y-88450757D01*
X94562294Y-88456065D01*
X94562293Y-88456067D01*
X94509933Y-88651477D01*
X94504457Y-88671913D01*
X94484502Y-88900000D01*
X91020500Y-88900000D01*
X91020500Y-88128866D01*
X91013745Y-88066684D01*
X90962615Y-87930295D01*
X90875261Y-87813739D01*
X90758705Y-87726385D01*
X90622316Y-87675255D01*
X90560134Y-87668500D01*
X88763866Y-87668500D01*
X88701684Y-87675255D01*
X88565295Y-87726385D01*
X88448739Y-87813739D01*
X88361385Y-87930295D01*
X88310255Y-88066684D01*
X88303500Y-88128866D01*
X88303500Y-89925134D01*
X79248500Y-89925134D01*
X79248500Y-87385134D01*
X128689500Y-87385134D01*
X128696255Y-87447316D01*
X128747385Y-87583705D01*
X128834739Y-87700261D01*
X128951295Y-87787615D01*
X129087684Y-87838745D01*
X129149866Y-87845500D01*
X130946134Y-87845500D01*
X131008316Y-87838745D01*
X131144705Y-87787615D01*
X131261261Y-87700261D01*
X131348615Y-87583705D01*
X131399745Y-87447316D01*
X131406500Y-87385134D01*
X131406500Y-85588866D01*
X131399745Y-85526684D01*
X131348615Y-85390295D01*
X131261261Y-85273739D01*
X131144705Y-85186385D01*
X131008316Y-85135255D01*
X130946134Y-85128500D01*
X129149866Y-85128500D01*
X129087684Y-85135255D01*
X128951295Y-85186385D01*
X128834739Y-85273739D01*
X128747385Y-85390295D01*
X128696255Y-85526684D01*
X128689500Y-85588866D01*
X128689500Y-87385134D01*
X79248500Y-87385134D01*
X79248500Y-84454500D01*
X79268502Y-84386379D01*
X79322158Y-84339886D01*
X79374500Y-84328500D01*
X133985500Y-84328500D01*
X134053621Y-84348502D01*
G37*
%TD.AperFunction*%
%TD*%
M02*
