M48
; DRILL file {KiCad (6.0.9-0)} date 2023 February 11, Saturday 15:38:11
; FORMAT={-:-/ absolute / inch / decimal}
; #@! TF.CreationDate,2023-02-11T15:38:11+01:00
; #@! TF.GenerationSoftware,Kicad,Pcbnew,(6.0.9-0)
; #@! TF.FileFunction,Plated,1,2,PTH
FMAT,2
INCH
; #@! TA.AperFunction,Plated,PTH,ViaDrill
T1C0.0157
; #@! TA.AperFunction,Plated,PTH,ViaDrill
T2C0.0236
; #@! TA.AperFunction,Plated,PTH,ComponentDrill
T3C0.0315
; #@! TA.AperFunction,Plated,PTH,ComponentDrill
T4C0.0394
%
G90
G05
T1
X4.35Y-4.9
X4.825Y-3.95
T2
X4.015Y-4.555
T3
X3.4Y-3.7
X3.4Y-3.85
X3.4Y-4.2
X3.4Y-4.35
X3.4Y-4.63
X3.7716Y-3.5
X3.8Y-3.7
X3.8Y-3.85
X3.8Y-4.2
X3.8Y-4.35
X3.8Y-4.63
X3.87Y-3.5
X3.9504Y-3.7006
X3.9504Y-3.8006
X3.9504Y-3.9006
X3.9567Y-4.2006
X3.9567Y-4.3006
X3.9567Y-4.4006
X3.9604Y-4.7006
X3.9604Y-4.8006
X3.9604Y-4.9006
X4.2504Y-3.7006
X4.2504Y-3.8006
X4.2504Y-3.9006
X4.2567Y-4.2006
X4.2567Y-4.3006
X4.2567Y-4.4006
X4.2604Y-4.7006
X4.2604Y-4.8006
X4.2604Y-4.9006
X4.2966Y-3.535
X4.45Y-3.7016
X4.45Y-3.8984
X4.45Y-4.005
X4.45Y-4.2019
X4.45Y-4.3081
X4.45Y-4.505
X4.49Y-4.67
X4.4934Y-3.535
X4.6004Y-3.7006
X4.6004Y-3.8006
X4.6004Y-3.9006
X4.6004Y-4.0006
X4.6004Y-4.1006
X4.6004Y-4.2006
X4.6004Y-4.3006
X4.6004Y-4.4006
X4.645Y-4.925
X4.6516Y-3.535
X4.8484Y-3.535
X4.89Y-4.67
X4.9004Y-3.7006
X4.9004Y-3.8006
X4.9004Y-3.9006
X4.9004Y-4.0006
X4.9004Y-4.1006
X4.9004Y-4.2006
X4.9004Y-4.3006
X4.9004Y-4.4006
X5.045Y-4.925
X5.115Y-4.22
X5.115Y-4.62
T4
X3.185Y-4.66
X3.185Y-4.875
X3.2Y-3.7
X3.2Y-3.9
X3.2Y-4.2
X3.2Y-4.39
X3.53Y-3.505
X4.095Y-3.5
X5.12Y-3.405
X5.12Y-4.06
X5.125Y-3.65
X5.125Y-3.865
T0
M30
